<svg width="44" height="76" viewBox="0 0 44 76" fill="none" xmlns="http://www.w3.org/2000/svg">
<path fill-rule="evenodd" clip-rule="evenodd" d="M20.5858 19.3578L5.74216 34.2015C4.71395 31.3299 4.02711 29.098 3.76808 27.7733C3.76382 27.7515 3.75932 27.7298 3.75458 27.7081C3.6817 27.3748 3.62472 27.0341 3.58331 26.6861C3.56528 26.5345 3.55024 26.3818 3.53812 26.228L20.5858 9.18031L20.5858 19.3578ZM20.5858 23.6004L6.88899 37.2973C8.12383 40.5347 9.62044 44.1981 11.2334 47.9371L20.5858 38.5847V23.6004ZM20.5858 42.8273L12.5241 50.889C13.9599 54.1288 15.4489 57.345 16.8966 60.3132L20.5858 56.624L20.5858 42.8273ZM20.5858 60.8667L18.3052 63.1473C19.1105 64.735 19.8757 66.1839 20.5858 67.4681L20.5858 60.8667ZM20.2542 72.7991C18.8406 70.6133 17.149 67.5261 15.3602 63.9709C15.1266 63.5066 14.8914 63.0343 14.6548 62.555C12.9849 59.1708 11.2524 55.4367 9.59919 51.6926C9.38212 51.201 9.16643 50.7092 8.95243 50.218C7.09834 45.9626 5.37099 41.7518 3.97917 38.0858C3.7794 37.5596 3.58654 37.0447 3.40122 36.5424C2.09887 33.0129 1.16833 30.1107 0.823843 28.349C0.729494 27.9175 0.656746 27.4811 0.604322 27.0405C0.525295 26.3763 0.492457 25.7025 0.501442 25.022C0.616726 16.2913 7.61689 6.45184 12.2782 1.36627C12.9543 0.628652 13.9691 0.320548 14.965 0.417312C16.7656 0.405022 18.8398 0.411659 20.4311 0.416751C21.0801 0.418828 21.6488 0.420648 22.0858 0.420821C22.4729 0.420974 22.9915 0.421048 23.5858 0.421072C24.5317 0.421112 25.6695 0.421028 26.7743 0.420947C27.6417 0.420883 28.4888 0.420821 29.2066 0.420821C30.2024 0.323796 31.2168 0.631338 31.8929 1.36877C36.5555 6.45405 43.5577 16.2933 43.672 25.0239C43.6809 25.7043 43.648 26.3779 43.5689 27.0421C43.5164 27.4826 43.4436 27.919 43.3492 28.3504C42.9394 30.1482 41.9921 33.0149 40.7025 36.4745C40.5156 36.9758 40.3216 37.4895 40.1209 38.0142C38.7174 41.6849 36.9915 45.8938 35.1466 50.1454C34.9331 50.6373 34.7181 51.1297 34.5018 51.6219C32.8523 55.3757 31.1285 59.118 29.4702 62.5085C29.235 62.9893 29.0012 63.463 28.7691 63.9286C26.9873 67.5032 25.3065 70.6038 23.9072 72.7913C23.7983 72.9615 23.6911 73.1262 23.5858 73.2851C23.0323 74.1198 22.5282 74.7963 22.0857 75.2848C21.6411 74.795 21.1372 74.1249 20.5858 73.3028C20.477 73.1407 20.3665 72.9727 20.2542 72.7991ZM23.5858 67.3983C24.2949 66.1002 25.0467 64.6578 25.8258 63.1067L23.5858 60.8667L23.5858 67.3983ZM23.5858 56.6241L27.2257 60.264C28.6638 57.2899 30.1453 54.0668 31.5775 50.8189L23.5858 42.8273L23.5858 56.6241ZM23.5858 38.5847L32.8644 47.8632C34.4695 44.1293 35.9655 40.4678 37.2106 37.2252L23.5858 23.6004V38.5847ZM23.5858 19.3578L38.3658 34.1377C39.3868 31.3258 40.1019 29.0924 40.4212 27.6966C40.4929 27.3674 40.549 27.0308 40.59 26.6872C40.608 26.5358 40.623 26.3833 40.6352 26.2297L23.5858 9.18032L23.5858 19.3578ZM23.5858 4.93767L40.235 21.5869C39.6984 19.214 38.6957 16.7147 37.3747 14.2199C35.1002 9.9241 32.0843 6.02078 29.7062 3.42298C29.7061 3.42293 29.7059 3.42288 29.7058 3.42283C29.6719 3.41134 29.5993 3.39677 29.4976 3.40668C29.4009 3.4161 29.3038 3.42082 29.2066 3.42082C28.4895 3.42082 27.6429 3.42088 26.7758 3.42095C25.6707 3.42103 24.5324 3.42111 23.5858 3.42107V4.93767ZM20.5858 3.41728C20.5244 3.41709 20.4623 3.41689 20.3995 3.41669C18.8122 3.4116 16.7702 3.40506 14.9854 3.41724C14.8817 3.41795 14.7781 3.41328 14.6748 3.40325C14.5733 3.39339 14.5006 3.40795 14.4664 3.41956C14.4661 3.41966 14.4658 3.41976 14.4655 3.41986C12.088 6.01784 9.07275 9.92146 6.79861 14.2177C5.47802 16.7124 4.47545 19.2117 3.93876 21.5847L20.5858 4.93767V3.41728Z" fill="white"/>
</svg>
