<svg width="44" height="76" viewBox="0 0 44 76" fill="none" xmlns="http://www.w3.org/2000/svg">
<path fill-rule="evenodd" clip-rule="evenodd" d="M20.4124 19.3578L5.56873 34.2015C4.54052 31.3299 3.85368 29.098 3.59465 27.7733C3.59039 27.7515 3.58589 27.7298 3.58115 27.7081C3.50827 27.3748 3.45129 27.0341 3.40988 26.6861C3.39185 26.5345 3.37681 26.3818 3.36469 26.228L20.4124 9.18031L20.4124 19.3578ZM20.4124 23.6004L6.71555 37.2973C7.9504 40.5347 9.44701 44.1981 11.0599 47.9371L20.4124 38.5847V23.6004ZM20.4124 42.8273L12.3507 50.889C13.7865 54.1288 15.2755 57.345 16.7232 60.3132L20.4124 56.624L20.4124 42.8273ZM20.4123 60.8667L18.1318 63.1473C18.9371 64.735 19.7022 66.1839 20.4123 67.4681L20.4123 60.8667ZM20.0807 72.7991C18.6672 70.6133 16.9756 67.5261 15.1868 63.9709C14.9532 63.5066 14.7179 63.0343 14.4814 62.555C12.8114 59.1708 11.0789 55.4367 9.42575 51.6926C9.20869 51.201 8.993 50.7092 8.77899 50.218C6.92491 45.9626 5.19756 41.7518 3.80573 38.0858C3.60597 37.5596 3.41311 37.0447 3.22779 36.5424C1.92543 33.0129 0.9949 30.1107 0.650412 28.349C0.556062 27.9175 0.483314 27.4811 0.430891 27.0405C0.351863 26.3763 0.319026 25.7025 0.328011 25.022C0.443295 16.2913 7.44346 6.45184 12.1048 1.36627C12.7809 0.628652 13.7956 0.320548 14.7915 0.417312C16.5921 0.405022 18.6664 0.411659 20.2577 0.416751C20.9067 0.418828 21.4754 0.420648 21.9124 0.420821C22.2995 0.420974 22.8181 0.421048 23.4124 0.421072C24.3583 0.421112 25.4961 0.421028 26.6009 0.420947C27.4683 0.420883 28.3153 0.420821 29.0332 0.420821C30.029 0.323796 31.0433 0.631338 31.7195 1.36877C36.3821 6.45405 43.3843 16.2933 43.4986 25.0239C43.5075 25.7043 43.4746 26.3779 43.3955 27.0421C43.343 27.4826 43.2702 27.919 43.1758 28.3504C42.766 30.1482 41.8186 33.0149 40.529 36.4745C40.3422 36.9758 40.1481 37.4895 39.9475 38.0142C38.544 41.6849 36.818 45.8938 34.9731 50.1454C34.7597 50.6373 34.5447 51.1297 34.3284 51.6219C32.6788 55.3757 30.955 59.118 29.2968 62.5085C29.0616 62.9893 28.8278 63.463 28.5956 63.9286C26.8138 67.5032 25.1331 70.6038 23.7338 72.7913C23.6249 72.9615 23.5177 73.1262 23.4123 73.2851C22.8589 74.1198 22.3548 74.7963 21.9123 75.2848C21.4677 74.795 20.9638 74.1249 20.4123 73.3028C20.3036 73.1407 20.193 72.9727 20.0807 72.7991ZM23.4123 67.3983C24.1214 66.1002 24.8733 64.6578 25.6523 63.1067L23.4123 60.8667L23.4123 67.3983ZM23.4124 56.6241L27.0523 60.264C28.4903 57.2899 29.9718 54.0668 31.404 50.8189L23.4124 42.8273L23.4124 56.6241ZM23.4124 38.5847L32.691 47.8632C34.2961 44.1293 35.792 40.4678 37.0371 37.2252L23.4124 23.6004V38.5847ZM23.4124 19.3578L38.1923 34.1377C39.2134 31.3258 39.9284 29.0924 40.2478 27.6966C40.3195 27.3674 40.3756 27.0308 40.4165 26.6872C40.4346 26.5358 40.4496 26.3833 40.4617 26.2297L23.4124 9.18032L23.4124 19.3578ZM23.4124 4.93767L40.0616 21.5869C39.525 19.214 38.5223 16.7147 37.2013 14.2199C34.9268 9.9241 31.9108 6.02078 29.5328 3.42298C29.5327 3.42293 29.5325 3.42288 29.5324 3.42283C29.4985 3.41134 29.4259 3.39677 29.3241 3.40668C29.2274 3.4161 29.1303 3.42082 29.0332 3.42082C28.316 3.42082 27.4695 3.42088 26.6023 3.42095C25.4973 3.42103 24.3589 3.42111 23.4124 3.42107V4.93767ZM20.4124 3.41728C20.351 3.41709 20.2889 3.41689 20.226 3.41669C18.6387 3.4116 16.5968 3.40506 14.812 3.41724C14.7083 3.41795 14.6046 3.41328 14.5014 3.40325C14.3999 3.39339 14.3271 3.40795 14.2929 3.41956C14.2926 3.41966 14.2923 3.41976 14.292 3.41986C11.9146 6.01784 8.89932 9.92146 6.62518 14.2177C5.30459 16.7124 4.30202 19.2117 3.76533 21.5847L20.4124 4.93767V3.41728Z" fill="white"/>
</svg>
