<svg width="44" height="76" viewBox="0 0 44 76" fill="none" xmlns="http://www.w3.org/2000/svg">
<path d="M20.4557 19.3528L4.44027 35.3683C3.27208 32.1574 2.4666 29.5941 2.16587 28.0561C2.16374 28.0452 2.16149 28.0344 2.15912 28.0235C2.12577 27.871 2.0954 27.7175 2.06796 27.5631L20.4557 9.17532L20.4557 19.3528ZM5.59762 38.4536L20.4557 23.5955V38.5797L9.96239 49.073C8.35598 45.3678 6.85455 41.7162 5.59762 38.4536ZM11.2575 52.0205L20.4557 42.8223L20.4557 56.6191L15.6452 61.4296C14.1956 58.4748 12.7019 55.2638 11.2575 52.0205ZM17.0597 64.2577L20.4557 60.8617L20.4557 70.4817C19.4386 68.7764 18.2875 66.6619 17.0597 64.2577ZM20.2852 1.91173C20.3426 1.91191 20.3995 1.9121 20.4557 1.91227V4.93268L1.9755 23.4129C2.33817 20.1967 3.60706 16.79 5.34279 13.5109C7.69725 9.06299 10.8072 5.04424 13.2539 2.37481C13.5554 2.04583 14.0738 1.84544 14.6898 1.90529C14.7414 1.91031 14.7933 1.91264 14.8451 1.91229C16.6378 1.90005 18.6959 1.90664 20.2852 1.91173ZM23.4557 4.93268V1.91608C24.402 1.91612 25.54 1.91604 26.6449 1.91596C27.5122 1.91589 28.359 1.91583 29.0765 1.91583C29.1251 1.91583 29.1737 1.91347 29.222 1.90876C29.8381 1.84873 30.3559 2.04882 30.6572 2.37749C33.1046 5.04675 36.2154 9.06532 38.5703 13.513C40.3065 16.7921 41.5755 20.1988 41.938 23.4149L23.4557 4.93268ZM23.4557 9.17533L41.845 27.5646C41.8179 27.7168 41.788 27.8681 41.7551 28.0184C41.3914 29.6113 40.5627 32.1583 39.4052 35.3023L23.4557 19.3528L23.4557 9.17533ZM23.4557 23.5955L38.2407 38.3804C36.975 41.6474 35.4747 45.2978 33.8758 48.9997L23.4557 38.5797V23.5955ZM23.4557 42.8223L32.5847 51.9513C31.1442 55.2029 29.658 58.421 28.2183 61.3817L23.4557 56.6191L23.4557 42.8223ZM23.4557 60.8617L26.8125 64.2185C25.6738 66.4705 24.5906 68.4938 23.612 70.1722C23.5595 70.2623 23.5074 70.3512 23.4557 70.4389L23.4557 60.8617Z" fill="#E4692E" stroke="white" stroke-width="3" stroke-linejoin="round"/>
</svg>
