<svg width="44" height="76" viewBox="0 0 44 76" fill="none" xmlns="http://www.w3.org/2000/svg">
<path d="M20.4991 19.3528L4.48364 35.3683C3.31545 32.1574 2.50996 29.5941 2.20923 28.0561C2.2071 28.0452 2.20485 28.0344 2.20248 28.0235C2.16913 27.871 2.13876 27.7175 2.11133 27.5631L20.4991 9.17532L20.4991 19.3528ZM5.64099 38.4536L20.4991 23.5955V38.5797L10.0058 49.073C8.39935 45.3678 6.89791 41.7162 5.64099 38.4536ZM11.3009 52.0205L20.4991 42.8223L20.4991 56.6191L15.6886 61.4296C14.239 58.4748 12.7452 55.2638 11.3009 52.0205ZM17.1031 64.2577L20.499 60.8617L20.499 70.4817C19.4819 68.7764 18.3309 66.6619 17.1031 64.2577ZM20.3285 1.91173C20.386 1.91191 20.4429 1.9121 20.4991 1.91227V4.93268L2.01886 23.4129C2.38154 20.1967 3.65042 16.79 5.38616 13.5109C7.74061 9.06299 10.8505 5.04424 13.2973 2.37481C13.5988 2.04583 14.1171 1.84544 14.7332 1.90529C14.7848 1.91031 14.8366 1.91264 14.8885 1.91229C16.6812 1.90005 18.7392 1.90664 20.3285 1.91173ZM23.4991 4.93268V1.91608C24.4453 1.91612 25.5834 1.91604 26.6883 1.91596C27.5556 1.91589 28.4024 1.91583 29.1199 1.91583C29.1685 1.91583 29.217 1.91347 29.2654 1.90876C29.8814 1.84873 30.3992 2.04882 30.7006 2.37749C33.148 5.04675 36.2587 9.06532 38.6137 13.513C40.3498 16.7921 41.6189 20.1988 41.9813 23.4149L23.4991 4.93268ZM23.4991 9.17533L41.8883 27.5646C41.8612 27.7168 41.8313 27.8681 41.7985 28.0184C41.4348 29.6113 40.6061 32.1583 39.4485 35.3023L23.4991 19.3528L23.4991 9.17533ZM23.4991 23.5955L38.284 38.3804C37.0184 41.6474 35.518 45.2978 33.9191 48.9997L23.4991 38.5797V23.5955ZM23.4991 42.8223L32.628 51.9513C31.1876 55.2029 29.7014 58.421 28.2617 61.3817L23.4991 56.6191L23.4991 42.8223ZM23.499 60.8617L26.8559 64.2185C25.7172 66.4705 24.634 68.4938 23.6554 70.1722C23.6028 70.2623 23.5507 70.3512 23.499 70.4389L23.499 60.8617Z" fill="#E4692E" stroke="white" stroke-width="3" stroke-linejoin="round"/>
</svg>
