<svg width="44" height="76" viewBox="0 0 44 76" fill="none" xmlns="http://www.w3.org/2000/svg">
<path d="M20.4124 19.3528L4.39691 35.3683C3.22872 32.1574 2.42323 29.5941 2.1225 28.0561C2.12037 28.0452 2.11812 28.0344 2.11575 28.0235C2.0824 27.871 2.05203 27.7175 2.0246 27.5631L20.4124 9.17532L20.4124 19.3528ZM5.55426 38.4536L20.4124 23.5955V38.5797L9.91902 49.073C8.31262 45.3678 6.81118 41.7162 5.55426 38.4536ZM11.2142 52.0205L20.4123 42.8223L20.4123 56.6191L15.6018 61.4296C14.1523 58.4748 12.6585 55.2638 11.2142 52.0205ZM17.0163 64.2577L20.4123 60.8617L20.4123 70.4817C19.3952 68.7764 18.2441 66.6619 17.0163 64.2577ZM20.2418 1.91173C20.2993 1.91191 20.3561 1.9121 20.4123 1.91227V4.93268L1.93213 23.4129C2.29481 20.1967 3.56369 16.79 5.29943 13.5109C7.65388 9.06299 10.7638 5.04424 13.2105 2.37481C13.5121 2.04583 14.0304 1.84544 14.6464 1.90529C14.6981 1.91031 14.7499 1.91264 14.8017 1.91229C16.5944 1.90005 18.6525 1.90664 20.2418 1.91173ZM23.4123 4.93268V1.91608C24.3586 1.91612 25.4967 1.91604 26.6016 1.91596C27.4688 1.91589 28.3156 1.91583 29.0332 1.91583C29.0817 1.91583 29.1303 1.91347 29.1786 1.90876C29.7947 1.84873 30.3125 2.04882 30.6138 2.37749C33.0612 5.04675 36.172 9.06532 38.5269 13.513C40.2631 16.7921 41.5322 20.1988 41.8946 23.4149L23.4123 4.93268ZM23.4124 9.17533L41.8016 27.5646C41.7745 27.7168 41.7446 27.8681 41.7118 28.0184C41.3481 29.6113 40.5194 32.1583 39.3618 35.3023L23.4124 19.3528L23.4124 9.17533ZM23.4124 23.5955L38.1973 38.3804C36.9316 41.6474 35.4313 45.2978 33.8324 48.9997L23.4124 38.5797V23.5955ZM23.4123 42.8223L32.5413 51.9513C31.1009 55.2029 29.6146 58.421 28.1749 61.3817L23.4123 56.6191L23.4123 42.8223ZM23.4123 60.8617L26.7692 64.2185C25.6304 66.4705 24.5472 68.4938 23.5686 70.1722C23.5161 70.2623 23.464 70.3512 23.4123 70.4389L23.4123 60.8617Z" fill="#E4692E" stroke="white" stroke-width="3" stroke-linejoin="round"/>
</svg>
