<svg width="44" height="76" viewBox="0 0 44 76" fill="none" xmlns="http://www.w3.org/2000/svg">
<path d="M20.5858 19.3528L4.57037 35.3683C3.40218 32.1574 2.59669 29.5941 2.29596 28.0561C2.29383 28.0452 2.29158 28.0344 2.28921 28.0235C2.25586 27.871 2.22549 27.7175 2.19806 27.5631L20.5858 9.17532L20.5858 19.3528ZM5.72772 38.4536L20.5858 23.5955V38.5797L10.0925 49.073C8.48608 45.3678 6.98465 41.7162 5.72772 38.4536ZM11.3876 52.0205L20.5858 42.8223L20.5858 56.6191L15.7753 61.4296C14.3257 58.4748 12.832 55.2638 11.3876 52.0205ZM17.1898 64.2577L20.5858 60.8617L20.5858 70.4817C19.5686 68.7764 18.4176 66.6619 17.1898 64.2577ZM20.4153 1.91173C20.4727 1.91191 20.5296 1.9121 20.5858 1.91227V4.93268L2.1056 23.4129C2.46827 20.1967 3.73715 16.79 5.47289 13.5109C7.82734 9.06299 10.9373 5.04424 13.384 2.37481C13.6855 2.04583 14.2039 1.84544 14.8199 1.90529C14.8715 1.91031 14.9234 1.91264 14.9752 1.91229C16.7679 1.90005 18.8259 1.90664 20.4153 1.91173ZM23.5858 4.93268V1.91608C24.532 1.91612 25.6701 1.91604 26.775 1.91596C27.6423 1.91589 28.4891 1.91583 29.2066 1.91583C29.2552 1.91583 29.3038 1.91347 29.3521 1.90876C29.9682 1.84873 30.486 2.04882 30.7873 2.37749C33.2347 5.04675 36.3455 9.06532 38.7004 13.513C40.4366 16.7921 41.7056 20.1988 42.0681 23.4149L23.5858 4.93268ZM23.5858 9.17533L41.975 27.5646C41.948 27.7168 41.9181 27.8681 41.8852 28.0184C41.5215 29.6113 40.6928 32.1583 39.5353 35.3023L23.5858 19.3528L23.5858 9.17533ZM23.5858 23.5955L38.3708 38.3804C37.1051 41.6474 35.6048 45.2978 34.0059 48.9997L23.5858 38.5797V23.5955ZM23.5858 42.8223L32.7148 51.9513C31.2743 55.2029 29.7881 58.421 28.3484 61.3817L23.5858 56.6191L23.5858 42.8223ZM23.5858 60.8617L26.9426 64.2185C25.8039 66.4705 24.7207 68.4938 23.7421 70.1722C23.6896 70.2623 23.6375 70.3512 23.5858 70.4389L23.5858 60.8617Z" fill="#E4692E" stroke="white" stroke-width="3" stroke-linejoin="round"/>
</svg>
