<svg width="44" height="76" viewBox="0 0 44 76" fill="none" xmlns="http://www.w3.org/2000/svg">
<path fill-rule="evenodd" clip-rule="evenodd" d="M20.4991 19.3578L5.65543 34.2015C4.62722 31.3299 3.94038 29.098 3.68135 27.7733C3.67709 27.7515 3.67259 27.7298 3.66785 27.7081C3.59497 27.3748 3.53799 27.0341 3.49658 26.6861C3.47855 26.5345 3.46351 26.3818 3.45139 26.228L20.4991 9.18031L20.4991 19.3578ZM20.4991 23.6004L6.80225 37.2973C8.0371 40.5347 9.53371 44.1981 11.1466 47.9371L20.4991 38.5847V23.6004ZM20.4991 42.8273L12.4374 50.889C13.8732 54.1288 15.3622 57.345 16.8099 60.3132L20.4991 56.624L20.4991 42.8273ZM20.499 60.8667L18.2185 63.1473C19.0238 64.735 19.7889 66.1839 20.499 67.4681L20.499 60.8667ZM20.1674 72.7991C18.7539 70.6133 17.0623 67.5261 15.2735 63.9709C15.0399 63.5066 14.8046 63.0343 14.5681 62.555C12.8981 59.1708 11.1656 55.4367 9.51245 51.6926C9.29539 51.201 9.0797 50.7092 8.86569 50.218C7.01161 45.9626 5.28426 41.7518 3.89243 38.0858C3.69267 37.5596 3.49981 37.0447 3.31449 36.5424C2.01214 33.0129 1.0816 30.1107 0.737112 28.349C0.642763 27.9175 0.570015 27.4811 0.517591 27.0405C0.438564 26.3763 0.405726 25.7025 0.414711 25.022C0.529995 16.2913 7.53016 6.45184 12.1915 1.36627C12.8676 0.628652 13.8823 0.320548 14.8782 0.417312C16.6788 0.405022 18.7531 0.411659 20.3444 0.416751C20.9934 0.418828 21.5621 0.420648 21.9991 0.420821C22.3862 0.420974 22.9048 0.421048 23.4991 0.421072C24.445 0.421112 25.5828 0.421028 26.6876 0.420947C27.555 0.420883 28.402 0.420821 29.1199 0.420821C30.1157 0.323796 31.13 0.631338 31.8062 1.36877C36.4688 6.45405 43.471 16.2933 43.5853 25.0239C43.5942 25.7043 43.5613 26.3779 43.4822 27.0421C43.4297 27.4826 43.3569 27.919 43.2625 28.3504C42.8527 30.1482 41.9053 33.0149 40.6157 36.4745C40.4289 36.9758 40.2348 37.4895 40.0342 38.0142C38.6307 41.6849 36.9047 45.8938 35.0598 50.1454C34.8464 50.6373 34.6314 51.1297 34.4151 51.6219C32.7655 55.3757 31.0417 59.118 29.3835 62.5085C29.1483 62.9893 28.9145 63.463 28.6823 63.9286C26.9005 67.5032 25.2198 70.6038 23.8205 72.7913C23.7116 72.9615 23.6044 73.1262 23.499 73.2851C22.9456 74.1198 22.4415 74.7963 21.999 75.2848C21.5544 74.795 21.0505 74.1249 20.499 73.3028C20.3903 73.1407 20.2797 72.9727 20.1674 72.7991ZM23.499 67.3983C24.2081 66.1002 24.96 64.6578 25.739 63.1067L23.499 60.8667L23.499 67.3983ZM23.4991 56.6241L27.139 60.264C28.577 57.2899 30.0585 54.0668 31.4907 50.8189L23.4991 42.8273L23.4991 56.6241ZM23.4991 38.5847L32.7777 47.8632C34.3828 44.1293 35.8787 40.4678 37.1238 37.2252L23.4991 23.6004V38.5847ZM23.4991 19.3578L38.279 34.1377C39.3001 31.3258 40.0151 29.0924 40.3345 27.6966C40.4062 27.3674 40.4623 27.0308 40.5032 26.6872C40.5213 26.5358 40.5363 26.3833 40.5484 26.2297L23.4991 9.18032L23.4991 19.3578ZM23.4991 4.93767L40.1483 21.5869C39.6117 19.214 38.609 16.7147 37.288 14.2199C35.0135 9.9241 31.9975 6.02078 29.6195 3.42298C29.6194 3.42293 29.6192 3.42288 29.6191 3.42283C29.5852 3.41134 29.5126 3.39677 29.4108 3.40668C29.3141 3.4161 29.217 3.42082 29.1199 3.42082C28.4027 3.42082 27.5562 3.42088 26.689 3.42095C25.584 3.42103 24.4456 3.42111 23.4991 3.42107V4.93767ZM20.4991 3.41728C20.4377 3.41709 20.3756 3.41689 20.3127 3.41669C18.7254 3.4116 16.6835 3.40506 14.8987 3.41724C14.795 3.41795 14.6913 3.41328 14.5881 3.40325C14.4866 3.39339 14.4138 3.40795 14.3796 3.41956C14.3793 3.41966 14.379 3.41976 14.3787 3.41986C12.0013 6.01784 8.98602 9.92146 6.71188 14.2177C5.39129 16.7124 4.38872 19.2117 3.85203 21.5847L20.4991 4.93767V3.41728Z" fill="white"/>
</svg>
