<svg width="44" height="76" viewBox="0 0 44 76" fill="none" xmlns="http://www.w3.org/2000/svg">
<path fill-rule="evenodd" clip-rule="evenodd" d="M20.4557 19.3578L5.61207 34.2015C4.58385 31.3299 3.89702 29.098 3.63799 27.7733C3.63373 27.7515 3.62923 27.7298 3.62449 27.7081C3.5516 27.3748 3.49462 27.0341 3.45322 26.6861C3.43519 26.5345 3.42014 26.3818 3.40802 26.228L20.4557 9.18031L20.4557 19.3578ZM20.4557 23.6004L6.75889 37.2973C7.99374 40.5347 9.49035 44.1981 11.1033 47.9371L20.4557 38.5847V23.6004ZM20.4557 42.8273L12.394 50.889C13.8298 54.1288 15.3188 57.345 16.7665 60.3132L20.4557 56.624L20.4557 42.8273ZM20.4557 60.8667L18.1751 63.1473C18.9805 64.735 19.7456 66.1839 20.4557 67.4681L20.4557 60.8667ZM20.1241 72.7991C18.7105 70.6133 17.0189 67.5261 15.2301 63.9709C14.9965 63.5066 14.7613 63.0343 14.5247 62.555C12.8548 59.1708 11.1223 55.4367 9.46909 51.6926C9.25203 51.201 9.03633 50.7092 8.82233 50.218C6.96824 45.9626 5.2409 41.7518 3.84907 38.0858C3.6493 37.5596 3.45645 37.0447 3.27112 36.5424C1.96877 33.0129 1.03824 30.1107 0.693747 28.349C0.599397 27.9175 0.526649 27.4811 0.474226 27.0405C0.395198 26.3763 0.362361 25.7025 0.371346 25.022C0.48663 16.2913 7.4868 6.45184 12.1481 1.36627C12.8242 0.628652 13.839 0.320548 14.8349 0.417312C16.6355 0.405022 18.7097 0.411659 20.301 0.416751C20.95 0.418828 21.5187 0.420648 21.9557 0.420821C22.3428 0.420974 22.8614 0.421048 23.4557 0.421072C24.4016 0.421112 25.5394 0.421028 26.6442 0.420947C27.5116 0.420883 28.3587 0.420821 29.0765 0.420821C30.0723 0.323796 31.0867 0.631338 31.7628 1.36877C36.4254 6.45405 43.4276 16.2933 43.5419 25.0239C43.5508 25.7043 43.5179 26.3779 43.4388 27.0421C43.3863 27.4826 43.3135 27.919 43.2191 28.3504C42.8093 30.1482 41.862 33.0149 40.5724 36.4745C40.3855 36.9758 40.1915 37.4895 39.9908 38.0142C38.5873 41.6849 36.8614 45.8938 35.0165 50.1454C34.803 50.6373 34.588 51.1297 34.3717 51.6219C32.7222 55.3757 30.9984 59.118 29.3401 62.5085C29.1049 62.9893 28.8711 63.463 28.639 63.9286C26.8572 67.5032 25.1765 70.6038 23.7771 72.7913C23.6682 72.9615 23.561 73.1262 23.4557 73.2851C22.9022 74.1198 22.3982 74.7963 21.9557 75.2848C21.511 74.795 21.0071 74.1249 20.4557 73.3028C20.3469 73.1407 20.2364 72.9727 20.1241 72.7991ZM23.4557 67.3983C24.1648 66.1002 24.9166 64.6578 25.6957 63.1067L23.4557 60.8667L23.4557 67.3983ZM23.4557 56.6241L27.0956 60.264C28.5337 57.2899 30.0152 54.0668 31.4474 50.8189L23.4557 42.8273L23.4557 56.6241ZM23.4557 38.5847L32.7343 47.8632C34.3394 44.1293 35.8354 40.4678 37.0805 37.2252L23.4557 23.6004V38.5847ZM23.4557 19.3578L38.2357 34.1377C39.2567 31.3258 39.9718 29.0924 40.2911 27.6966C40.3628 27.3674 40.4189 27.0308 40.4599 26.6872C40.4779 26.5358 40.493 26.3833 40.5051 26.2297L23.4557 9.18032L23.4557 19.3578ZM23.4557 4.93767L40.1049 21.5869C39.5683 19.214 38.5656 16.7147 37.2447 14.2199C34.9701 9.9241 31.9542 6.02078 29.5761 3.42298C29.576 3.42293 29.5759 3.42288 29.5757 3.42283C29.5419 3.41134 29.4692 3.39677 29.3675 3.40668C29.2708 3.4161 29.1737 3.42082 29.0765 3.42082C28.3594 3.42082 27.5128 3.42088 26.6457 3.42095C25.5406 3.42103 24.4023 3.42111 23.4557 3.42107V4.93767ZM20.4557 3.41728C20.3943 3.41709 20.3322 3.41689 20.2694 3.41669C18.6821 3.4116 16.6402 3.40506 14.8553 3.41724C14.7516 3.41795 14.648 3.41328 14.5447 3.40325C14.4432 3.39339 14.3705 3.40795 14.3363 3.41956C14.336 3.41966 14.3357 3.41976 14.3354 3.41986C11.9579 6.01784 8.94266 9.92146 6.66851 14.2177C5.34792 16.7124 4.34535 19.2117 3.80866 21.5847L20.4557 4.93767V3.41728Z" fill="white"/>
</svg>
