<svg width="44" height="76" viewBox="0 0 44 76" fill="none" xmlns="http://www.w3.org/2000/svg">
<path d="M20.5424 19.3528L4.527 35.3683C3.35881 32.1574 2.55333 29.5941 2.2526 28.0561C2.25047 28.0452 2.24822 28.0344 2.24585 28.0235C2.2125 27.871 2.18213 27.7175 2.15469 27.5631L20.5424 9.17532L20.5424 19.3528ZM5.68436 38.4536L20.5424 23.5955V38.5797L10.0491 49.073C8.44271 45.3678 6.94128 41.7162 5.68436 38.4536ZM11.3443 52.0205L20.5424 42.8223L20.5424 56.6191L15.7319 61.4296C14.2824 58.4748 12.7886 55.2638 11.3443 52.0205ZM17.1464 64.2577L20.5424 60.8617L20.5424 70.4817C19.5253 68.7764 18.3742 66.6619 17.1464 64.2577ZM20.3719 1.91173C20.4294 1.91191 20.4862 1.9121 20.5424 1.91227V4.93268L2.06223 23.4129C2.42491 20.1967 3.69379 16.79 5.42952 13.5109C7.78398 9.06299 10.8939 5.04424 13.3406 2.37481C13.6422 2.04583 14.1605 1.84544 14.7765 1.90529C14.8282 1.91031 14.88 1.91264 14.9318 1.91229C16.7245 1.90005 18.7826 1.90664 20.3719 1.91173ZM23.5424 4.93268V1.91608C24.4887 1.91612 25.6268 1.91604 26.7317 1.91596C27.5989 1.91589 28.4457 1.91583 29.1633 1.91583C29.2118 1.91583 29.2604 1.91347 29.3087 1.90876C29.9248 1.84873 30.4426 2.04882 30.7439 2.37749C33.1913 5.04675 36.3021 9.06532 38.657 13.513C40.3932 16.7921 41.6623 20.1988 42.0247 23.4149L23.5424 4.93268ZM23.5424 9.17533L41.9317 27.5646C41.9046 27.7168 41.8747 27.8681 41.8419 28.0184C41.4782 29.6113 40.6495 32.1583 39.4919 35.3023L23.5424 19.3528L23.5424 9.17533ZM23.5424 23.5955L38.3274 38.3804C37.0617 41.6474 35.5614 45.2978 33.9625 48.9997L23.5424 38.5797V23.5955ZM23.5424 42.8223L32.6714 51.9513C31.231 55.2029 29.7447 58.421 28.305 61.3817L23.5424 56.6191L23.5424 42.8223ZM23.5424 60.8617L26.8993 64.2185C25.7605 66.4705 24.6773 68.4938 23.6987 70.1722C23.6462 70.2623 23.5941 70.3512 23.5424 70.4389L23.5424 60.8617Z" fill="#E4692E" stroke="white" stroke-width="3" stroke-linejoin="round"/>
</svg>
