<svg width="44" height="76" viewBox="0 0 44 76" fill="none" xmlns="http://www.w3.org/2000/svg">
<path fill-rule="evenodd" clip-rule="evenodd" d="M20.5424 19.3578L5.6988 34.2015C4.67058 31.3299 3.98375 29.098 3.72472 27.7733C3.72046 27.7515 3.71596 27.7298 3.71122 27.7081C3.63833 27.3748 3.58135 27.0341 3.53995 26.6861C3.52192 26.5345 3.50687 26.3818 3.49476 26.228L20.5424 9.18031L20.5424 19.3578ZM20.5424 23.6004L6.84562 37.2973C8.08047 40.5347 9.57708 44.1981 11.19 47.9371L20.5424 38.5847V23.6004ZM20.5424 42.8273L12.4808 50.889C13.9166 54.1288 15.4055 57.345 16.8533 60.3132L20.5424 56.624L20.5424 42.8273ZM20.5424 60.8667L18.2618 63.1473C19.0672 64.735 19.8323 66.1839 20.5424 67.4681L20.5424 60.8667ZM20.2108 72.7991C18.7972 70.6133 17.1056 67.5261 15.3169 63.9709C15.0833 63.5066 14.848 63.0343 14.6115 62.555C12.9415 59.1708 11.209 55.4367 9.55582 51.6926C9.33876 51.201 9.12307 50.7092 8.90906 50.218C7.05497 45.9626 5.32763 41.7518 3.9358 38.0858C3.73603 37.5596 3.54318 37.0447 3.35785 36.5424C2.0555 33.0129 1.12497 30.1107 0.780478 28.349C0.686128 27.9175 0.61338 27.4811 0.560957 27.0405C0.481929 26.3763 0.449092 25.7025 0.458077 25.022C0.573361 16.2913 7.57353 6.45184 12.2348 1.36627C12.9109 0.628652 13.9257 0.320548 14.9216 0.417312C16.7222 0.405022 18.7965 0.411659 20.3877 0.416751C21.0368 0.418828 21.6055 0.420648 22.0424 0.420821C22.4295 0.420974 22.9481 0.421048 23.5424 0.421072C24.4884 0.421112 25.6262 0.421028 26.7309 0.420947C27.5983 0.420883 28.4454 0.420821 29.1633 0.420821C30.159 0.323796 31.1734 0.631338 31.8496 1.36877C36.5122 6.45405 43.5143 16.2933 43.6287 25.0239C43.6376 25.7043 43.6047 26.3779 43.5255 27.0421C43.4731 27.4826 43.4002 27.919 43.3058 28.3504C42.8961 30.1482 41.9487 33.0149 40.6591 36.4745C40.4722 36.9758 40.2782 37.4895 40.0776 38.0142C38.6741 41.6849 36.9481 45.8938 35.1032 50.1454C34.8898 50.6373 34.6747 51.1297 34.4584 51.6219C32.8089 55.3757 31.0851 59.118 29.4268 62.5085C29.1917 62.9893 28.9578 63.463 28.7257 63.9286C26.9439 67.5032 25.2632 70.6038 23.8638 72.7913C23.7549 72.9615 23.6478 73.1262 23.5424 73.2851C22.989 74.1198 22.4849 74.7963 22.0424 75.2848C21.5978 74.795 21.0938 74.1249 20.5424 73.3028C20.4337 73.1407 20.3231 72.9727 20.2108 72.7991ZM23.5424 67.3983C24.2515 66.1002 25.0033 64.6578 25.7824 63.1067L23.5424 60.8667L23.5424 67.3983ZM23.5424 56.6241L27.1824 60.264C28.6204 57.2899 30.1019 54.0668 31.5341 50.8189L23.5424 42.8273L23.5424 56.6241ZM23.5424 38.5847L32.821 47.8632C34.4262 44.1293 35.9221 40.4678 37.1672 37.2252L23.5424 23.6004V38.5847ZM23.5424 19.3578L38.3224 34.1377C39.3435 31.3258 40.0585 29.0924 40.3779 27.6966C40.4495 27.3674 40.5057 27.0308 40.5466 26.6872C40.5646 26.5358 40.5797 26.3833 40.5918 26.2297L23.5424 9.18032L23.5424 19.3578ZM23.5424 4.93767L40.1916 21.5869C39.655 19.214 38.6523 16.7147 37.3314 14.2199C35.0569 9.9241 32.0409 6.02078 29.6629 3.42298C29.6627 3.42293 29.6626 3.42288 29.6624 3.42283C29.6286 3.41134 29.5559 3.39677 29.4542 3.40668C29.3575 3.4161 29.2604 3.42082 29.1633 3.42082C28.4461 3.42082 27.5995 3.42088 26.7324 3.42095C25.6274 3.42103 24.489 3.42111 23.5424 3.42107V4.93767ZM20.5424 3.41728C20.4811 3.41709 20.4189 3.41689 20.3561 3.41669C18.7688 3.4116 16.7269 3.40506 14.9421 3.41724C14.8384 3.41795 14.7347 3.41328 14.6315 3.40325C14.53 3.39339 14.4572 3.40795 14.423 3.41956C14.4227 3.41966 14.4224 3.41976 14.4221 3.41986C12.0447 6.01784 9.02939 9.92146 6.75524 14.2177C5.43465 16.7124 4.43208 19.2117 3.89539 21.5847L20.5424 4.93767V3.41728Z" fill="white"/>
</svg>
