<svg width="125" height="125" viewBox="0 0 125 125" fill="none" xmlns="http://www.w3.org/2000/svg">
<path d="M44.2014 62.4565C44.2008 61.3199 44.307 60.1741 44.5255 59.0331C41.4275 55.9688 33.7148 50.1722 27.649 51.4998C26.0005 51.8755 23.1649 52.8181 19.9618 54.0292C13.2272 56.5755 4.86784 60.3085 2.5 62.454C4.91007 64.6425 13.245 68.4128 19.9342 70.9372C23.1846 72.1639 26.0464 73.0964 27.6512 73.4103C33.7174 74.7376 41.4298 68.9433 44.5276 65.8803C44.3127 64.7584 44.2019 63.6122 44.2014 62.4565Z" fill="#E4692E"/>
<path d="M75.4315 75.4533C76.2353 74.65 76.9702 73.7647 77.6222 72.8033C81.9789 72.828 91.53 74.1847 94.8807 79.4141C95.7821 80.8478 97.1233 83.5256 98.5344 86.6533C101.495 93.2158 104.763 101.759 104.921 104.949C101.676 104.792 93.146 101.575 86.6365 98.6337C83.4536 97.1952 80.7538 95.8226 79.3914 94.9056C74.1638 91.5532 72.8061 82.0007 72.7807 77.6435C73.7257 77.0023 74.6142 76.2702 75.4315 75.4533Z" fill="#E4692E"/>
<path d="M80.7986 62.4915C80.7992 63.6281 80.693 64.7739 80.4745 65.915C83.5725 68.9792 91.2852 74.7758 97.351 73.4482C98.9809 73.0768 101.771 72.1511 104.93 70.9597C111.683 68.4126 120.119 64.651 122.5 62.4941C120.091 60.3068 111.765 56.5397 105.078 54.0153C101.822 52.7864 98.9555 51.852 97.3488 51.5377C91.2826 50.2105 83.5702 56.0047 80.4724 59.0678C80.6873 60.1897 80.7981 61.3358 80.7986 62.4915Z" fill="#E4692E"/>
<path d="M49.5848 49.5433C48.7811 50.3466 48.0462 51.2319 47.3942 52.1934C43.0375 52.1687 33.4864 50.812 30.1357 45.5826C29.2424 44.1618 27.9172 41.5193 26.5202 38.4279C23.5496 31.8545 20.2541 23.2512 20.0957 20.0477C23.3504 20.2051 31.9238 23.4415 38.4409 26.3906C41.5973 27.819 44.2713 29.1799 45.625 30.091C50.8526 33.4435 52.2103 42.996 52.2357 47.3532C51.2907 47.9944 50.4021 48.7265 49.5848 49.5433Z" fill="#E4692E"/>
<path d="M49.5239 75.3974C48.72 74.5939 47.9851 73.7086 47.333 72.7471C42.9763 72.7712 33.4254 74.1267 30.0752 79.3557C29.1783 80.7826 27.8459 83.4415 26.4426 86.5499C23.4775 93.1179 20.1961 101.692 20.0384 104.889C23.306 104.732 31.9347 101.471 38.4608 98.5134C41.583 97.0983 44.224 95.7526 45.5664 94.8492C50.7937 91.4973 52.1502 81.945 52.175 77.5879C51.2299 76.9465 50.3413 76.2143 49.5239 75.3974Z" fill="#E4692E"/>
<path d="M62.5696 80.7894C63.706 80.7899 64.8515 80.6838 65.9923 80.4651C69.0559 83.5639 74.8512 91.2782 73.5239 97.3454C73.1498 98.9877 72.2134 101.808 71.0096 104.996C68.4636 111.738 64.7212 120.127 62.5721 122.5C60.3828 120.088 56.61 111.742 54.0861 105.05C52.862 101.804 51.9317 98.9463 51.6182 97.3432C50.2923 91.2804 56.0751 83.5737 59.1394 80.4704C59.1418 80.4679 59.1442 80.4655 59.1466 80.463C59.6558 80.5606 60.17 80.6368 60.6879 80.6909C61.3107 80.7559 61.9387 80.7891 62.5696 80.7894Z" fill="#E4692E"/>
<path d="M75.4223 49.5596C76.2261 50.363 76.9611 51.2483 77.6132 52.2099C81.9699 52.1857 91.5208 50.8302 94.8709 45.6012C95.7649 44.1791 97.0914 41.5332 98.4895 38.4383C101.458 31.8663 104.75 23.2696 104.908 20.0675C101.664 20.224 93.1384 23.4379 86.6301 26.3781C83.4448 27.817 80.7428 29.1904 79.3798 30.1078C74.1525 33.4596 72.796 43.0119 72.7711 47.3691C73.7162 48.0104 74.6049 48.7426 75.4223 49.5596Z" fill="#E4692E"/>
<path d="M62.5377 44.2106C61.6893 44.2102 60.8358 44.2693 59.983 44.3902C59.6935 44.4313 59.4041 44.4795 59.115 44.5349C59.1141 44.5339 59.1131 44.5329 59.1122 44.5319C56.0478 41.4312 50.2566 33.7199 51.5834 27.6546C51.9581 26.01 52.8965 23.1844 54.1027 19.991C56.6487 13.2505 60.3875 4.87133 62.5352 2.5C64.7257 4.91332 68.5011 13.2661 71.025 19.9607C72.2472 23.2025 73.1759 26.0554 73.4891 27.6568C74.816 33.7244 69.0231 41.4384 65.9607 44.537C64.8391 44.322 63.6931 44.2111 62.5377 44.2106Z" fill="#E4692E"/>
<path d="M44.2014 62.4565C44.2008 61.3199 44.307 60.1741 44.5255 59.0331C41.4275 55.9688 33.7148 50.1722 27.649 51.4998C26.0005 51.8755 23.1649 52.8181 19.9618 54.0292C14.7487 49.1372 8.49533 42.4684 7.10653 39.5254C10.123 38.4469 19.3151 38.1994 26.5202 38.4279C27.9172 41.5193 29.2424 44.1618 30.1357 45.5826C33.4864 50.812 43.0375 52.1687 47.3942 52.1934C48.0462 51.2319 48.7811 50.3466 49.5848 49.5433C50.4021 48.7265 51.2907 47.9944 52.2357 47.3532C52.2103 42.996 50.8526 33.4435 45.625 30.091C44.2713 29.1799 41.5973 27.819 38.4409 26.3906C38.2176 19.1984 38.4675 10.0716 39.5411 7.06768C42.4957 8.46257 49.2064 14.7638 54.1027 19.991C52.8965 23.1844 51.9581 26.01 51.5834 27.6546C50.2566 33.7199 56.0478 41.4312 59.1122 44.5319C59.0043 44.5522 58.8965 44.5734 58.789 44.5956C57.6705 44.8262 56.5695 45.1625 55.5018 45.6043C54.4518 46.0387 53.4342 46.5753 52.4639 47.2139C51.4422 47.8865 50.473 48.6723 49.5742 49.5712C46.0056 53.1407 44.2214 57.8193 44.2217 62.4979C44.222 67.1766 46.0067 71.8553 49.5758 75.4252C50.792 76.6416 52.1368 77.6508 53.5665 78.4528C55.3232 79.4381 57.2079 80.1107 59.1394 80.4704C56.0751 83.5737 50.2923 91.2804 51.6182 97.3432C51.9317 98.9463 52.862 101.804 54.0861 105.05C49.1934 110.269 42.5078 116.543 39.5603 117.935C38.4815 114.917 38.233 105.72 38.4608 98.5134C41.583 97.0983 44.224 95.7526 45.5664 94.8492C50.7937 91.4973 52.1502 81.945 52.175 77.5879C51.2299 76.9465 50.3413 76.2143 49.5239 75.3974C48.72 74.5939 47.9851 73.7086 47.333 72.7471C42.9763 72.7712 33.4254 74.1267 30.0752 79.3557C29.1783 80.7826 27.8459 83.4415 26.4426 86.5499C19.2439 86.7753 10.0815 86.5256 7.07074 85.4488C8.46005 82.5041 14.7197 75.8294 19.9342 70.9372C23.1846 72.1639 26.0464 73.0964 27.6512 73.4103C33.7174 74.7376 41.4298 68.9433 44.5276 65.8803C44.3127 64.7584 44.2019 63.6122 44.2014 62.4565Z" fill="#E4692E"/>
<path d="M77.6222 72.8033C76.9702 73.7647 76.2353 74.65 75.4315 75.4533C74.6142 76.2702 73.7257 77.0023 72.7807 77.6435C72.8061 82.0007 74.1638 91.5532 79.3914 94.9056C80.7538 95.8226 83.4536 97.1952 86.6365 98.6337C86.8604 105.768 86.5664 114.853 85.4719 117.905C82.5845 116.538 75.9392 110.244 71.0096 104.996C72.2134 101.808 73.1498 98.9877 73.5239 97.3454C74.8512 91.2782 69.0559 83.5639 65.9923 80.4651C64.8515 80.6838 63.706 80.7899 62.5696 80.7894C61.9387 80.7891 61.3107 80.7559 60.6879 80.6909C61.2904 80.7506 61.8953 80.7805 62.5002 80.7805C67.1779 80.7808 71.8554 78.9963 75.424 75.4268C77.4715 73.3789 78.9315 70.9659 79.8042 68.3973C80.4526 66.4889 80.7767 64.4945 80.7766 62.5001C80.7763 57.8215 78.9916 53.1427 75.4225 49.5728C74.2153 48.3654 72.8813 47.3621 71.4634 46.563C68.6891 44.9995 65.5936 44.2177 62.498 44.2175C61.6575 44.2175 60.817 44.275 59.983 44.3902C60.8358 44.2693 61.6893 44.2102 62.5377 44.2106C63.6931 44.2111 64.8391 44.322 65.9607 44.537C69.0231 41.4384 74.816 33.7244 73.4891 27.6568C73.1759 26.0554 72.2472 23.2025 71.025 19.9607C75.9517 14.7175 82.581 8.44106 85.464 7.07647C86.5605 10.1332 86.8548 19.239 86.6301 26.3781C83.4448 27.817 80.7428 29.1904 79.3798 30.1078C74.1525 33.4596 72.796 43.0119 72.7711 47.3691C73.7162 48.0104 74.6049 48.7426 75.4223 49.5596C76.2261 50.363 76.9611 51.2483 77.6132 52.2099C81.9699 52.1857 91.5208 50.8302 94.8709 45.6012C95.7649 44.1791 97.0914 41.5332 98.4895 38.4383C105.695 38.2106 114.888 38.4591 117.904 39.5381C116.518 42.4759 110.285 49.1262 105.078 54.0153C101.822 52.7864 98.9555 51.852 97.3488 51.5377C91.2826 50.2105 83.5702 56.0047 80.4724 59.0678C80.6873 60.1897 80.7981 61.3358 80.7986 62.4915C80.7992 63.6281 80.693 64.7739 80.4745 65.915C83.5725 68.9792 91.2852 74.7758 97.351 73.4482C98.9809 73.0768 101.771 72.1511 104.93 70.9597C110.191 75.8969 116.534 82.5907 117.907 85.4918C114.841 86.592 105.683 86.8835 98.5344 86.6533C97.1233 83.5256 95.7821 80.8478 94.8807 79.4141C91.53 74.1847 81.9789 72.828 77.6222 72.8033Z" fill="#E4692E"/>
<path d="M44.2217 62.4979C44.2214 57.8193 46.0056 53.1407 49.5742 49.5712C50.473 48.6723 51.4422 47.8865 52.4639 47.2139C53.4342 46.5753 54.4518 46.0387 55.5018 45.6043C56.5695 45.1625 57.6705 44.8262 58.789 44.5956C58.8965 44.5734 59.0043 44.5522 59.1122 44.5319L59.115 44.5349C59.4041 44.4795 59.6935 44.4313 59.983 44.3902C60.817 44.275 61.6575 44.2175 62.498 44.2175C65.5936 44.2177 68.6891 44.9995 71.4634 46.563C72.8813 47.3621 74.2153 48.3654 75.4225 49.5728C78.9916 53.1427 80.7763 57.8215 80.7766 62.5001C80.7767 64.4945 80.4526 66.4889 79.8042 68.3973C78.9315 70.9659 77.4715 73.3789 75.424 75.4268C71.8554 78.9963 67.1779 80.7808 62.5002 80.7805C61.8953 80.7805 61.2904 80.7506 60.6879 80.6909C60.17 80.6368 59.6558 80.5606 59.1466 80.463L59.1394 80.4704C57.2079 80.1107 55.3232 79.4381 53.5665 78.4528C52.1368 77.6508 50.792 76.6416 49.5758 75.4252C46.0067 71.8553 44.222 67.1766 44.2217 62.4979Z" fill="#E4692E"/>
<path d="M59.1466 80.463C59.1442 80.4655 59.1418 80.4679 59.1394 80.4704M59.1466 80.463C59.6558 80.5606 60.17 80.6368 60.6879 80.6909M59.1466 80.463L59.1394 80.4704M59.115 44.5349C59.1141 44.5339 59.1131 44.5329 59.1122 44.5319M59.115 44.5349C59.4041 44.4795 59.6935 44.4313 59.983 44.3902M59.115 44.5349L59.1122 44.5319M66.2216 44.6006C67.3592 44.8352 68.4582 45.1756 69.5079 45.6111C70.181 45.8903 70.8337 46.2085 71.4634 46.563M72.5456 47.2228C72.1932 46.9908 71.8323 46.7707 71.4634 46.563M77.7687 52.4589C78.4073 53.4294 78.9439 54.4474 79.3784 55.4976C79.8202 56.5656 80.1565 57.6669 80.3872 58.7856M66.2249 80.3784C67.3625 80.1438 68.4614 79.8035 69.5111 79.3682C70.5784 78.9256 71.5947 78.3847 72.5486 77.7569M47.2065 72.528C46.5679 71.5574 46.0313 70.5395 45.5968 69.4892C45.155 68.4213 44.8187 67.3199 44.5879 66.2012M80.3891 66.2405C80.2374 66.9766 80.0415 67.6965 79.8042 68.3973M77.7682 72.5656C78.3959 71.6115 78.9367 70.595 79.3792 69.5274C79.5329 69.1567 79.6747 68.7799 79.8042 68.3973M47.2439 52.4511C46.6054 53.4216 46.0689 54.4395 45.6346 55.4897C45.1929 56.5576 44.8567 57.6589 44.6261 58.7776M52.4782 77.7899C52.8348 78.0246 53.1979 78.2456 53.5665 78.4528M58.8036 80.409C57.6851 80.1782 56.584 79.8418 55.5163 79.3999C54.8522 79.125 54.201 78.8093 53.5665 78.4528M71.025 19.9607C75.9517 14.7175 82.581 8.44106 85.464 7.07647C86.5605 10.1332 86.8548 19.239 86.6301 26.3781M71.025 19.9607C68.5011 13.2661 64.7257 4.91332 62.5352 2.5C60.3875 4.87133 56.6487 13.2505 54.1027 19.991M71.025 19.9607C72.2472 23.2025 73.1759 26.0554 73.4891 27.6568C74.816 33.7244 69.0231 41.4384 65.9607 44.537C64.8391 44.322 63.6931 44.2111 62.5377 44.2106C61.6893 44.2102 60.8358 44.2693 59.983 44.3902M54.1027 19.991C49.2064 14.7638 42.4957 8.46257 39.5411 7.06768C38.4675 10.0716 38.2176 19.1984 38.4409 26.3906M54.1027 19.991C52.8965 23.1844 51.9581 26.01 51.5834 27.6546C50.2566 33.7199 56.0478 41.4312 59.1122 44.5319M38.4409 26.3906C31.9238 23.4415 23.3504 20.2051 20.0957 20.0477C20.2541 23.2512 23.5496 31.8545 26.5202 38.4279M38.4409 26.3906C41.5973 27.819 44.2713 29.1799 45.625 30.091C50.8526 33.4435 52.2103 42.996 52.2357 47.3532C51.2907 47.9944 50.4021 48.7265 49.5848 49.5433C48.7811 50.3466 48.0462 51.2319 47.3942 52.1934C43.0375 52.1687 33.4864 50.812 30.1357 45.5826C29.2424 44.1618 27.9172 41.5193 26.5202 38.4279M26.5202 38.4279C19.3151 38.1994 10.123 38.4469 7.10653 39.5254C8.49533 42.4684 14.7487 49.1372 19.9618 54.0292M19.9618 54.0292C13.2272 56.5755 4.86784 60.3085 2.5 62.454C4.91007 64.6425 13.245 68.4128 19.9342 70.9372M19.9618 54.0292C23.1649 52.8181 26.0005 51.8755 27.649 51.4998C33.7148 50.1722 41.4275 55.9688 44.5255 59.0331C44.307 60.1741 44.2008 61.3199 44.2014 62.4565C44.2019 63.6122 44.3127 64.7584 44.5276 65.8803C41.4298 68.9433 33.7174 74.7376 27.6512 73.4103C26.0464 73.0964 23.1846 72.1639 19.9342 70.9372M19.9342 70.9372C14.7197 75.8294 8.46005 82.5041 7.07074 85.4488C10.0815 86.5256 19.2439 86.7753 26.4426 86.5499M26.4426 86.5499C23.4775 93.1179 20.1961 101.692 20.0384 104.889C23.306 104.732 31.9347 101.471 38.4608 98.5134M26.4426 86.5499C27.8459 83.4415 29.1783 80.7826 30.0752 79.3557C33.4254 74.1267 42.9763 72.7712 47.333 72.7471C47.9851 73.7086 48.72 74.5939 49.5239 75.3974C50.3413 76.2143 51.2299 76.9465 52.175 77.5879C52.1502 81.945 50.7937 91.4973 45.5664 94.8492C44.224 95.7526 41.583 97.0983 38.4608 98.5134M38.4608 98.5134C38.233 105.72 38.4815 114.917 39.5603 117.935C42.5078 116.543 49.1934 110.269 54.0861 105.05M54.0861 105.05C56.61 111.742 60.3828 120.088 62.5721 122.5C64.7212 120.127 68.4636 111.738 71.0096 104.996M54.0861 105.05C52.862 101.804 51.9317 98.9463 51.6182 97.3432C50.2923 91.2804 56.0751 83.5737 59.1394 80.4704M71.0096 104.996C75.9392 110.244 82.5845 116.538 85.4719 117.905C86.5664 114.853 86.8604 105.768 86.6365 98.6337M71.0096 104.996C72.2134 101.808 73.1498 98.9877 73.5239 97.3454C74.8512 91.2782 69.0559 83.5639 65.9923 80.4651C64.8515 80.6838 63.706 80.7899 62.5696 80.7894C61.9387 80.7891 61.3107 80.7559 60.6879 80.6909M86.6365 98.6337C93.146 101.575 101.676 104.792 104.921 104.949C104.763 101.759 101.495 93.2158 98.5344 86.6533M86.6365 98.6337C83.4536 97.1952 80.7538 95.8226 79.3914 94.9056C74.1638 91.5532 72.8061 82.0007 72.7807 77.6435C73.7257 77.0023 74.6142 76.2702 75.4315 75.4533C76.2353 74.65 76.9702 73.7647 77.6222 72.8033C81.9789 72.828 91.53 74.1847 94.8807 79.4141C95.7821 80.8478 97.1233 83.5256 98.5344 86.6533M98.5344 86.6533C105.683 86.8835 114.841 86.592 117.907 85.4918C116.534 82.5907 110.191 75.8969 104.93 70.9597M104.93 70.9597C111.683 68.4126 120.119 64.651 122.5 62.4941C120.091 60.3068 111.765 56.5397 105.078 54.0153M104.93 70.9597C101.771 72.1511 98.9809 73.0768 97.351 73.4482C91.2852 74.7758 83.5725 68.9792 80.4745 65.915C80.693 64.7739 80.7992 63.6281 80.7986 62.4915C80.7981 61.3358 80.6873 60.1897 80.4724 59.0678C83.5702 56.0047 91.2826 50.2105 97.3488 51.5377C98.9555 51.852 101.822 52.7864 105.078 54.0153M105.078 54.0153C110.285 49.1262 116.518 42.4759 117.904 39.5381C114.888 38.4591 105.695 38.2106 98.4895 38.4383M98.4895 38.4383C101.458 31.8663 104.75 23.2696 104.908 20.0675C101.664 20.224 93.1384 23.4379 86.6301 26.3781M98.4895 38.4383C97.0914 41.5332 95.7649 44.1791 94.8709 45.6012C91.5208 50.8302 81.9699 52.1857 77.6132 52.2099C76.9611 51.2483 76.2261 50.363 75.4223 49.5596C74.6049 48.7426 73.7162 48.0104 72.7711 47.3691C72.796 43.0119 74.1525 33.4596 79.3798 30.1078C80.7428 29.1904 83.4448 27.817 86.6301 26.3781M59.1122 44.5319C59.0043 44.5522 58.8965 44.5734 58.789 44.5956C57.6705 44.8262 56.5695 45.1625 55.5018 45.6043C54.4518 46.0387 53.4342 46.5753 52.4639 47.2139C51.4422 47.8865 50.473 48.6723 49.5742 49.5712C46.0056 53.1407 44.2214 57.8193 44.2217 62.4979C44.222 67.1766 46.0067 71.8553 49.5758 75.4252C50.792 76.6416 52.1368 77.6508 53.5665 78.4528M59.1122 44.5319C59.4015 44.4777 59.6918 44.4305 59.983 44.3902M53.5665 78.4528C55.3232 79.4381 57.2079 80.1107 59.1394 80.4704M59.1394 80.4704C59.6527 80.566 60.1694 80.6395 60.6879 80.6909M60.6879 80.6909C61.2904 80.7506 61.8953 80.7805 62.5002 80.7805C67.1779 80.7808 71.8554 78.9963 75.424 75.4268C77.4715 73.3789 78.9315 70.9659 79.8042 68.3973M79.8042 68.3973C80.4526 66.4889 80.7767 64.4945 80.7766 62.5001C80.7763 57.8215 78.9916 53.1427 75.4225 49.5728C74.2153 48.3654 72.8813 47.3621 71.4634 46.563M71.4634 46.563C68.6891 44.9995 65.5936 44.2177 62.498 44.2175C61.6575 44.2175 60.817 44.275 59.983 44.3902" stroke="white" stroke-width="3"/>
</svg>
