<svg width="454" height="204" viewBox="0 0 454 204" fill="none" xmlns="http://www.w3.org/2000/svg">
<path d="M414.317 177.338C414.317 187.782 405.374 196.549 394.333 196.549H59.4756C48.4346 196.549 39.1886 189.12 39.4841 177.639C39.8392 163.844 22.0931 164.124 20.6445 177.639C19.6897 186.547 22.2292 189.531 1.90414 201.997M414.317 177.338C414.317 176.091 414.678 174.146 415.155 171.774M414.317 177.338C414.317 175.354 414.625 173.495 415.155 171.774M39.4616 26.3561C39.4616 15.9123 48.4346 7.44581 59.4756 7.44581H394.333C405.374 7.44581 414.324 15.9123 414.324 26.3561C413.969 40.1509 431.715 39.8709 433.164 26.3561C434.119 17.4479 431.579 14.4641 451.904 1.99744M39.4616 26.3561C39.4616 32.8747 29.6186 58.4524 44.6285 64.4002M39.4616 26.3561C39.4616 32.8413 36.1731 37.9885 32.572 41.3856M44.6285 64.4002C47.7513 70.668 46.515 68.7889 49.2883 74.1045C51.9432 79.1933 58.3011 77.475 56.4147 69.8749C62.7027 66.5044 59.1119 60.1995 55.3667 61.4818C46.843 64.4002 50.7555 62.9357 44.6285 64.4002ZM32.572 41.3856C30.7126 49.5882 29.0729 69.9749 37.3892 85.8999M32.572 41.3856C26.9078 46.7289 20.0124 49.8453 17.4805 59.3103C16.6469 62.4266 16.2864 66.2312 16.5986 71.0302C17.1382 79.3235 18.265 86.6255 19.6897 92.9834M37.3892 85.8999C40.2627 87.7386 47.1568 90.0124 49.8129 91.416C55.8116 94.586 49.8129 99.6635 44.6285 97.5479C43.6988 99.9462 40.229 104.127 37.3892 101.249C34.5495 98.3712 36.206 89.8172 37.3892 85.8999ZM19.6897 92.9834C21.0341 98.6966 27.562 113.026 40.939 111.3M19.6897 92.9834C21.5701 101.375 23.9691 108.123 26.2202 113.334C28.9527 119.659 31.4672 123.72 32.572 125.712M40.939 111.3C43.1322 112.739 46.6817 117.807 48.6544 121.032C52.3372 127.051 59.9417 122.82 57.1658 116.8C63.5203 114.569 63.0481 107.821 57.1658 108.972C51.2835 110.124 44.0619 111.3 40.939 111.3ZM32.572 125.712C35.868 129.949 38.7009 129.265 43.2865 132.879C45.9704 134.995 45.851 142.496 37.3892 139.438C33.997 144.611 26.9517 141.997 28.5249 138.168C32.572 128.321 32.1494 129.39 32.572 125.712ZM415.155 171.774C417.174 161.75 421.288 144.104 409.15 139.294M415.155 171.774C416.358 167.867 418.707 164.666 421.207 162.309M409.15 139.294C406.027 133.026 407.264 134.905 404.49 129.59C401.835 124.501 395.478 126.219 397.364 133.819C391.076 137.19 394.667 143.495 398.412 142.212C406.936 139.294 403.023 140.758 409.15 139.294ZM421.207 162.309C423.066 154.106 424.706 133.719 416.389 117.794M421.207 162.309C426.871 156.965 433.766 153.849 436.298 144.384C437.132 141.268 437.492 137.463 437.18 132.664C436.641 124.371 435.514 117.069 434.089 110.711M416.389 117.794C413.516 115.956 406.622 113.682 403.966 112.278C397.967 109.108 403.966 104.031 409.15 106.146C410.08 103.748 413.55 99.5669 416.389 102.445C419.229 105.323 417.573 113.877 416.389 117.794ZM434.089 110.711C432.745 104.998 426.217 90.6677 412.84 92.3945M434.089 110.711C432.209 102.319 429.81 95.5715 427.558 90.3606C424.826 84.0355 422.311 79.974 421.207 77.9819M412.84 92.3945C410.646 90.9555 407.097 85.8868 405.124 82.6625C401.441 76.6429 393.837 80.8742 396.613 86.8938C390.258 89.1253 390.731 95.8729 396.613 94.7217C402.495 93.5705 409.717 92.3945 412.84 92.3945ZM421.207 77.9819C417.911 73.7449 415.078 74.4295 410.492 70.8148C407.808 68.6992 407.928 61.1987 416.389 64.2563C419.782 59.083 426.827 61.6977 425.254 65.5258C421.207 75.3736 421.629 74.3045 421.207 77.9819Z" stroke="white" stroke-width="3" stroke-linecap="round"/>
</svg>
