<svg width="43" height="99" viewBox="0 0 43 99" fill="none" xmlns="http://www.w3.org/2000/svg">
<path d="M1.57404 1.78478L3.07404 1.78696C3.07524 0.963351 2.41214 0.292827 1.58857 0.284848C0.765006 0.276868 0.0890445 0.934418 0.074283 1.75789L1.57404 1.78478ZM10.3987 67.9726L9.38278 69.0762L9.38278 69.0762L10.3987 67.9726ZM29.5012 23.4574L28.1349 24.0765L29.5012 23.4574ZM36.6006 18.8504L35.8128 17.574L34.911 18.1306L35.1343 19.1665L36.6006 18.8504ZM35.6399 9.98598L35.0897 8.59052L35.6399 9.98598ZM32.6011 39.7397L33.3809 38.4583L33.3809 38.4583L32.6011 39.7397ZM27.8457 46.2158L28.4837 44.8583L26.9609 44.1427L26.4241 45.7373L27.8457 46.2158ZM29.4831 72.8793L28.1584 73.5831L28.1584 73.5831L29.4831 72.8793ZM37.2897 68.4104L36.7274 67.0198L35.3415 67.5803L35.8972 68.9681L37.2897 68.4104ZM28.4759 86.8052L27.4678 87.9159L27.4678 87.9159L28.4759 86.8052ZM23.0672 93.732L23.6435 92.3471L22.4197 91.8378L21.7637 92.9897L23.0672 93.732ZM14.9371 92.3913L13.5243 91.8871L13.5243 91.8871L14.9371 92.3913ZM0.0740436 1.78258C0.0673203 6.36202 0.866489 9.69136 2.47608 12.001C4.13067 14.3751 6.48753 15.4571 9.07472 15.8479C11.6023 16.2296 14.4533 15.9692 17.2748 15.6046C20.1706 15.2304 23.0347 14.7477 25.8863 14.5653L25.6948 11.5714C22.7147 11.7621 19.6326 12.275 16.8903 12.6293C14.0737 12.9933 11.5947 13.1945 9.52279 12.8815C7.51051 12.5775 5.99851 11.8084 4.93734 10.2857C3.83119 8.69846 3.06773 6.08522 3.07404 1.78698L0.0740436 1.78258ZM0.0740436 1.7826C0.0673296 6.40366 0.845019 9.8216 2.21173 12.6044C3.57425 15.3787 5.46938 17.4097 7.495 19.3067C11.5359 23.091 16.1777 26.4565 19.8405 34.5333L22.5727 33.2942C18.6081 24.552 13.4206 20.7459 9.54566 17.117C7.61334 15.3073 6.02887 13.5713 4.9045 11.2819C3.78432 9.00107 3.06783 6.0588 3.07404 1.78696L0.0740436 1.7826ZM0.074283 1.75789C-0.0925674 11.0657 0.074042 18.3096 0.074042 25.1421H3.07404C3.07404 18.2234 2.90747 11.0902 3.0738 1.81166L0.074283 1.75789ZM0.074042 25.1421C0.074042 25.1581 0.074042 25.1741 0.074042 25.1901C0.074042 25.206 0.074042 25.222 0.074042 25.238C0.074042 25.2539 0.074042 25.2699 0.074042 25.2858C0.074042 25.3018 0.074042 25.3177 0.074042 25.3336C0.074042 25.3496 0.074042 25.3655 0.074042 25.3814C0.074042 25.3973 0.074042 25.4132 0.074042 25.4291C0.074042 25.445 0.074042 25.4609 0.074042 25.4768C0.074042 25.4927 0.074042 25.5086 0.074042 25.5245C0.074042 25.5403 0.074042 25.5562 0.074042 25.5721C0.074042 25.5879 0.074042 25.6038 0.074042 25.6196C0.074042 25.6355 0.074042 25.6513 0.074042 25.6671C0.074042 25.683 0.074042 25.6988 0.074042 25.7146C0.074042 25.7304 0.074042 25.7463 0.074042 25.7621C0.074042 25.7779 0.074042 25.7937 0.074042 25.8095C0.074042 25.8253 0.074042 25.841 0.074042 25.8568C0.074042 25.8726 0.074042 25.8884 0.074042 25.9041C0.074042 25.9199 0.074042 25.9357 0.074042 25.9514C0.074042 25.9672 0.074042 25.9829 0.074042 25.9986C0.074042 26.0144 0.074042 26.0301 0.074042 26.0458C0.074042 26.0616 0.074042 26.0773 0.074042 26.093C0.074042 26.1087 0.074042 26.1244 0.074042 26.1401C0.074042 26.1558 0.074042 26.1715 0.074042 26.1871C0.074042 26.2028 0.074042 26.2185 0.074042 26.2342C0.074042 26.2498 0.074042 26.2655 0.074042 26.2811C0.074042 26.2968 0.074042 26.3124 0.074042 26.3281C0.074042 26.3437 0.074042 26.3593 0.074042 26.375C0.074042 26.3906 0.074042 26.4062 0.074042 26.4218C0.074042 26.4374 0.074042 26.453 0.074042 26.4686C0.074042 26.4842 0.074042 26.4998 0.074042 26.5154C0.074042 26.531 0.074042 26.5465 0.074042 26.5621C0.074042 26.5777 0.074042 26.5932 0.074042 26.6088C0.074042 26.6243 0.074042 26.6399 0.074042 26.6554C0.074042 26.671 0.074042 26.6865 0.074042 26.702C0.074042 26.7175 0.074042 26.7331 0.074042 26.7486C0.074042 26.7641 0.074042 26.7796 0.074042 26.7951C0.074042 26.8106 0.074042 26.8261 0.074042 26.8415C0.074042 26.857 0.074042 26.8725 0.074042 26.888C0.074042 26.9034 0.074042 26.9189 0.074042 26.9343C0.074042 26.9498 0.074042 26.9652 0.074042 26.9807C0.074042 26.9961 0.074042 27.0115 0.074042 27.027C0.074042 27.0424 0.074042 27.0578 0.074042 27.0732C0.074042 27.0886 0.074042 27.104 0.074042 27.1194C0.074042 27.1348 0.074042 27.1502 0.074042 27.1656C0.074042 27.1809 0.074042 27.1963 0.074042 27.2117C0.074042 27.227 0.074042 27.2424 0.074042 27.2577C0.074042 27.2731 0.074042 27.2884 0.074042 27.3038C0.074042 27.3191 0.074042 27.3344 0.074042 27.3497C0.074042 27.3651 0.074042 27.3804 0.074042 27.3957C0.074042 27.411 0.074042 27.4263 0.074042 27.4416C0.074042 27.4569 0.074042 27.4721 0.074042 27.4874C0.074042 27.5027 0.074042 27.518 0.074042 27.5332C0.074042 27.5485 0.074042 27.5637 0.074042 27.579C0.074042 27.5942 0.074042 27.6094 0.074042 27.6247C0.074042 27.6399 0.074042 27.6551 0.074042 27.6703C0.074042 27.6856 0.074042 27.7008 0.074042 27.716C0.074042 27.7312 0.074042 27.7464 0.074042 27.7615C0.074042 27.7767 0.074042 27.7919 0.074042 27.8071C0.074042 27.8222 0.074042 27.8374 0.074042 27.8526C0.074042 27.8677 0.074042 27.8829 0.074042 27.898C0.074042 27.9131 0.074042 27.9283 0.074042 27.9434C0.074042 27.9585 0.074042 27.9736 0.074042 27.9888C0.074042 28.0039 0.074042 28.019 0.074042 28.0341C0.074042 28.0492 0.074042 28.0642 0.074042 28.0793C0.074042 28.0944 0.074042 28.1095 0.074042 28.1245C0.074042 28.1396 0.074042 28.1547 0.074042 28.1697C0.074042 28.1848 0.074042 28.1998 0.074042 28.2148C0.074042 28.2299 0.074042 28.2449 0.074042 28.2599C0.074042 28.2749 0.074042 28.2899 0.074042 28.3049C0.074042 28.3199 0.074042 28.3349 0.074042 28.3499C0.074042 28.3649 0.074042 28.3799 0.074042 28.3949C0.074042 28.4098 0.074042 28.4248 0.074042 28.4397C0.074042 28.4547 0.074042 28.4697 0.074042 28.4846C0.074042 28.4995 0.074042 28.5145 0.074042 28.5294C0.074042 28.5443 0.074042 28.5592 0.074042 28.5741C0.074042 28.5891 0.074042 28.604 0.074042 28.6189C0.074042 28.6337 0.074042 28.6486 0.074042 28.6635C0.074042 28.6784 0.074042 28.6933 0.074042 28.7081C0.074042 28.723 0.074042 28.7378 0.074042 28.7527C0.074042 28.7675 0.074042 28.7824 0.074042 28.7972C0.074042 28.812 0.074042 28.8269 0.074042 28.8417C0.074042 28.8565 0.074042 28.8713 0.074042 28.8861C0.074042 28.9009 0.074042 28.9157 0.074042 28.9305C0.074042 28.9453 0.074042 28.96 0.074042 28.9748C0.074042 28.9896 0.074042 29.0043 0.074042 29.0191C0.074042 29.0338 0.074042 29.0486 0.074042 29.0633C0.074042 29.0781 0.074042 29.0928 0.074042 29.1075C0.074042 29.1222 0.074042 29.137 0.074042 29.1517C0.074042 29.1664 0.074042 29.1811 0.074042 29.1958C0.074042 29.2104 0.074042 29.2251 0.074042 29.2398C0.074042 29.2545 0.074042 29.2691 0.074042 29.2838C0.074042 29.2985 0.074042 29.3131 0.074042 29.3277C0.074042 29.3424 0.074042 29.357 0.074042 29.3716C0.074042 29.3863 0.074042 29.4009 0.074042 29.4155C0.074042 29.4301 0.074042 29.4447 0.074042 29.4593C0.074042 29.4739 0.074042 29.4885 0.074042 29.5031C0.074042 29.5176 0.074042 29.5322 0.074042 29.5468C0.074042 29.5613 0.074042 29.5759 0.074042 29.5904C0.074042 29.605 0.074042 29.6195 0.074042 29.634C0.074042 29.6486 0.074042 29.6631 0.074042 29.6776C0.074042 29.6921 0.074042 29.7066 0.074042 29.7211C0.074042 29.7356 0.074042 29.7501 0.074042 29.7646C0.074042 29.7791 0.074042 29.7935 0.074042 29.808C0.074042 29.8225 0.074042 29.8369 0.074042 29.8514C0.074042 29.8658 0.074042 29.8803 0.074042 29.8947C0.074042 29.9091 0.074042 29.9235 0.074042 29.938C0.074042 29.9524 0.074042 29.9668 0.074042 29.9812C0.074042 29.9956 0.074042 30.01 0.074042 30.0244C0.074042 30.0387 0.074042 30.0531 0.074042 30.0675C0.074042 30.0818 0.074042 30.0962 0.074042 30.1106C0.074042 30.1249 0.074042 30.1392 0.074042 30.1536C0.074042 30.1679 0.074042 30.1822 0.074042 30.1965C0.074042 30.2109 0.074042 30.2252 0.074042 30.2395C0.074042 30.2538 0.074042 30.2681 0.074042 30.2823C0.074042 30.2966 0.074042 30.3109 0.074042 30.3252C0.074042 30.3394 0.074042 30.3537 0.074042 30.3679C0.074042 30.3822 0.074042 30.3964 0.074042 30.4107C0.074042 30.4249 0.074042 30.4391 0.074042 30.4533C0.074042 30.4676 0.074042 30.4818 0.074042 30.496C0.074042 30.5102 0.074042 30.5244 0.074042 30.5385C0.074042 30.5527 0.074042 30.5669 0.074042 30.5811C0.074042 30.5952 0.074042 30.6094 0.074042 30.6235C0.074042 30.6377 0.074042 30.6518 0.074042 30.666C0.074042 30.6801 0.074042 30.6942 0.074042 30.7083C0.074042 30.7225 0.074042 30.7366 0.074042 30.7507C0.074042 30.7648 0.074042 30.7789 0.074042 30.7929C0.074042 30.807 0.074042 30.8211 0.074042 30.8352C0.074042 30.8492 0.074042 30.8633 0.074042 30.8773C0.074042 30.8914 0.074042 30.9054 0.074042 30.9194C0.074042 30.9335 0.074042 30.9475 0.074042 30.9615C0.074042 30.9755 0.074042 30.9895 0.074042 31.0035C0.074042 31.0175 0.074042 31.0315 0.074042 31.0455C0.074042 31.0595 0.074042 31.0735 0.074042 31.0874C0.074042 31.1014 0.074042 31.1153 0.074042 31.1293C0.074042 31.1432 0.074042 31.1572 0.074042 31.1711C0.074042 31.185 0.074042 31.1989 0.074042 31.2129C0.074042 31.2268 0.074042 31.2407 0.074042 31.2546C0.074042 31.2685 0.074042 31.2823 0.074042 31.2962C0.074042 31.3101 0.074042 31.324 0.074042 31.3378C0.074042 31.3517 0.074042 31.3655 0.074042 31.3794C0.074042 31.3932 0.074042 31.4071 0.074042 31.4209C0.074042 31.4347 0.074042 31.4485 0.074042 31.4623C0.074042 31.4761 0.074042 31.4899 0.074042 31.5037C0.074042 31.5175 0.074042 31.5313 0.074042 31.5451C0.074042 31.5588 0.074042 31.5726 0.074042 31.5864C0.074042 31.6001 0.074042 31.6139 0.074042 31.6276C0.074042 31.6413 0.074042 31.6551 0.074042 31.6688C0.074042 31.6825 0.074042 31.6962 0.074042 31.7099C0.074042 31.7236 0.074042 31.7373 0.074042 31.751C0.074042 31.7647 0.074042 31.7784 0.074042 31.792C0.074042 31.8057 0.074042 31.8194 0.074042 31.833C0.074042 31.8467 0.074042 31.8603 0.074042 31.8739C0.074042 31.8876 0.074042 31.9012 0.074042 31.9148C0.074042 31.9284 0.074042 31.942 0.074042 31.9556C0.074042 31.9692 0.074042 31.9828 0.074042 31.9964C0.074042 32.01 0.074042 32.0236 0.074042 32.0371C0.074042 32.0507 0.074042 32.0642 0.074042 32.0778C0.074042 32.0913 0.074042 32.1049 0.074042 32.1184C0.074042 32.1319 0.074042 32.1454 0.074042 32.1589C0.074042 32.1724 0.074042 32.1859 0.074042 32.1994C0.074042 32.2129 0.074042 32.2264 0.074042 32.2399C0.074042 32.2534 0.074042 32.2668 0.074042 32.2803C0.074042 32.2937 0.074042 32.3072 0.074042 32.3206C0.074042 32.334 0.074042 32.3475 0.074042 32.3609C0.074042 32.3743 0.074042 32.3877 0.074042 32.4011C0.074042 32.4145 0.074042 32.4279 0.074042 32.4413C0.074042 32.4547 0.074042 32.4681 0.074042 32.4814C0.074042 32.4948 0.074042 32.5081 0.074042 32.5215C0.074042 32.5348 0.074042 32.5482 0.074042 32.5615C0.074042 32.5748 0.074042 32.5882 0.074042 32.6015C0.074042 32.6148 0.074042 32.6281 0.074042 32.6414C0.074042 32.6547 0.074042 32.6679 0.074042 32.6812C0.074042 32.6945 0.074042 32.7078 0.074042 32.721C0.074042 32.7343 0.074042 32.7475 0.074042 32.7608C0.074042 32.774 0.074042 32.7872 0.074042 32.8004C0.074042 32.8137 0.074042 32.8269 0.074042 32.8401C0.074042 32.8533 0.074042 32.8665 0.074042 32.8797C0.074042 32.8928 0.074042 32.906 0.074042 32.9192C0.074042 32.9323 0.074042 32.9455 0.074042 32.9586C0.074042 32.9718 0.074042 32.9849 0.074042 32.9981C0.074042 33.0112 0.074042 33.0243 0.074042 33.0374C0.074042 33.0505 0.074042 33.0636 0.074042 33.0767C0.074042 33.0898 0.074042 33.1029 0.074042 33.116C0.074042 33.129 0.074042 33.1421 0.074042 33.1552C0.074042 33.1682 0.074042 33.1813 0.074042 33.1943C0.074042 33.2073 0.074042 33.2204 0.074042 33.2334C0.074042 33.2464 0.074042 33.2594 0.074042 33.2724C0.074042 33.2854 0.074042 33.2984 0.074042 33.3114C0.074042 33.3243 0.074042 33.3373 0.074042 33.3503C0.074042 33.3632 0.074042 33.3762 0.074042 33.3891C0.074042 33.4021 0.074042 33.415 0.074042 33.4279C0.074042 33.4409 0.074042 33.4538 0.074042 33.4667C0.074042 33.4796 0.074042 33.4925 0.074042 33.5054C0.074042 33.5183 0.074042 33.5311 0.074042 33.544C0.074042 33.5569 0.074042 33.5697 0.074042 33.5826C0.074042 33.5954 0.074042 33.6083 0.074042 33.6211C0.074042 33.6339 0.074042 33.6467 0.074042 33.6596C0.074042 33.6724 0.074042 33.6852 0.074042 33.698C0.074042 33.7108 0.074042 33.7235 0.074042 33.7363C0.074042 33.7491 0.074042 33.7619 0.074042 33.7746C0.074042 33.7874 0.074042 33.8001 0.074042 33.8128C0.074042 33.8256 0.074042 33.8383 0.074042 33.851C0.074042 33.8637 0.074042 33.8764 0.074042 33.8891C0.074042 33.9018 0.074042 33.9145 0.074042 33.9272C0.074042 33.9399 0.074042 33.9526 0.074042 33.9652C0.074042 33.9779 0.074042 33.9905 0.074042 34.0032C0.074042 34.0158 0.074042 34.0284 0.074042 34.0411C0.074042 34.0537 0.074042 34.0663 0.074042 34.0789C0.074042 34.0915 0.074042 34.1041 0.074042 34.1167C0.074042 34.1293 0.074042 34.1418 0.074042 34.1544C0.074042 34.167 0.074042 34.1795 0.074042 34.1921C0.074042 34.2046 0.074042 34.2171 0.074042 34.2297C0.074042 34.2422 0.074042 34.2547 0.074042 34.2672C0.074042 34.2797 0.074042 34.2922 0.074042 34.3047C0.074042 34.3172 0.074042 34.3297 0.074042 34.3421C0.074042 34.3546 0.074042 34.3671 0.074042 34.3795C0.074042 34.3919 0.074042 34.4044 0.074042 34.4168C0.074042 34.4292 0.074042 34.4417 0.074042 34.4541C0.074042 34.4665 0.074042 34.4789 0.074042 34.4913C0.074042 34.5037 0.074042 34.516 0.074042 34.5284C0.074042 34.5408 0.074042 34.5531 0.074042 34.5655C0.074042 34.5778 0.074042 34.5902 0.074042 34.6025C0.074042 34.6148 0.074042 34.6272 0.074042 34.6395C0.074042 34.6518 0.074042 34.6641 0.074042 34.6764C0.074042 34.6887 0.074042 34.701 0.074042 34.7132C0.074042 34.7255 0.074042 34.7378 0.074042 34.75C0.074042 34.7623 0.074042 34.7745 0.074042 34.7867C0.074042 34.799 0.074042 34.8112 0.074042 34.8234C0.074042 34.8356 0.074042 34.8478 0.074042 34.86C0.074042 34.8722 0.074042 34.8844 0.074042 34.8966C0.074042 34.9088 0.074042 34.9209 0.074042 34.9331C0.074042 34.9452 0.074042 34.9574 0.074042 34.9695C0.074042 34.9816 0.074042 34.9938 0.074042 35.0059C0.074042 35.018 0.074042 35.0301 0.074042 35.0422C0.074042 35.0543 0.074042 35.0664 0.074042 35.0784C0.074042 35.0905 0.074042 35.1026 0.074042 35.1146C0.074042 35.1267 0.074042 35.1387 0.074042 35.1508C0.074042 35.1628 0.074042 35.1748 0.074042 35.1868C0.074042 35.1989 0.074042 35.2109 0.074042 35.2229C0.074042 35.2349 0.074042 35.2468 0.074042 35.2588C0.074042 35.2708 0.074042 35.2828 0.074042 35.2947C0.074042 35.3067 0.074042 35.3186 0.074042 35.3305C0.074042 35.3425 0.074042 35.3544 0.074042 35.3663C0.074042 35.3782 0.074042 35.3901 0.074042 35.402C0.074042 35.4139 0.074042 35.4258 0.074042 35.4377C0.074042 35.4496 0.074042 35.4614 0.074042 35.4733C0.074042 35.4851 0.074042 35.497 0.074042 35.5088C0.074042 35.5206 0.074042 35.5325 0.074042 35.5443C0.074042 35.5561 0.074042 35.5679 0.074042 35.5797C0.074042 35.5915 0.074042 35.6033 0.074042 35.615C0.074042 35.6268 0.074042 35.6386 0.074042 35.6503C0.074042 35.6621 0.074042 35.6738 0.074042 35.6856C0.074042 35.6973 0.074042 35.709 0.074042 35.7207C0.074042 35.7324 0.074042 35.7441 0.074042 35.7558C0.074042 35.7675 0.074042 35.7792 0.074042 35.7909C0.074042 35.8025 0.074042 35.8142 0.074042 35.8259C0.074042 35.8375 0.074042 35.8491 0.074042 35.8608C0.074042 35.8724 0.074042 35.884 0.074042 35.8956C0.074042 35.9072 0.074042 35.9188 0.074042 35.9304C0.074042 35.942 0.074042 35.9536 0.074042 35.9652C0.074042 35.9767 0.074042 35.9883 0.074042 35.9998C0.074042 36.0114 0.074042 36.0229 0.074042 36.0345C0.074042 36.046 0.074042 36.0575 0.074042 36.069C0.074042 36.0805 0.074042 36.092 0.074042 36.1035C0.074042 36.115 0.074042 36.1265 0.074042 36.1379C0.074042 36.1494 0.074042 36.1608 0.074042 36.1723C0.074042 36.1837 0.074042 36.1952 0.074042 36.2066C0.074042 36.218 0.074042 36.2294 0.074042 36.2408C0.074042 36.2522 0.074042 36.2636 0.074042 36.275C0.074042 36.2864 0.074042 36.2978 0.074042 36.3091C0.074042 36.3205 0.074042 36.3318 0.074042 36.3432C0.074042 36.3545 0.074042 36.3658 0.074042 36.3772C0.074042 36.3885 0.074042 36.3998 0.074042 36.4111C0.074042 36.4224 0.074042 36.4337 0.074042 36.4449C0.074042 36.4562 0.074042 36.4675 0.074042 36.4787C0.074042 36.49 0.074042 36.5012 0.074042 36.5125C0.074042 36.5237 0.074042 36.5349 0.074042 36.5462C0.074042 36.5574 0.074042 36.5686 0.074042 36.5798C0.074042 36.591 0.074042 36.6021 0.074042 36.6133C0.074042 36.6245 0.074042 36.6357 0.074042 36.6468C0.074042 36.658 0.074042 36.6691 0.074042 36.6802C0.074042 36.6914 0.074042 36.7025 0.074042 36.7136C0.074042 36.7247 0.074042 36.7358 0.074042 36.7469C0.074042 36.758 0.074042 36.769 0.074042 36.7801C0.074042 36.7912 0.074042 36.8022 0.074042 36.8133C0.074042 36.8243 0.074042 36.8354 0.074042 36.8464C0.074042 36.8574 0.074042 36.8684 0.074042 36.8794C0.074042 36.8904 0.074042 36.9014 0.074042 36.9124C0.074042 36.9234 0.074042 36.9343 0.074042 36.9453C0.074042 36.9563 0.074042 36.9672 0.074042 36.9782C0.074042 36.9891 0.074042 37 0.074042 37.0109C0.074042 37.0219 0.074042 37.0328 0.074042 37.0437C0.074042 37.0546 0.074042 37.0654 0.074042 37.0763C0.074042 37.0872 0.074042 37.098 0.074042 37.1089C0.074042 37.1198 0.074042 37.1306 0.074042 37.1414C0.074042 37.1523 0.074042 37.1631 0.074042 37.1739C0.074042 37.1847 0.074042 37.1955 0.074042 37.2063C0.074042 37.2171 0.074042 37.2278 0.074042 37.2386C0.074042 37.2494 0.074042 37.2601 0.074042 37.2709C0.074042 37.2816 0.074042 37.2924 0.074042 37.3031C0.074042 37.3138 0.074042 37.3245 0.074042 37.3352C0.074042 37.3459 0.074042 37.3566 0.074042 37.3673C0.074042 37.378 0.074042 37.3886 0.074042 37.3993C0.074042 37.4099 0.074042 37.4206 0.074042 37.4312C0.074042 37.4419 0.074042 37.4525 0.074042 37.4631C0.074042 37.4737 0.074042 37.4843 0.074042 37.4949C0.074042 37.5055 0.074042 37.5161 0.074042 37.5267C0.074042 37.5372 0.074042 37.5478 0.074042 37.5583C0.074042 37.5689 0.074042 37.5794 0.074042 37.5899C0.074042 37.6005 0.074042 37.611 0.074042 37.6215C0.074042 37.632 0.074042 37.6425 0.074042 37.653C0.074042 37.6635 0.074042 37.6739 0.074042 37.6844C0.074042 37.6949 0.074042 37.7053 0.074042 37.7157C0.074042 37.7262 0.074042 37.7366 0.074042 37.747C0.074042 37.7574 0.074042 37.7678 0.074042 37.7782C0.074042 37.7886 0.074042 37.799 0.074042 37.8094C0.074042 37.8198 0.074042 37.8301 0.074042 37.8405C0.074042 37.8508 0.074042 37.8612 0.074042 37.8715C0.074042 37.8818 0.074042 37.8921 0.074042 37.9024C0.074042 37.9127 0.074042 37.923 0.074042 37.9333C0.074042 37.9436 0.074042 37.9539 0.074042 37.9641C0.074042 37.9744 0.074042 37.9847 0.074042 37.9949C0.074042 38.0051 0.074042 38.0154 0.074042 38.0256C0.074042 38.0358 0.074042 38.046 0.074042 38.0562C0.074042 38.0664 0.074042 38.0766 0.074042 38.0867C0.074042 38.0969 0.074042 38.1071 0.074042 38.1172C0.074042 38.1274 0.074042 38.1375 0.074042 38.1476C0.074042 38.1578 0.074042 38.1679 0.074042 38.178C0.074042 38.1881 0.074042 38.1982 0.074042 38.2083C0.074042 38.2184 0.074042 38.2284 0.074042 38.2385C0.074042 38.2485 0.074042 38.2586 0.074042 38.2686C0.074042 38.2787 0.074042 38.2887 0.074042 38.2987C0.074042 38.3087 0.074042 38.3187 0.074042 38.3287C0.074042 38.3387 0.074042 38.3487 0.074042 38.3587C0.074042 38.3686 0.074042 38.3786 0.074042 38.3885C0.074042 38.3985 0.074042 38.4084 0.074042 38.4183C0.074042 38.4283 0.074042 38.4382 0.074042 38.4481C0.074042 38.458 0.074042 38.4679 0.074042 38.4778C0.074042 38.4876 0.074042 38.4975 0.074042 38.5074C0.074042 38.5172 0.074042 38.5271 0.074042 38.5369C0.074042 38.5467 0.074042 38.5565 0.074042 38.5664C0.074042 38.5762 0.074042 38.586 0.074042 38.5958C0.074042 38.6055 0.074042 38.6153 0.074042 38.6251C0.074042 38.6349 0.074042 38.6446 0.074042 38.6543C0.074042 38.6641 0.074042 38.6738 0.074042 38.6835C0.074042 38.6933 0.074042 38.703 0.074042 38.7127C0.074042 38.7224 0.074042 38.732 0.074042 38.7417C0.074042 38.7514 0.074042 38.7611 0.074042 38.7707C0.074042 38.7804 0.074042 38.79 0.074042 38.7996C0.074042 38.8092 0.074042 38.8189 0.074042 38.8285C0.074042 38.8381 0.074042 38.8477 0.074042 38.8572C0.074042 38.8668 0.074042 38.8764 0.074042 38.886C0.074042 38.8955 0.074042 38.9051 0.074042 38.9146C0.074042 38.9241 0.074042 38.9337 0.074042 38.9432C0.074042 38.9527 0.074042 38.9622 0.074042 38.9717C0.074042 38.9812 0.074042 38.9906 0.074042 39.0001C0.074042 39.0096 0.074042 39.019 0.074042 39.0285C0.074042 39.0379 0.074042 39.0473 0.074042 39.0567C0.074042 39.0662 0.074042 39.0756 0.074042 39.085C0.074042 39.0944 0.074042 39.1038 0.074042 39.1131C0.074042 39.1225 0.074042 39.1319 0.074042 39.1412C0.074042 39.1506 0.074042 39.1599 0.074042 39.1692C0.074042 39.1785 0.074042 39.1879 0.074042 39.1972C0.074042 39.2065 0.074042 39.2158 0.074042 39.225C0.074042 39.2343 0.074042 39.2436 0.074042 39.2528C0.074042 39.2621 0.074042 39.2713 0.074042 39.2806C0.074042 39.2898 0.074042 39.299 0.074042 39.3082C0.074042 39.3174 0.074042 39.3266 0.074042 39.3358C0.074042 39.345 0.074042 39.3542 0.074042 39.3633C0.074042 39.3725 0.074042 39.3816 0.074042 39.3908C0.074042 39.3999 0.074042 39.409 0.074042 39.4182C0.074042 39.4273 0.074042 39.4364 0.074042 39.4455C0.074042 39.4546 0.074042 39.4636 0.074042 39.4727C0.074042 39.4818 0.074042 39.4908 0.074042 39.4999C0.074042 39.5089 0.074042 39.5179 0.074042 39.527C0.074042 39.536 0.074042 39.545 0.074042 39.554C0.074042 39.563 0.074042 39.572 0.074042 39.5809C0.074042 39.5899 0.074042 39.5989 0.074042 39.6078C0.074042 39.6168 0.074042 39.6257 0.074042 39.6346C0.074042 39.6435 0.074042 39.6525 0.074042 39.6614C0.074042 39.6703 0.074042 39.6791 0.074042 39.688C0.074042 39.6969 0.074042 39.7058 0.074042 39.7146C0.074042 39.7235 0.074042 39.7323 0.074042 39.7411C0.074042 39.75 0.074042 39.7588 0.074042 39.7676C0.074042 39.7764 0.074042 39.7852 0.074042 39.794C0.074042 39.8027 0.074042 39.8115 0.074042 39.8203C0.074042 39.829 0.074042 39.8378 0.074042 39.8465C0.074042 39.8552 0.074042 39.864 0.074042 39.8727C0.074042 39.8814 0.074042 39.8901 0.074042 39.8988C0.074042 39.9074 0.074042 39.9161 0.074042 39.9248C0.074042 39.9334 0.074042 39.9421 0.074042 39.9507C0.074042 39.9594 0.074042 39.968 0.074042 39.9766C0.074042 39.9852 0.074042 39.9938 0.074042 40.0024C0.074042 40.011 0.074042 40.0196 0.074042 40.0281C0.074042 40.0367 0.074042 40.0452 0.074042 40.0538C0.074042 40.0623 0.074042 40.0708 0.074042 40.0794C0.074042 40.0879 0.074042 40.0964 0.074042 40.1049C0.074042 40.1134 0.074042 40.1218 0.074042 40.1303C0.074042 40.1388 0.074042 40.1472 0.074042 40.1557C0.074042 40.1641 0.074042 40.1725 0.074042 40.1809C0.074042 40.1894 0.074042 40.1978 0.074042 40.2062C0.074042 40.2146 0.074042 40.2229 0.074042 40.2313C0.074042 40.2397 0.074042 40.248 0.074042 40.2564C0.074042 40.2647 0.074042 40.273 0.074042 40.2814C0.074042 40.2897 0.074042 40.298 0.074042 40.3063C0.074042 40.3146 0.074042 40.3229 0.074042 40.3311C0.074042 40.3394 0.074042 40.3477 0.074042 40.3559C0.074042 40.3642 0.074042 40.3724 0.074042 40.3806C0.074042 40.3888 0.074042 40.397 0.074042 40.4052C0.074042 40.4134 0.074042 40.4216 0.074042 40.4298C0.074042 40.438 0.074042 40.4461 0.074042 40.4543C0.074042 40.4624 0.074042 40.4705 0.074042 40.4787C0.074042 40.4868 0.074042 40.4949 0.074042 40.503C0.074042 40.5111 0.074042 40.5192 0.074042 40.5273C0.074042 40.5353 0.074042 40.5434 0.074042 40.5514C0.074042 40.5595 0.074042 40.5675 0.074042 40.5755C0.074042 40.5836 0.074042 40.5916 0.074042 40.5996C0.074042 40.6076 0.074042 40.6156 0.074042 40.6235C0.074042 40.6315 0.074042 40.6395 0.074042 40.6474C0.074042 40.6554 0.074042 40.6633 0.074042 40.6712C0.074042 40.6791 0.074042 40.6871 0.074042 40.695C0.074042 40.7029 0.074042 40.7107 0.074042 40.7186C0.074042 40.7265 0.074042 40.7343 0.074042 40.7422C0.074042 40.75 0.074042 40.7579 0.074042 40.7657C0.074042 40.7735 0.074042 40.7813 0.074042 40.7891C0.074042 40.7969 0.074042 40.8047 0.074042 40.8125C0.074042 40.8203 0.074042 40.828 0.074042 40.8358C0.074042 40.8435 0.074042 40.8513 0.074042 40.859C0.074042 40.8667 0.074042 40.8744 0.074042 40.8821C0.074042 40.8898 0.074042 40.8975 0.074042 40.9052C0.074042 40.9128 0.074042 40.9205 0.074042 40.9281C0.074042 40.9358 0.074042 40.9434 0.074042 40.951C0.074042 40.9587 0.074042 40.9663 0.074042 40.9739C0.074042 40.9815 0.074042 40.9891 0.074042 40.9966C0.074042 41.0042 0.074042 41.0118 0.074042 41.0193C0.074042 41.0268 0.074042 41.0344 0.074042 41.0419C0.074042 41.0494 0.074042 41.0569 0.074042 41.0644C0.074042 41.0719 0.074042 41.0794 0.074042 41.0869C0.074042 41.0943 0.074042 41.1018 0.074042 41.1092C0.074042 41.1167 0.074042 41.1241 0.074042 41.1315C0.074042 41.139 0.074042 41.1464 0.074042 41.1538C0.074042 41.1611 0.074042 41.1685 0.074042 41.1759C0.074042 41.1833 0.074042 41.1906 0.074042 41.198C0.074042 41.2053 0.074042 41.2126 0.074042 41.2199C0.074042 41.2273 0.074042 41.2346 0.074042 41.2419C0.074042 41.2491 0.074042 41.2564 0.074042 41.2637C0.074042 41.271 0.074042 41.2782 0.074042 41.2854C0.074042 41.2927 0.074042 41.2999 0.074042 41.3071C0.074042 41.3143 0.074042 41.3215 0.074042 41.3287C0.074042 41.3359 0.074042 41.3431 0.074042 41.3503C0.074042 41.3574 0.074042 41.3646 0.074042 41.3717C0.074042 41.3788 0.074042 41.386 0.074042 41.3931C0.074042 41.4002 0.074042 41.4073 0.074042 41.4144C0.074042 41.4214 0.074042 41.4285 0.074042 41.4356C0.074042 41.4426 0.074042 41.4497 0.074042 41.4567C0.074042 41.4637 0.074042 41.4708 0.074042 41.4778C0.074042 41.4848 0.074042 41.4918 0.074042 41.4988C0.074042 41.5057 0.074042 41.5127 0.074042 41.5197C0.074042 41.5266 0.074042 41.5336 0.074042 41.5405C0.074042 41.5474 0.074042 41.5543 0.074042 41.5612C0.074042 41.5681 0.074042 41.575 0.074042 41.5819C0.074042 41.5888 0.074042 41.5956 0.074042 41.6025C0.074042 41.6093 0.074042 41.6162 0.074042 41.623C0.074042 41.6298 0.074042 41.6366 0.074042 41.6434C0.074042 41.6502 0.074042 41.657 0.074042 41.6638C0.074042 41.6706 0.074042 41.6773 0.074042 41.6841C0.074042 41.6908 0.074042 41.6975 0.074042 41.7043C0.074042 41.711 0.074042 41.7177 0.074042 41.7244C0.074042 41.7311 0.074042 41.7378 0.074042 41.7444C0.074042 41.7511 0.074042 41.7577 0.074042 41.7644C0.074042 41.771 0.074042 41.7777 0.074042 41.7843C0.074042 41.7909 0.074042 41.7975 0.074042 41.8041C0.074042 41.8107 0.074042 41.8172 0.074042 41.8238C0.074042 41.8304 0.074042 41.8369 0.074042 41.8434C0.074042 41.85 0.074042 41.8565 0.074042 41.863C0.074042 41.8695 0.074042 41.876 0.074042 41.8825C0.074042 41.889 0.074042 41.8954 0.074042 41.9019C0.074042 41.9084 0.074042 41.9148 0.074042 41.9212C0.074042 41.9277 0.074042 41.9341 0.074042 41.9405C0.074042 41.9469 0.074042 41.9533 0.074042 41.9596C0.074042 41.966 0.074042 41.9724 0.074042 41.9787C0.074042 41.9851 0.074042 41.9914 0.074042 41.9977C0.074042 42.0041 0.074042 42.0104 0.074042 42.0167C0.074042 42.023 0.074042 42.0292 0.074042 42.0355C0.074042 42.0418 0.074042 42.048 0.074042 42.0543C0.074042 42.0605 0.074042 42.0668 0.074042 42.073C0.074042 42.0792 0.074042 42.0854 0.074042 42.0916C0.074042 42.0978 0.074042 42.1039 0.074042 42.1101C0.074042 42.1163 0.074042 42.1224 0.074042 42.1286C0.074042 42.1347 0.074042 42.1408 0.074042 42.1469C0.074042 42.153 0.074042 42.1591 0.074042 42.1652C0.074042 42.1713 0.074042 42.1774 0.074042 42.1834C0.074042 42.1895 0.074042 42.1955 0.074042 42.2015C0.074042 42.2076 0.074042 42.2136 0.074042 42.2196C0.074042 42.2256 0.074042 42.2316 0.074042 42.2375C0.074042 42.2435 0.074042 42.2495 0.074042 42.2554C0.074042 42.2614 0.074042 42.2673 0.074042 42.2732C0.074042 42.2791 0.074042 42.285 0.074042 42.2909C0.074042 42.2968 0.074042 42.3027 0.074042 42.3086C0.074042 42.3144 0.074042 42.3203 0.074042 42.3261C0.074042 42.332 0.074042 42.3378 0.074042 42.3436C0.074042 42.3494 0.074042 42.3552 0.074042 42.361C0.074042 42.3668 0.074042 42.3725 0.074042 42.3783C0.074042 42.3841 0.074042 42.3898 0.074042 42.3955C0.074042 42.4013 0.074042 42.407 0.074042 42.4127C0.074042 42.4184 0.074042 42.4241 0.074042 42.4297C0.074042 42.4354 0.074042 42.4411 0.074042 42.4467C0.074042 42.4524 0.074042 42.458 0.074042 42.4636C0.074042 42.4693 0.074042 42.4749 0.074042 42.4804C0.074042 42.486 0.074042 42.4916 0.074042 42.4972C0.074042 42.5028 0.074042 42.5083 0.074042 42.5138C0.074042 42.5194 0.074042 42.5249 0.074042 42.5304C0.074042 42.5359 0.074042 42.5414 0.074042 42.5469H3.07404C3.07404 42.5414 3.07404 42.5359 3.07404 42.5304C3.07404 42.5249 3.07404 42.5194 3.07404 42.5138C3.07404 42.5083 3.07404 42.5028 3.07404 42.4972C3.07404 42.4916 3.07404 42.486 3.07404 42.4804C3.07404 42.4749 3.07404 42.4693 3.07404 42.4636C3.07404 42.458 3.07404 42.4524 3.07404 42.4467C3.07404 42.4411 3.07404 42.4354 3.07404 42.4297C3.07404 42.4241 3.07404 42.4184 3.07404 42.4127C3.07404 42.407 3.07404 42.4013 3.07404 42.3955C3.07404 42.3898 3.07404 42.3841 3.07404 42.3783C3.07404 42.3725 3.07404 42.3668 3.07404 42.361C3.07404 42.3552 3.07404 42.3494 3.07404 42.3436C3.07404 42.3378 3.07404 42.332 3.07404 42.3261C3.07404 42.3203 3.07404 42.3144 3.07404 42.3086C3.07404 42.3027 3.07404 42.2968 3.07404 42.2909C3.07404 42.285 3.07404 42.2791 3.07404 42.2732C3.07404 42.2673 3.07404 42.2614 3.07404 42.2554C3.07404 42.2495 3.07404 42.2435 3.07404 42.2375C3.07404 42.2316 3.07404 42.2256 3.07404 42.2196C3.07404 42.2136 3.07404 42.2076 3.07404 42.2015C3.07404 42.1955 3.07404 42.1895 3.07404 42.1834C3.07404 42.1774 3.07404 42.1713 3.07404 42.1652C3.07404 42.1591 3.07404 42.153 3.07404 42.1469C3.07404 42.1408 3.07404 42.1347 3.07404 42.1286C3.07404 42.1224 3.07404 42.1163 3.07404 42.1101C3.07404 42.1039 3.07404 42.0978 3.07404 42.0916C3.07404 42.0854 3.07404 42.0792 3.07404 42.073C3.07404 42.0668 3.07404 42.0605 3.07404 42.0543C3.07404 42.048 3.07404 42.0418 3.07404 42.0355C3.07404 42.0292 3.07404 42.023 3.07404 42.0167C3.07404 42.0104 3.07404 42.0041 3.07404 41.9977C3.07404 41.9914 3.07404 41.9851 3.07404 41.9787C3.07404 41.9724 3.07404 41.966 3.07404 41.9596C3.07404 41.9533 3.07404 41.9469 3.07404 41.9405C3.07404 41.9341 3.07404 41.9277 3.07404 41.9212C3.07404 41.9148 3.07404 41.9084 3.07404 41.9019C3.07404 41.8954 3.07404 41.889 3.07404 41.8825C3.07404 41.876 3.07404 41.8695 3.07404 41.863C3.07404 41.8565 3.07404 41.85 3.07404 41.8434C3.07404 41.8369 3.07404 41.8304 3.07404 41.8238C3.07404 41.8172 3.07404 41.8107 3.07404 41.8041C3.07404 41.7975 3.07404 41.7909 3.07404 41.7843C3.07404 41.7777 3.07404 41.771 3.07404 41.7644C3.07404 41.7577 3.07404 41.7511 3.07404 41.7444C3.07404 41.7378 3.07404 41.7311 3.07404 41.7244C3.07404 41.7177 3.07404 41.711 3.07404 41.7043C3.07404 41.6975 3.07404 41.6908 3.07404 41.6841C3.07404 41.6773 3.07404 41.6706 3.07404 41.6638C3.07404 41.657 3.07404 41.6502 3.07404 41.6434C3.07404 41.6366 3.07404 41.6298 3.07404 41.623C3.07404 41.6162 3.07404 41.6093 3.07404 41.6025C3.07404 41.5956 3.07404 41.5888 3.07404 41.5819C3.07404 41.575 3.07404 41.5681 3.07404 41.5612C3.07404 41.5543 3.07404 41.5474 3.07404 41.5405C3.07404 41.5336 3.07404 41.5266 3.07404 41.5197C3.07404 41.5127 3.07404 41.5057 3.07404 41.4988C3.07404 41.4918 3.07404 41.4848 3.07404 41.4778C3.07404 41.4708 3.07404 41.4637 3.07404 41.4567C3.07404 41.4497 3.07404 41.4426 3.07404 41.4356C3.07404 41.4285 3.07404 41.4214 3.07404 41.4144C3.07404 41.4073 3.07404 41.4002 3.07404 41.3931C3.07404 41.386 3.07404 41.3788 3.07404 41.3717C3.07404 41.3646 3.07404 41.3574 3.07404 41.3503C3.07404 41.3431 3.07404 41.3359 3.07404 41.3287C3.07404 41.3215 3.07404 41.3143 3.07404 41.3071C3.07404 41.2999 3.07404 41.2927 3.07404 41.2854C3.07404 41.2782 3.07404 41.271 3.07404 41.2637C3.07404 41.2564 3.07404 41.2491 3.07404 41.2419C3.07404 41.2346 3.07404 41.2273 3.07404 41.2199C3.07404 41.2126 3.07404 41.2053 3.07404 41.198C3.07404 41.1906 3.07404 41.1833 3.07404 41.1759C3.07404 41.1685 3.07404 41.1611 3.07404 41.1538C3.07404 41.1464 3.07404 41.139 3.07404 41.1315C3.07404 41.1241 3.07404 41.1167 3.07404 41.1092C3.07404 41.1018 3.07404 41.0943 3.07404 41.0869C3.07404 41.0794 3.07404 41.0719 3.07404 41.0644C3.07404 41.0569 3.07404 41.0494 3.07404 41.0419C3.07404 41.0344 3.07404 41.0268 3.07404 41.0193C3.07404 41.0118 3.07404 41.0042 3.07404 40.9966C3.07404 40.9891 3.07404 40.9815 3.07404 40.9739C3.07404 40.9663 3.07404 40.9587 3.07404 40.951C3.07404 40.9434 3.07404 40.9358 3.07404 40.9281C3.07404 40.9205 3.07404 40.9128 3.07404 40.9052C3.07404 40.8975 3.07404 40.8898 3.07404 40.8821C3.07404 40.8744 3.07404 40.8667 3.07404 40.859C3.07404 40.8513 3.07404 40.8435 3.07404 40.8358C3.07404 40.828 3.07404 40.8203 3.07404 40.8125C3.07404 40.8047 3.07404 40.7969 3.07404 40.7891C3.07404 40.7813 3.07404 40.7735 3.07404 40.7657C3.07404 40.7579 3.07404 40.75 3.07404 40.7422C3.07404 40.7343 3.07404 40.7265 3.07404 40.7186C3.07404 40.7107 3.07404 40.7029 3.07404 40.695C3.07404 40.6871 3.07404 40.6791 3.07404 40.6712C3.07404 40.6633 3.07404 40.6554 3.07404 40.6474C3.07404 40.6395 3.07404 40.6315 3.07404 40.6235C3.07404 40.6156 3.07404 40.6076 3.07404 40.5996C3.07404 40.5916 3.07404 40.5836 3.07404 40.5755C3.07404 40.5675 3.07404 40.5595 3.07404 40.5514C3.07404 40.5434 3.07404 40.5353 3.07404 40.5273C3.07404 40.5192 3.07404 40.5111 3.07404 40.503C3.07404 40.4949 3.07404 40.4868 3.07404 40.4787C3.07404 40.4705 3.07404 40.4624 3.07404 40.4543C3.07404 40.4461 3.07404 40.438 3.07404 40.4298C3.07404 40.4216 3.07404 40.4134 3.07404 40.4052C3.07404 40.397 3.07404 40.3888 3.07404 40.3806C3.07404 40.3724 3.07404 40.3642 3.07404 40.3559C3.07404 40.3477 3.07404 40.3394 3.07404 40.3311C3.07404 40.3229 3.07404 40.3146 3.07404 40.3063C3.07404 40.298 3.07404 40.2897 3.07404 40.2814C3.07404 40.273 3.07404 40.2647 3.07404 40.2564C3.07404 40.248 3.07404 40.2397 3.07404 40.2313C3.07404 40.2229 3.07404 40.2146 3.07404 40.2062C3.07404 40.1978 3.07404 40.1894 3.07404 40.1809C3.07404 40.1725 3.07404 40.1641 3.07404 40.1557C3.07404 40.1472 3.07404 40.1388 3.07404 40.1303C3.07404 40.1218 3.07404 40.1134 3.07404 40.1049C3.07404 40.0964 3.07404 40.0879 3.07404 40.0794C3.07404 40.0708 3.07404 40.0623 3.07404 40.0538C3.07404 40.0452 3.07404 40.0367 3.07404 40.0281C3.07404 40.0196 3.07404 40.011 3.07404 40.0024C3.07404 39.9938 3.07404 39.9852 3.07404 39.9766C3.07404 39.968 3.07404 39.9594 3.07404 39.9507C3.07404 39.9421 3.07404 39.9334 3.07404 39.9248C3.07404 39.9161 3.07404 39.9074 3.07404 39.8988C3.07404 39.8901 3.07404 39.8814 3.07404 39.8727C3.07404 39.864 3.07404 39.8552 3.07404 39.8465C3.07404 39.8378 3.07404 39.829 3.07404 39.8203C3.07404 39.8115 3.07404 39.8027 3.07404 39.794C3.07404 39.7852 3.07404 39.7764 3.07404 39.7676C3.07404 39.7588 3.07404 39.75 3.07404 39.7411C3.07404 39.7323 3.07404 39.7235 3.07404 39.7146C3.07404 39.7058 3.07404 39.6969 3.07404 39.688C3.07404 39.6791 3.07404 39.6703 3.07404 39.6614C3.07404 39.6525 3.07404 39.6435 3.07404 39.6346C3.07404 39.6257 3.07404 39.6168 3.07404 39.6078C3.07404 39.5989 3.07404 39.5899 3.07404 39.5809C3.07404 39.572 3.07404 39.563 3.07404 39.554C3.07404 39.545 3.07404 39.536 3.07404 39.527C3.07404 39.5179 3.07404 39.5089 3.07404 39.4999C3.07404 39.4908 3.07404 39.4818 3.07404 39.4727C3.07404 39.4636 3.07404 39.4546 3.07404 39.4455C3.07404 39.4364 3.07404 39.4273 3.07404 39.4182C3.07404 39.409 3.07404 39.3999 3.07404 39.3908C3.07404 39.3816 3.07404 39.3725 3.07404 39.3633C3.07404 39.3542 3.07404 39.345 3.07404 39.3358C3.07404 39.3266 3.07404 39.3174 3.07404 39.3082C3.07404 39.299 3.07404 39.2898 3.07404 39.2806C3.07404 39.2713 3.07404 39.2621 3.07404 39.2528C3.07404 39.2436 3.07404 39.2343 3.07404 39.225C3.07404 39.2158 3.07404 39.2065 3.07404 39.1972C3.07404 39.1879 3.07404 39.1785 3.07404 39.1692C3.07404 39.1599 3.07404 39.1506 3.07404 39.1412C3.07404 39.1319 3.07404 39.1225 3.07404 39.1131C3.07404 39.1038 3.07404 39.0944 3.07404 39.085C3.07404 39.0756 3.07404 39.0662 3.07404 39.0567C3.07404 39.0473 3.07404 39.0379 3.07404 39.0285C3.07404 39.019 3.07404 39.0096 3.07404 39.0001C3.07404 38.9906 3.07404 38.9812 3.07404 38.9717C3.07404 38.9622 3.07404 38.9527 3.07404 38.9432C3.07404 38.9337 3.07404 38.9241 3.07404 38.9146C3.07404 38.9051 3.07404 38.8955 3.07404 38.886C3.07404 38.8764 3.07404 38.8668 3.07404 38.8572C3.07404 38.8477 3.07404 38.8381 3.07404 38.8285C3.07404 38.8189 3.07404 38.8092 3.07404 38.7996C3.07404 38.79 3.07404 38.7804 3.07404 38.7707C3.07404 38.7611 3.07404 38.7514 3.07404 38.7417C3.07404 38.732 3.07404 38.7224 3.07404 38.7127C3.07404 38.703 3.07404 38.6933 3.07404 38.6835C3.07404 38.6738 3.07404 38.6641 3.07404 38.6543C3.07404 38.6446 3.07404 38.6349 3.07404 38.6251C3.07404 38.6153 3.07404 38.6055 3.07404 38.5958C3.07404 38.586 3.07404 38.5762 3.07404 38.5664C3.07404 38.5565 3.07404 38.5467 3.07404 38.5369C3.07404 38.5271 3.07404 38.5172 3.07404 38.5074C3.07404 38.4975 3.07404 38.4876 3.07404 38.4778C3.07404 38.4679 3.07404 38.458 3.07404 38.4481C3.07404 38.4382 3.07404 38.4283 3.07404 38.4183C3.07404 38.4084 3.07404 38.3985 3.07404 38.3885C3.07404 38.3786 3.07404 38.3686 3.07404 38.3587C3.07404 38.3487 3.07404 38.3387 3.07404 38.3287C3.07404 38.3187 3.07404 38.3087 3.07404 38.2987C3.07404 38.2887 3.07404 38.2787 3.07404 38.2686C3.07404 38.2586 3.07404 38.2485 3.07404 38.2385C3.07404 38.2284 3.07404 38.2184 3.07404 38.2083C3.07404 38.1982 3.07404 38.1881 3.07404 38.178C3.07404 38.1679 3.07404 38.1578 3.07404 38.1476C3.07404 38.1375 3.07404 38.1274 3.07404 38.1172C3.07404 38.1071 3.07404 38.0969 3.07404 38.0867C3.07404 38.0766 3.07404 38.0664 3.07404 38.0562C3.07404 38.046 3.07404 38.0358 3.07404 38.0256C3.07404 38.0154 3.07404 38.0051 3.07404 37.9949C3.07404 37.9847 3.07404 37.9744 3.07404 37.9641C3.07404 37.9539 3.07404 37.9436 3.07404 37.9333C3.07404 37.923 3.07404 37.9127 3.07404 37.9024C3.07404 37.8921 3.07404 37.8818 3.07404 37.8715C3.07404 37.8612 3.07404 37.8508 3.07404 37.8405C3.07404 37.8301 3.07404 37.8198 3.07404 37.8094C3.07404 37.799 3.07404 37.7886 3.07404 37.7782C3.07404 37.7678 3.07404 37.7574 3.07404 37.747C3.07404 37.7366 3.07404 37.7262 3.07404 37.7157C3.07404 37.7053 3.07404 37.6949 3.07404 37.6844C3.07404 37.6739 3.07404 37.6635 3.07404 37.653C3.07404 37.6425 3.07404 37.632 3.07404 37.6215C3.07404 37.611 3.07404 37.6005 3.07404 37.5899C3.07404 37.5794 3.07404 37.5689 3.07404 37.5583C3.07404 37.5478 3.07404 37.5372 3.07404 37.5267C3.07404 37.5161 3.07404 37.5055 3.07404 37.4949C3.07404 37.4843 3.07404 37.4737 3.07404 37.4631C3.07404 37.4525 3.07404 37.4419 3.07404 37.4312C3.07404 37.4206 3.07404 37.4099 3.07404 37.3993C3.07404 37.3886 3.07404 37.378 3.07404 37.3673C3.07404 37.3566 3.07404 37.3459 3.07404 37.3352C3.07404 37.3245 3.07404 37.3138 3.07404 37.3031C3.07404 37.2924 3.07404 37.2816 3.07404 37.2709C3.07404 37.2601 3.07404 37.2494 3.07404 37.2386C3.07404 37.2278 3.07404 37.2171 3.07404 37.2063C3.07404 37.1955 3.07404 37.1847 3.07404 37.1739C3.07404 37.1631 3.07404 37.1523 3.07404 37.1414C3.07404 37.1306 3.07404 37.1198 3.07404 37.1089C3.07404 37.098 3.07404 37.0872 3.07404 37.0763C3.07404 37.0654 3.07404 37.0546 3.07404 37.0437C3.07404 37.0328 3.07404 37.0219 3.07404 37.0109C3.07404 37 3.07404 36.9891 3.07404 36.9782C3.07404 36.9672 3.07404 36.9563 3.07404 36.9453C3.07404 36.9343 3.07404 36.9234 3.07404 36.9124C3.07404 36.9014 3.07404 36.8904 3.07404 36.8794C3.07404 36.8684 3.07404 36.8574 3.07404 36.8464C3.07404 36.8354 3.07404 36.8243 3.07404 36.8133C3.07404 36.8022 3.07404 36.7912 3.07404 36.7801C3.07404 36.769 3.07404 36.758 3.07404 36.7469C3.07404 36.7358 3.07404 36.7247 3.07404 36.7136C3.07404 36.7025 3.07404 36.6914 3.07404 36.6802C3.07404 36.6691 3.07404 36.658 3.07404 36.6468C3.07404 36.6357 3.07404 36.6245 3.07404 36.6133C3.07404 36.6021 3.07404 36.591 3.07404 36.5798C3.07404 36.5686 3.07404 36.5574 3.07404 36.5462C3.07404 36.5349 3.07404 36.5237 3.07404 36.5125C3.07404 36.5012 3.07404 36.49 3.07404 36.4787C3.07404 36.4675 3.07404 36.4562 3.07404 36.4449C3.07404 36.4337 3.07404 36.4224 3.07404 36.4111C3.07404 36.3998 3.07404 36.3885 3.07404 36.3772C3.07404 36.3658 3.07404 36.3545 3.07404 36.3432C3.07404 36.3318 3.07404 36.3205 3.07404 36.3091C3.07404 36.2978 3.07404 36.2864 3.07404 36.275C3.07404 36.2636 3.07404 36.2522 3.07404 36.2408C3.07404 36.2294 3.07404 36.218 3.07404 36.2066C3.07404 36.1952 3.07404 36.1837 3.07404 36.1723C3.07404 36.1608 3.07404 36.1494 3.07404 36.1379C3.07404 36.1265 3.07404 36.115 3.07404 36.1035C3.07404 36.092 3.07404 36.0805 3.07404 36.069C3.07404 36.0575 3.07404 36.046 3.07404 36.0345C3.07404 36.0229 3.07404 36.0114 3.07404 35.9998C3.07404 35.9883 3.07404 35.9767 3.07404 35.9652C3.07404 35.9536 3.07404 35.942 3.07404 35.9304C3.07404 35.9188 3.07404 35.9072 3.07404 35.8956C3.07404 35.884 3.07404 35.8724 3.07404 35.8608C3.07404 35.8491 3.07404 35.8375 3.07404 35.8259C3.07404 35.8142 3.07404 35.8025 3.07404 35.7909C3.07404 35.7792 3.07404 35.7675 3.07404 35.7558C3.07404 35.7441 3.07404 35.7324 3.07404 35.7207C3.07404 35.709 3.07404 35.6973 3.07404 35.6856C3.07404 35.6738 3.07404 35.6621 3.07404 35.6503C3.07404 35.6386 3.07404 35.6268 3.07404 35.615C3.07404 35.6033 3.07404 35.5915 3.07404 35.5797C3.07404 35.5679 3.07404 35.5561 3.07404 35.5443C3.07404 35.5325 3.07404 35.5206 3.07404 35.5088C3.07404 35.497 3.07404 35.4851 3.07404 35.4733C3.07404 35.4614 3.07404 35.4496 3.07404 35.4377C3.07404 35.4258 3.07404 35.4139 3.07404 35.402C3.07404 35.3901 3.07404 35.3782 3.07404 35.3663C3.07404 35.3544 3.07404 35.3425 3.07404 35.3305C3.07404 35.3186 3.07404 35.3067 3.07404 35.2947C3.07404 35.2828 3.07404 35.2708 3.07404 35.2588C3.07404 35.2468 3.07404 35.2349 3.07404 35.2229C3.07404 35.2109 3.07404 35.1989 3.07404 35.1868C3.07404 35.1748 3.07404 35.1628 3.07404 35.1508C3.07404 35.1387 3.07404 35.1267 3.07404 35.1146C3.07404 35.1026 3.07404 35.0905 3.07404 35.0784C3.07404 35.0664 3.07404 35.0543 3.07404 35.0422C3.07404 35.0301 3.07404 35.018 3.07404 35.0059C3.07404 34.9938 3.07404 34.9816 3.07404 34.9695C3.07404 34.9574 3.07404 34.9452 3.07404 34.9331C3.07404 34.9209 3.07404 34.9088 3.07404 34.8966C3.07404 34.8844 3.07404 34.8722 3.07404 34.86C3.07404 34.8478 3.07404 34.8356 3.07404 34.8234C3.07404 34.8112 3.07404 34.799 3.07404 34.7867C3.07404 34.7745 3.07404 34.7623 3.07404 34.75C3.07404 34.7378 3.07404 34.7255 3.07404 34.7132C3.07404 34.701 3.07404 34.6887 3.07404 34.6764C3.07404 34.6641 3.07404 34.6518 3.07404 34.6395C3.07404 34.6272 3.07404 34.6148 3.07404 34.6025C3.07404 34.5902 3.07404 34.5778 3.07404 34.5655C3.07404 34.5531 3.07404 34.5408 3.07404 34.5284C3.07404 34.516 3.07404 34.5037 3.07404 34.4913C3.07404 34.4789 3.07404 34.4665 3.07404 34.4541C3.07404 34.4417 3.07404 34.4292 3.07404 34.4168C3.07404 34.4044 3.07404 34.3919 3.07404 34.3795C3.07404 34.3671 3.07404 34.3546 3.07404 34.3421C3.07404 34.3297 3.07404 34.3172 3.07404 34.3047C3.07404 34.2922 3.07404 34.2797 3.07404 34.2672C3.07404 34.2547 3.07404 34.2422 3.07404 34.2297C3.07404 34.2171 3.07404 34.2046 3.07404 34.1921C3.07404 34.1795 3.07404 34.167 3.07404 34.1544C3.07404 34.1418 3.07404 34.1293 3.07404 34.1167C3.07404 34.1041 3.07404 34.0915 3.07404 34.0789C3.07404 34.0663 3.07404 34.0537 3.07404 34.0411C3.07404 34.0284 3.07404 34.0158 3.07404 34.0032C3.07404 33.9905 3.07404 33.9779 3.07404 33.9652C3.07404 33.9526 3.07404 33.9399 3.07404 33.9272C3.07404 33.9145 3.07404 33.9018 3.07404 33.8891C3.07404 33.8764 3.07404 33.8637 3.07404 33.851C3.07404 33.8383 3.07404 33.8256 3.07404 33.8128C3.07404 33.8001 3.07404 33.7874 3.07404 33.7746C3.07404 33.7619 3.07404 33.7491 3.07404 33.7363C3.07404 33.7235 3.07404 33.7108 3.07404 33.698C3.07404 33.6852 3.07404 33.6724 3.07404 33.6596C3.07404 33.6467 3.07404 33.6339 3.07404 33.6211C3.07404 33.6083 3.07404 33.5954 3.07404 33.5826C3.07404 33.5697 3.07404 33.5569 3.07404 33.544C3.07404 33.5311 3.07404 33.5183 3.07404 33.5054C3.07404 33.4925 3.07404 33.4796 3.07404 33.4667C3.07404 33.4538 3.07404 33.4409 3.07404 33.4279C3.07404 33.415 3.07404 33.4021 3.07404 33.3891C3.07404 33.3762 3.07404 33.3632 3.07404 33.3503C3.07404 33.3373 3.07404 33.3243 3.07404 33.3114C3.07404 33.2984 3.07404 33.2854 3.07404 33.2724C3.07404 33.2594 3.07404 33.2464 3.07404 33.2334C3.07404 33.2204 3.07404 33.2073 3.07404 33.1943C3.07404 33.1813 3.07404 33.1682 3.07404 33.1552C3.07404 33.1421 3.07404 33.129 3.07404 33.116C3.07404 33.1029 3.07404 33.0898 3.07404 33.0767C3.07404 33.0636 3.07404 33.0505 3.07404 33.0374C3.07404 33.0243 3.07404 33.0112 3.07404 32.9981C3.07404 32.9849 3.07404 32.9718 3.07404 32.9586C3.07404 32.9455 3.07404 32.9323 3.07404 32.9192C3.07404 32.906 3.07404 32.8928 3.07404 32.8797C3.07404 32.8665 3.07404 32.8533 3.07404 32.8401C3.07404 32.8269 3.07404 32.8137 3.07404 32.8004C3.07404 32.7872 3.07404 32.774 3.07404 32.7608C3.07404 32.7475 3.07404 32.7343 3.07404 32.721C3.07404 32.7078 3.07404 32.6945 3.07404 32.6812C3.07404 32.6679 3.07404 32.6547 3.07404 32.6414C3.07404 32.6281 3.07404 32.6148 3.07404 32.6015C3.07404 32.5882 3.07404 32.5748 3.07404 32.5615C3.07404 32.5482 3.07404 32.5348 3.07404 32.5215C3.07404 32.5081 3.07404 32.4948 3.07404 32.4814C3.07404 32.4681 3.07404 32.4547 3.07404 32.4413C3.07404 32.4279 3.07404 32.4145 3.07404 32.4011C3.07404 32.3877 3.07404 32.3743 3.07404 32.3609C3.07404 32.3475 3.07404 32.334 3.07404 32.3206C3.07404 32.3072 3.07404 32.2937 3.07404 32.2803C3.07404 32.2668 3.07404 32.2534 3.07404 32.2399C3.07404 32.2264 3.07404 32.2129 3.07404 32.1994C3.07404 32.1859 3.07404 32.1724 3.07404 32.1589C3.07404 32.1454 3.07404 32.1319 3.07404 32.1184C3.07404 32.1049 3.07404 32.0913 3.07404 32.0778C3.07404 32.0642 3.07404 32.0507 3.07404 32.0371C3.07404 32.0236 3.07404 32.01 3.07404 31.9964C3.07404 31.9828 3.07404 31.9692 3.07404 31.9556C3.07404 31.942 3.07404 31.9284 3.07404 31.9148C3.07404 31.9012 3.07404 31.8876 3.07404 31.8739C3.07404 31.8603 3.07404 31.8467 3.07404 31.833C3.07404 31.8194 3.07404 31.8057 3.07404 31.792C3.07404 31.7784 3.07404 31.7647 3.07404 31.751C3.07404 31.7373 3.07404 31.7236 3.07404 31.7099C3.07404 31.6962 3.07404 31.6825 3.07404 31.6688C3.07404 31.6551 3.07404 31.6413 3.07404 31.6276C3.07404 31.6139 3.07404 31.6001 3.07404 31.5864C3.07404 31.5726 3.07404 31.5588 3.07404 31.5451C3.07404 31.5313 3.07404 31.5175 3.07404 31.5037C3.07404 31.4899 3.07404 31.4761 3.07404 31.4623C3.07404 31.4485 3.07404 31.4347 3.07404 31.4209C3.07404 31.4071 3.07404 31.3932 3.07404 31.3794C3.07404 31.3655 3.07404 31.3517 3.07404 31.3378C3.07404 31.324 3.07404 31.3101 3.07404 31.2962C3.07404 31.2823 3.07404 31.2685 3.07404 31.2546C3.07404 31.2407 3.07404 31.2268 3.07404 31.2129C3.07404 31.1989 3.07404 31.185 3.07404 31.1711C3.07404 31.1572 3.07404 31.1432 3.07404 31.1293C3.07404 31.1153 3.07404 31.1014 3.07404 31.0874C3.07404 31.0735 3.07404 31.0595 3.07404 31.0455C3.07404 31.0315 3.07404 31.0175 3.07404 31.0035C3.07404 30.9895 3.07404 30.9755 3.07404 30.9615C3.07404 30.9475 3.07404 30.9335 3.07404 30.9194C3.07404 30.9054 3.07404 30.8914 3.07404 30.8773C3.07404 30.8633 3.07404 30.8492 3.07404 30.8352C3.07404 30.8211 3.07404 30.807 3.07404 30.7929C3.07404 30.7789 3.07404 30.7648 3.07404 30.7507C3.07404 30.7366 3.07404 30.7225 3.07404 30.7083C3.07404 30.6942 3.07404 30.6801 3.07404 30.666C3.07404 30.6518 3.07404 30.6377 3.07404 30.6235C3.07404 30.6094 3.07404 30.5952 3.07404 30.5811C3.07404 30.5669 3.07404 30.5527 3.07404 30.5385C3.07404 30.5244 3.07404 30.5102 3.07404 30.496C3.07404 30.4818 3.07404 30.4676 3.07404 30.4533C3.07404 30.4391 3.07404 30.4249 3.07404 30.4107C3.07404 30.3964 3.07404 30.3822 3.07404 30.3679C3.07404 30.3537 3.07404 30.3394 3.07404 30.3252C3.07404 30.3109 3.07404 30.2966 3.07404 30.2823C3.07404 30.2681 3.07404 30.2538 3.07404 30.2395C3.07404 30.2252 3.07404 30.2109 3.07404 30.1965C3.07404 30.1822 3.07404 30.1679 3.07404 30.1536C3.07404 30.1392 3.07404 30.1249 3.07404 30.1106C3.07404 30.0962 3.07404 30.0818 3.07404 30.0675C3.07404 30.0531 3.07404 30.0387 3.07404 30.0244C3.07404 30.01 3.07404 29.9956 3.07404 29.9812C3.07404 29.9668 3.07404 29.9524 3.07404 29.938C3.07404 29.9235 3.07404 29.9091 3.07404 29.8947C3.07404 29.8803 3.07404 29.8658 3.07404 29.8514C3.07404 29.8369 3.07404 29.8225 3.07404 29.808C3.07404 29.7935 3.07404 29.7791 3.07404 29.7646C3.07404 29.7501 3.07404 29.7356 3.07404 29.7211C3.07404 29.7066 3.07404 29.6921 3.07404 29.6776C3.07404 29.6631 3.07404 29.6486 3.07404 29.634C3.07404 29.6195 3.07404 29.605 3.07404 29.5904C3.07404 29.5759 3.07404 29.5613 3.07404 29.5468C3.07404 29.5322 3.07404 29.5176 3.07404 29.5031C3.07404 29.4885 3.07404 29.4739 3.07404 29.4593C3.07404 29.4447 3.07404 29.4301 3.07404 29.4155C3.07404 29.4009 3.07404 29.3863 3.07404 29.3716C3.07404 29.357 3.07404 29.3424 3.07404 29.3277C3.07404 29.3131 3.07404 29.2985 3.07404 29.2838C3.07404 29.2691 3.07404 29.2545 3.07404 29.2398C3.07404 29.2251 3.07404 29.2104 3.07404 29.1958C3.07404 29.1811 3.07404 29.1664 3.07404 29.1517C3.07404 29.137 3.07404 29.1222 3.07404 29.1075C3.07404 29.0928 3.07404 29.0781 3.07404 29.0633C3.07404 29.0486 3.07404 29.0338 3.07404 29.0191C3.07404 29.0043 3.07404 28.9896 3.07404 28.9748C3.07404 28.96 3.07404 28.9453 3.07404 28.9305C3.07404 28.9157 3.07404 28.9009 3.07404 28.8861C3.07404 28.8713 3.07404 28.8565 3.07404 28.8417C3.07404 28.8269 3.07404 28.812 3.07404 28.7972C3.07404 28.7824 3.07404 28.7675 3.07404 28.7527C3.07404 28.7378 3.07404 28.723 3.07404 28.7081C3.07404 28.6933 3.07404 28.6784 3.07404 28.6635C3.07404 28.6486 3.07404 28.6337 3.07404 28.6189C3.07404 28.604 3.07404 28.5891 3.07404 28.5741C3.07404 28.5592 3.07404 28.5443 3.07404 28.5294C3.07404 28.5145 3.07404 28.4995 3.07404 28.4846C3.07404 28.4697 3.07404 28.4547 3.07404 28.4397C3.07404 28.4248 3.07404 28.4098 3.07404 28.3949C3.07404 28.3799 3.07404 28.3649 3.07404 28.3499C3.07404 28.3349 3.07404 28.3199 3.07404 28.3049C3.07404 28.2899 3.07404 28.2749 3.07404 28.2599C3.07404 28.2449 3.07404 28.2299 3.07404 28.2148C3.07404 28.1998 3.07404 28.1848 3.07404 28.1697C3.07404 28.1547 3.07404 28.1396 3.07404 28.1245C3.07404 28.1095 3.07404 28.0944 3.07404 28.0793C3.07404 28.0642 3.07404 28.0492 3.07404 28.0341C3.07404 28.019 3.07404 28.0039 3.07404 27.9888C3.07404 27.9736 3.07404 27.9585 3.07404 27.9434C3.07404 27.9283 3.07404 27.9131 3.07404 27.898C3.07404 27.8829 3.07404 27.8677 3.07404 27.8526C3.07404 27.8374 3.07404 27.8222 3.07404 27.8071C3.07404 27.7919 3.07404 27.7767 3.07404 27.7615C3.07404 27.7464 3.07404 27.7312 3.07404 27.716C3.07404 27.7008 3.07404 27.6856 3.07404 27.6703C3.07404 27.6551 3.07404 27.6399 3.07404 27.6247C3.07404 27.6094 3.07404 27.5942 3.07404 27.579C3.07404 27.5637 3.07404 27.5485 3.07404 27.5332C3.07404 27.518 3.07404 27.5027 3.07404 27.4874C3.07404 27.4721 3.07404 27.4569 3.07404 27.4416C3.07404 27.4263 3.07404 27.411 3.07404 27.3957C3.07404 27.3804 3.07404 27.3651 3.07404 27.3497C3.07404 27.3344 3.07404 27.3191 3.07404 27.3038C3.07404 27.2884 3.07404 27.2731 3.07404 27.2577C3.07404 27.2424 3.07404 27.227 3.07404 27.2117C3.07404 27.1963 3.07404 27.1809 3.07404 27.1656C3.07404 27.1502 3.07404 27.1348 3.07404 27.1194C3.07404 27.104 3.07404 27.0886 3.07404 27.0732C3.07404 27.0578 3.07404 27.0424 3.07404 27.027C3.07404 27.0115 3.07404 26.9961 3.07404 26.9807C3.07404 26.9652 3.07404 26.9498 3.07404 26.9343C3.07404 26.9189 3.07404 26.9034 3.07404 26.888C3.07404 26.8725 3.07404 26.857 3.07404 26.8415C3.07404 26.8261 3.07404 26.8106 3.07404 26.7951C3.07404 26.7796 3.07404 26.7641 3.07404 26.7486C3.07404 26.7331 3.07404 26.7175 3.07404 26.702C3.07404 26.6865 3.07404 26.671 3.07404 26.6554C3.07404 26.6399 3.07404 26.6243 3.07404 26.6088C3.07404 26.5932 3.07404 26.5777 3.07404 26.5621C3.07404 26.5465 3.07404 26.531 3.07404 26.5154C3.07404 26.4998 3.07404 26.4842 3.07404 26.4686C3.07404 26.453 3.07404 26.4374 3.07404 26.4218C3.07404 26.4062 3.07404 26.3906 3.07404 26.375C3.07404 26.3593 3.07404 26.3437 3.07404 26.3281C3.07404 26.3124 3.07404 26.2968 3.07404 26.2811C3.07404 26.2655 3.07404 26.2498 3.07404 26.2342C3.07404 26.2185 3.07404 26.2028 3.07404 26.1871C3.07404 26.1715 3.07404 26.1558 3.07404 26.1401C3.07404 26.1244 3.07404 26.1087 3.07404 26.093C3.07404 26.0773 3.07404 26.0616 3.07404 26.0458C3.07404 26.0301 3.07404 26.0144 3.07404 25.9986C3.07404 25.9829 3.07404 25.9672 3.07404 25.9514C3.07404 25.9357 3.07404 25.9199 3.07404 25.9041C3.07404 25.8884 3.07404 25.8726 3.07404 25.8568C3.07404 25.841 3.07404 25.8253 3.07404 25.8095C3.07404 25.7937 3.07404 25.7779 3.07404 25.7621C3.07404 25.7463 3.07404 25.7304 3.07404 25.7146C3.07404 25.6988 3.07404 25.683 3.07404 25.6671C3.07404 25.6513 3.07404 25.6355 3.07404 25.6196C3.07404 25.6038 3.07404 25.5879 3.07404 25.5721C3.07404 25.5562 3.07404 25.5403 3.07404 25.5245C3.07404 25.5086 3.07404 25.4927 3.07404 25.4768C3.07404 25.4609 3.07404 25.445 3.07404 25.4291C3.07404 25.4132 3.07404 25.3973 3.07404 25.3814C3.07404 25.3655 3.07404 25.3496 3.07404 25.3336C3.07404 25.3177 3.07404 25.3018 3.07404 25.2858C3.07404 25.2699 3.07404 25.2539 3.07404 25.238C3.07404 25.222 3.07404 25.206 3.07404 25.1901C3.07404 25.1741 3.07404 25.1581 3.07404 25.1421H0.074042ZM0.074042 42.5469C0.074042 45.6627 0.675332 48.0685 1.88195 50.0443C3.08012 52.0063 4.79013 53.4022 6.74205 54.6392C8.64193 55.8433 11.005 57.0302 13.4135 58.3892C15.8807 59.7812 18.5888 61.4528 21.4664 63.7694L23.3476 61.4325C20.2979 58.9774 17.4381 57.2153 14.8877 55.7764C12.2787 54.3043 10.1744 53.2628 8.34793 52.1052C6.57345 50.9807 5.29799 49.882 4.44228 48.4808C3.59503 47.0934 3.07404 45.2673 3.07404 42.5469H0.074042ZM0.074042 42.5469C0.074042 48.3739 0.328756 53.1353 1.6332 57.3745C2.95582 61.6727 5.32555 65.3415 9.38278 69.0762L11.4146 66.869C7.68648 63.4373 5.6439 60.2079 4.50053 56.4922C3.33899 52.7174 3.07404 48.3492 3.07404 42.5469H0.074042ZM9.38278 69.0762C11.6761 71.1872 13.6493 73.0113 15.0624 74.7469C16.4815 76.49 17.1488 77.9251 17.1488 79.2358H20.1488C20.1488 76.8906 18.9602 74.7829 17.3889 72.8528C15.8114 70.9153 13.6597 68.9356 11.4146 66.869L9.38278 69.0762ZM24.3572 13.5106C26.365 20.0179 26.2608 19.94 28.1349 24.0765L30.8675 22.8384C29.0791 18.8911 29.2306 19.1301 27.2239 12.6261L24.3572 13.5106ZM28.1349 24.0765C29.443 26.9636 32.4412 28.347 35.0515 27.2627C37.7485 26.1424 39.0052 22.8871 38.067 18.5343L35.1343 19.1665C35.9262 22.8405 34.6683 24.1734 33.9007 24.4923C33.0463 24.8472 31.6297 24.5207 30.8675 22.8384L28.1349 24.0765ZM37.3885 20.1268C40.7508 18.0515 41.9632 14.7958 41.4192 12.1267C41.1513 10.812 40.435 9.59118 39.2741 8.86139C38.0744 8.10724 36.5905 7.9988 35.0897 8.59052L36.1901 11.3814C36.9112 11.0971 37.3793 11.2138 37.6775 11.4012C38.0144 11.613 38.342 12.0504 38.4796 12.7258C38.7468 14.037 38.2176 16.0896 35.8128 17.574L37.3885 20.1268ZM35.0897 8.59052C31.1347 10.1499 30.1929 10.4845 29.5336 10.6462C28.9903 10.7794 28.1499 10.8632 25.3925 11.6221L26.1886 14.5145C29.0508 13.7268 29.2261 13.8105 30.2482 13.5598C31.1543 13.3376 32.3274 12.9044 36.1901 11.3814L35.0897 8.59052ZM20.3168 35.1213C21.7798 36.1993 24.1686 37.348 26.3469 38.3595C28.6325 39.4209 30.6978 40.3374 31.8214 41.0211L33.3809 38.4583C32.0683 37.6595 29.7541 36.634 27.6104 35.6386C25.3594 34.5932 23.269 33.5702 22.0964 32.7062L20.3168 35.1213ZM31.8213 41.0211C32.9598 41.7139 33.2971 42.3642 33.3757 42.7661C33.4531 43.1618 33.3406 43.622 32.936 44.0889C32.0821 45.0745 30.2373 45.6823 28.4837 44.8583L27.2078 47.5734C30.2092 48.9838 33.4929 48.0275 35.2034 46.0534C36.081 45.0404 36.6097 43.6719 36.3199 42.1903C36.0314 40.7149 34.9933 39.4395 33.3809 38.4583L31.8213 41.0211ZM26.4241 45.7373C26.0637 46.808 25.1869 48.2905 24.2132 49.1159C23.7318 49.524 23.3758 49.6457 23.1651 49.6538C23.0359 49.6588 22.7632 49.6363 22.3457 49.149L20.0676 51.101C20.9523 52.1335 22.0541 52.6989 23.2806 52.6516C24.4258 52.6075 25.4068 52.0369 26.1531 51.4044C27.6346 50.1485 28.7751 48.1566 29.2673 46.6944L26.4241 45.7373ZM22.3457 49.149C21.9601 48.699 21.6271 47.8887 21.4376 46.6624C21.2529 45.4668 21.2289 44.0391 21.3203 42.5211C21.5029 39.4866 22.1332 36.2933 22.6575 34.2943L19.7557 33.5332C19.1948 35.6714 18.5229 39.0639 18.3257 42.3409C18.2271 43.9786 18.2438 45.6379 18.4728 47.1205C18.6971 48.5723 19.1509 50.0312 20.0676 51.101L22.3457 49.149ZM21.1216 63.3741C21.8156 64.5278 23.2073 66.3442 24.5433 68.1582C25.9307 70.0418 27.3126 71.9912 28.1584 73.5831L30.8077 72.1755C29.8442 70.3621 28.3341 68.2463 26.9588 66.3791C25.5322 64.4422 24.2905 62.8221 23.6924 61.8278L21.1216 63.3741ZM28.1584 73.5831C29.136 75.4231 30.4675 76.6476 31.9967 77.1752C33.5336 77.7054 35.1042 77.4704 36.384 76.6966C38.9549 75.1421 40.185 71.6053 38.6822 67.8528L35.8972 68.9681C36.9404 71.5731 35.9561 73.4495 34.8317 74.1295C34.2637 74.4729 33.6165 74.5605 32.9751 74.3392C32.3261 74.1153 31.519 73.5143 30.8077 72.1755L28.1584 73.5831ZM37.8521 69.801C41.2609 68.4226 43.0721 65.5336 42.9978 62.8949C42.9606 61.5696 42.4288 60.2526 41.2884 59.3928C40.1407 58.5275 38.6189 58.3059 36.96 58.6798L37.6195 61.6064C38.6581 61.3723 39.2136 61.5856 39.4823 61.7882C39.7584 61.9963 39.9822 62.3803 39.999 62.9792C40.0331 64.1889 39.1467 66.0415 36.7274 67.0198L37.8521 69.801ZM36.96 58.6798C31.5851 59.8911 27.1495 60.752 22.2982 61.1049L22.5158 64.097C27.5944 63.7276 32.2043 62.8267 37.6195 61.6064L36.96 58.6798ZM17.4058 80.0754C19.0908 82.5696 20.7077 83.6511 22.3949 84.5808C24.0114 85.4715 25.5257 86.1531 27.4678 87.9159L29.4841 85.6946C27.2204 83.6398 25.3326 82.7741 23.8427 81.9532C22.4236 81.1713 21.2298 80.3768 19.8918 78.3961L17.4058 80.0754ZM27.4678 87.9159C27.781 88.2003 28.1219 88.7918 28.2937 89.5972C28.4622 90.3871 28.4246 91.1879 28.199 91.795C27.9886 92.3613 27.6382 92.7263 27.0961 92.8912C26.4925 93.0748 25.4101 93.0821 23.6435 92.3471L22.491 95.1169C24.6049 95.9965 26.4464 96.2246 27.9692 95.7613C29.5535 95.2794 30.5318 94.1298 31.0111 92.84C31.4752 91.5911 31.4885 90.1943 31.2277 88.9714C30.9702 87.764 30.4017 86.5274 29.4841 85.6946L27.4678 87.9159ZM21.7637 92.9897C20.5203 95.1734 18.8064 95.4936 17.7003 95.1826C17.1077 95.016 16.6733 94.6743 16.4426 94.295C16.2299 93.9456 16.1386 93.4873 16.3498 92.8954L13.5243 91.8871C13.0141 93.3167 13.1893 94.7198 13.8797 95.8544C14.552 96.9593 15.657 97.7245 16.8884 98.0707C19.4302 98.7852 22.5029 97.7543 24.3707 94.4742L21.7637 92.9897ZM16.3498 92.8954C18.1924 87.7325 19.0509 85.3411 19.4853 83.7693C19.9441 82.1094 19.9549 81.2532 20.1414 79.3847L17.1562 79.0868C16.9551 81.1023 16.9659 81.6235 16.5937 82.9701C16.1972 84.405 15.3937 86.6493 13.5243 91.8871L16.3498 92.8954Z" fill="white"/>
</svg>
