<svg width="119" height="127" viewBox="0 0 119 127" fill="none" xmlns="http://www.w3.org/2000/svg">
<path d="M62.508 81.531C62.5102 81.5335 62.5125 81.5359 62.5148 81.5383M62.508 81.531C62.0259 81.6286 61.539 81.7048 61.0488 81.7589M62.508 81.531L62.5148 81.5383M55.8103 45.6685C54.7333 45.9032 53.6929 46.2436 52.6992 46.6791C52.062 46.9583 51.4441 47.2765 50.848 47.631M49.8235 48.2908C50.1571 48.0588 50.4988 47.8387 50.848 47.631M44.879 53.5269C44.2744 54.4974 43.7665 55.5154 43.3551 56.5656C42.9369 57.6336 42.6186 58.7349 42.4001 59.8536M55.8071 81.4464C54.7302 81.2118 53.6899 80.8715 52.6962 80.4362C51.6858 79.9936 50.7237 79.4527 49.8207 78.8249M73.8113 73.596C74.4159 72.6254 74.9238 71.6074 75.3351 70.5572C75.7534 69.4892 76.0717 68.3879 76.2902 67.2692M42.3983 67.3085C42.5419 68.0446 42.7274 68.7645 42.952 69.4653M44.8795 73.6336C44.2852 72.6794 43.7733 71.6629 43.3544 70.5954C43.2089 70.2247 43.0746 69.8479 42.952 69.4653M73.7759 53.5191C74.3804 54.4896 74.8882 55.5075 75.2994 56.5577C75.7175 57.6256 76.0357 58.7268 76.2541 59.8456M68.8207 78.8579C68.4831 79.0926 68.1395 79.3136 67.7905 79.5208M62.8327 81.477C63.8915 81.2462 64.9339 80.9098 65.9447 80.4679C66.5734 80.193 67.1898 79.8773 67.7905 79.5208M51.263 21.0287C46.5991 15.7855 40.3233 9.50905 37.5941 8.14447C36.5561 11.2012 36.2774 20.307 36.4902 27.4461M51.263 21.0287C53.6523 14.3341 57.2264 5.98132 59.3001 3.56799C61.3332 5.93932 64.8727 14.3185 67.2829 21.059M51.263 21.0287C50.106 24.2704 49.2268 27.1234 48.9303 28.7248C47.6742 34.7924 53.1582 42.5064 56.0572 45.605C57.119 45.39 58.2038 45.2791 59.2977 45.2786C60.1008 45.2782 60.9088 45.3373 61.7161 45.4582M67.2829 21.059C71.9181 15.8318 78.2709 9.53057 81.0679 8.13568C82.0842 11.1396 82.3208 20.2664 82.1094 27.4586M67.2829 21.059C68.4247 24.2524 69.3131 27.078 69.6678 28.7226C70.9239 34.7878 65.4415 42.4992 62.5406 45.5999M82.1094 27.4586C88.2789 24.5095 96.3951 21.2731 99.4761 21.1156C99.3262 24.3192 96.2065 32.9224 93.3943 39.4959M82.1094 27.4586C79.1213 28.887 76.5899 30.2479 75.3085 31.159C70.3596 34.5115 69.0743 44.064 69.0503 48.4212C69.9449 49.0624 70.7861 49.7945 71.5598 50.6113C72.3207 51.4146 73.0164 52.2999 73.6336 53.2613C77.7579 53.2367 86.7996 51.88 89.9717 46.6506C90.8173 45.2298 92.0718 42.5873 93.3943 39.4959M93.3943 39.4959C100.215 39.2674 108.917 39.5148 111.773 40.5934C110.458 43.5364 104.538 50.2052 99.6029 55.0972M99.6029 55.0972C105.978 57.6435 113.892 61.3765 116.133 63.522C113.852 65.7105 105.962 69.4808 99.6291 72.0052M99.6029 55.0972C96.5706 53.8861 93.8863 52.9435 92.3257 52.5678C86.5834 51.2402 79.2821 57.0368 76.3493 60.1011C76.5562 61.2421 76.6567 62.3879 76.6562 63.5245C76.6557 64.6802 76.5508 65.8264 76.3473 66.9483C79.2799 70.0113 86.5809 75.8056 92.3236 74.4783C93.8428 74.1644 96.552 73.2319 99.6291 72.0052M99.6291 72.0052C104.565 76.8974 110.491 83.5721 111.806 86.5168C109.924 87.2281 105.5 87.5785 100.749 87.6694C98.3082 87.7162 95.7809 87.6944 93.4678 87.6179M93.4678 87.6179C96.2747 94.1859 99.3812 102.76 99.5304 105.957C96.4371 105.8 88.2686 102.539 82.0906 99.5814M93.4678 87.6179C92.1393 84.5095 90.878 81.8505 90.0289 80.4237C86.8574 75.1947 77.8159 73.8392 73.6916 73.8151C73.0743 74.7766 72.3785 75.6619 71.6175 76.4653C70.8436 77.2823 70.0024 78.0145 69.1077 78.6558C69.1313 83.013 70.4154 92.5653 75.3639 95.9172C76.6347 96.8206 79.1348 98.1663 82.0906 99.5814M82.0906 99.5814C82.3062 106.788 82.071 115.985 81.0497 119.003C78.2593 117.611 71.9303 111.337 67.2986 106.118M67.2986 106.118C64.9093 112.81 61.3377 121.156 59.2651 123.568C57.2306 121.195 53.6878 112.806 51.2776 106.064M67.2986 106.118C68.4574 102.872 69.3381 100.014 69.6349 98.4112C70.89 92.3484 65.4156 84.6417 62.5148 81.5383M51.2776 106.064C46.6109 111.312 40.32 117.606 37.5866 118.973C36.5505 115.921 36.2722 106.836 36.4841 99.7016M51.2776 106.064C50.138 102.876 49.2516 100.056 48.8974 98.4134C47.6409 92.3462 53.1271 84.6319 56.0273 81.5331C57.1072 81.7518 58.1917 81.8579 59.2674 81.8574C59.8647 81.8571 60.4592 81.8239 61.0488 81.7589M36.4841 99.7016C30.3218 102.643 22.2466 105.86 19.1751 106.017C19.3244 102.827 22.4181 94.2838 25.2208 87.7213M36.4841 99.7016C39.4973 98.2632 42.0531 96.8906 43.3428 95.9736C48.2917 92.6211 49.5769 83.0687 49.601 78.7115C48.7063 78.0702 47.8652 77.3382 47.0915 76.5213C46.3306 75.718 45.6349 74.8327 45.0177 73.8713C40.8933 73.896 31.8517 75.2527 28.6796 80.4821C27.8263 81.9158 26.5566 84.5936 25.2208 87.7213M25.2208 87.7213C18.4534 87.9515 9.78432 87.66 6.88118 86.5597C8.18077 83.6587 14.1855 76.9649 19.1662 72.0277M19.1662 72.0277C12.7734 69.4806 4.7869 65.719 2.53333 63.562C4.81353 61.3748 12.696 57.6077 19.0266 55.0833M19.1662 72.0277C22.1565 73.2191 24.798 74.1448 26.3411 74.5162C32.0834 75.8438 39.3847 70.0472 42.3175 66.9829C42.1106 65.8419 42.0101 64.6961 42.0106 63.5595C42.0111 62.4038 42.116 61.2576 42.3195 60.1358C39.3869 57.0727 32.0859 51.2785 26.3431 52.6057C24.8222 52.92 22.1082 53.8544 19.0266 55.0833M19.0266 55.0833C14.0971 50.1942 8.19594 43.5439 6.8838 40.606C9.73969 39.5271 18.4424 39.2786 25.2633 39.5063M25.2633 39.5063C22.4528 32.9343 19.3368 24.3376 19.1873 21.1355C22.2578 21.292 30.329 24.5059 36.4902 27.4461M25.2633 39.5063C26.5868 42.6012 27.8426 45.2471 28.6888 46.6692C31.8603 51.8982 40.9018 53.2537 45.0262 53.2778C45.6435 52.3163 46.3393 51.431 47.1003 50.6276C47.8741 49.8106 48.7153 49.0784 49.61 48.4371C49.5865 44.0799 48.3023 34.5276 43.3538 31.1758C42.0634 30.2584 39.5056 28.885 36.4902 27.4461M62.5406 45.5999C62.6427 45.6202 62.7447 45.6414 62.8465 45.6636C63.9054 45.8942 64.9477 46.2305 65.9584 46.6722C66.9524 47.1067 67.9158 47.6433 68.8343 48.2819C69.8015 48.9545 70.719 49.7402 71.5698 50.6392C74.9482 54.2087 76.6372 58.8873 76.6369 63.5659C76.6366 68.2445 74.9471 72.9233 71.5683 76.4932C70.417 77.7096 69.1439 78.7188 67.7905 79.5208M62.5406 45.5999L62.5379 45.6029C62.2642 45.5475 61.9901 45.4993 61.7161 45.4582M62.5406 45.5999C62.2667 45.5457 61.9917 45.4984 61.7161 45.4582M67.7905 79.5208C66.1275 80.5061 64.3433 81.1787 62.5148 81.5383M62.5148 81.5383C62.0288 81.6339 61.5396 81.7075 61.0488 81.7589M61.0488 81.7589C60.4784 81.8186 59.9058 81.8485 59.3331 81.8485C54.905 81.8488 50.4769 80.0643 47.0986 76.4948C45.1603 74.4469 43.7782 72.0339 42.952 69.4653M42.952 69.4653C42.3382 67.5569 42.0314 65.5625 42.0315 63.5681C42.0318 58.8895 43.7213 54.2107 47.1001 50.6408C48.2429 49.4334 49.5057 48.4301 50.848 47.631M50.848 47.631C53.4743 46.0675 56.4048 45.2857 59.3352 45.2855C60.1309 45.2854 60.9265 45.343 61.7161 45.4582" stroke="white" stroke-width="3"/>
</svg>
