<svg width="43" height="99" viewBox="0 0 43 99" fill="none" xmlns="http://www.w3.org/2000/svg">
<path d="M41.426 96.7848L39.926 96.7826C39.9248 97.6062 40.5879 98.2767 41.4114 98.2847C42.235 98.2927 42.911 97.6351 42.9257 96.8117L41.426 96.7848ZM32.6013 30.5969L33.6172 29.4933L33.6172 29.4933L32.6013 30.5969ZM13.4988 75.1121L14.8651 74.4931L13.4988 75.1121ZM6.39935 79.7192L7.18722 80.9956L8.08896 80.439L7.86568 79.4031L6.39935 79.7192ZM7.36008 88.5836L7.91026 89.979L7.36008 88.5836ZM10.3989 58.8299L9.61914 60.1113L9.61915 60.1113L10.3989 58.8299ZM15.1543 52.3537L14.5163 53.7113L16.0391 54.4269L16.5759 52.8322L15.1543 52.3537ZM13.5169 25.6902L14.8416 24.9864L14.8416 24.9864L13.5169 25.6902ZM5.71027 30.1591L6.2726 31.5497L7.65853 30.9893L7.10276 29.6015L5.71027 30.1591ZM14.5241 11.7643L15.5322 10.6536L15.5322 10.6536L14.5241 11.7643ZM19.9328 4.83758L19.3565 6.22248L20.5803 6.73171L21.2363 5.57983L19.9328 4.83758ZM28.0629 6.17829L29.4757 6.68249L29.4757 6.68248L28.0629 6.17829ZM42.926 96.787C42.9327 92.2075 42.1335 88.8782 40.5239 86.5686C38.8693 84.1944 36.5125 83.1125 33.9253 82.7217C31.3977 82.3399 28.5467 82.6003 25.7252 82.965C22.8294 83.3392 19.9653 83.8218 17.1137 84.0043L17.3052 86.9982C20.2853 86.8075 23.3674 86.2946 26.1097 85.9402C28.9263 85.5762 31.4053 85.3751 33.4772 85.688C35.4895 85.992 37.0015 86.7612 38.0627 88.2839C39.1688 89.8711 39.9323 92.4843 39.926 96.7826L42.926 96.787ZM42.926 96.787C42.9327 92.1659 42.155 88.748 40.7883 85.9652C39.4258 83.1909 37.5306 81.1599 35.505 79.2629C31.4641 75.4785 26.8223 72.1131 23.1595 64.0363L20.4273 65.2753C24.3919 74.0176 29.5794 77.8237 33.4543 81.4526C35.3867 83.2622 36.9711 84.9983 38.0955 87.2876C39.2157 89.5685 39.9322 92.5107 39.926 96.7826L42.926 96.787ZM42.9257 96.8117C43.0926 87.5039 42.926 80.26 42.926 73.4274H39.926C39.926 80.3461 40.0925 87.4793 39.9262 96.7579L42.9257 96.8117ZM42.926 73.4274C42.926 73.4114 42.926 73.3954 42.926 73.3795C42.926 73.3635 42.926 73.3475 42.926 73.3316C42.926 73.3156 42.926 73.2997 42.926 73.2837C42.926 73.2678 42.926 73.2519 42.926 73.2359C42.926 73.22 42.926 73.2041 42.926 73.1882C42.926 73.1722 42.926 73.1563 42.926 73.1404C42.926 73.1245 42.926 73.1086 42.926 73.0927C42.926 73.0769 42.926 73.061 42.926 73.0451C42.926 73.0292 42.926 73.0133 42.926 72.9975C42.926 72.9816 42.926 72.9658 42.926 72.9499C42.926 72.9341 42.926 72.9182 42.926 72.9024C42.926 72.8866 42.926 72.8707 42.926 72.8549C42.926 72.8391 42.926 72.8233 42.926 72.8075C42.926 72.7917 42.926 72.7759 42.926 72.7601C42.926 72.7443 42.926 72.7285 42.926 72.7127C42.926 72.6969 42.926 72.6812 42.926 72.6654C42.926 72.6496 42.926 72.6339 42.926 72.6181C42.926 72.6024 42.926 72.5866 42.926 72.5709C42.926 72.5552 42.926 72.5394 42.926 72.5237C42.926 72.508 42.926 72.4923 42.926 72.4766C42.926 72.4609 42.926 72.4452 42.926 72.4295C42.926 72.4138 42.926 72.3981 42.926 72.3824C42.926 72.3667 42.926 72.3511 42.926 72.3354C42.926 72.3197 42.926 72.3041 42.926 72.2884C42.926 72.2728 42.926 72.2571 42.926 72.2415C42.926 72.2258 42.926 72.2102 42.926 72.1946C42.926 72.179 42.926 72.1633 42.926 72.1477C42.926 72.1321 42.926 72.1165 42.926 72.1009C42.926 72.0853 42.926 72.0697 42.926 72.0542C42.926 72.0386 42.926 72.023 42.926 72.0074C42.926 71.9919 42.926 71.9763 42.926 71.9608C42.926 71.9452 42.926 71.9297 42.926 71.9141C42.926 71.8986 42.926 71.8831 42.926 71.8675C42.926 71.852 42.926 71.8365 42.926 71.821C42.926 71.8055 42.926 71.79 42.926 71.7745C42.926 71.759 42.926 71.7435 42.926 71.728C42.926 71.7125 42.926 71.6971 42.926 71.6816C42.926 71.6661 42.926 71.6507 42.926 71.6352C42.926 71.6198 42.926 71.6043 42.926 71.5889C42.926 71.5734 42.926 71.558 42.926 71.5426C42.926 71.5272 42.926 71.5118 42.926 71.4964C42.926 71.4809 42.926 71.4655 42.926 71.4502C42.926 71.4348 42.926 71.4194 42.926 71.404C42.926 71.3886 42.926 71.3732 42.926 71.3579C42.926 71.3425 42.926 71.3272 42.926 71.3118C42.926 71.2965 42.926 71.2811 42.926 71.2658C42.926 71.2505 42.926 71.2351 42.926 71.2198C42.926 71.2045 42.926 71.1892 42.926 71.1739C42.926 71.1586 42.926 71.1433 42.926 71.128C42.926 71.1127 42.926 71.0974 42.926 71.0821C42.926 71.0669 42.926 71.0516 42.926 71.0363C42.926 71.0211 42.926 71.0058 42.926 70.9906C42.926 70.9753 42.926 70.9601 42.926 70.9449C42.926 70.9296 42.926 70.9144 42.926 70.8992C42.926 70.884 42.926 70.8688 42.926 70.8536C42.926 70.8384 42.926 70.8232 42.926 70.808C42.926 70.7928 42.926 70.7776 42.926 70.7625C42.926 70.7473 42.926 70.7321 42.926 70.717C42.926 70.7018 42.926 70.6867 42.926 70.6715C42.926 70.6564 42.926 70.6413 42.926 70.6261C42.926 70.611 42.926 70.5959 42.926 70.5808C42.926 70.5657 42.926 70.5506 42.926 70.5355C42.926 70.5204 42.926 70.5053 42.926 70.4902C42.926 70.4751 42.926 70.4601 42.926 70.445C42.926 70.43 42.926 70.4149 42.926 70.3998C42.926 70.3848 42.926 70.3698 42.926 70.3547C42.926 70.3397 42.926 70.3247 42.926 70.3096C42.926 70.2946 42.926 70.2796 42.926 70.2646C42.926 70.2496 42.926 70.2346 42.926 70.2196C42.926 70.2046 42.926 70.1897 42.926 70.1747C42.926 70.1597 42.926 70.1448 42.926 70.1298C42.926 70.1148 42.926 70.0999 42.926 70.085C42.926 70.07 42.926 70.0551 42.926 70.0402C42.926 70.0252 42.926 70.0103 42.926 69.9954C42.926 69.9805 42.926 69.9656 42.926 69.9507C42.926 69.9358 42.926 69.9209 42.926 69.906C42.926 69.8912 42.926 69.8763 42.926 69.8614C42.926 69.8466 42.926 69.8317 42.926 69.8169C42.926 69.802 42.926 69.7872 42.926 69.7723C42.926 69.7575 42.926 69.7427 42.926 69.7279C42.926 69.7131 42.926 69.6982 42.926 69.6834C42.926 69.6686 42.926 69.6539 42.926 69.6391C42.926 69.6243 42.926 69.6095 42.926 69.5947C42.926 69.58 42.926 69.5652 42.926 69.5505C42.926 69.5357 42.926 69.521 42.926 69.5062C42.926 69.4915 42.926 69.4768 42.926 69.462C42.926 69.4473 42.926 69.4326 42.926 69.4179C42.926 69.4032 42.926 69.3885 42.926 69.3738C42.926 69.3591 42.926 69.3444 42.926 69.3298C42.926 69.3151 42.926 69.3004 42.926 69.2858C42.926 69.2711 42.926 69.2564 42.926 69.2418C42.926 69.2272 42.926 69.2125 42.926 69.1979C42.926 69.1833 42.926 69.1687 42.926 69.154C42.926 69.1394 42.926 69.1248 42.926 69.1102C42.926 69.0956 42.926 69.0811 42.926 69.0665C42.926 69.0519 42.926 69.0373 42.926 69.0228C42.926 69.0082 42.926 68.9937 42.926 68.9791C42.926 68.9646 42.926 68.95 42.926 68.9355C42.926 68.921 42.926 68.9065 42.926 68.8919C42.926 68.8774 42.926 68.8629 42.926 68.8484C42.926 68.8339 42.926 68.8194 42.926 68.805C42.926 68.7905 42.926 68.776 42.926 68.7615C42.926 68.7471 42.926 68.7326 42.926 68.7182C42.926 68.7037 42.926 68.6893 42.926 68.6749C42.926 68.6604 42.926 68.646 42.926 68.6316C42.926 68.6172 42.926 68.6028 42.926 68.5884C42.926 68.574 42.926 68.5596 42.926 68.5452C42.926 68.5308 42.926 68.5164 42.926 68.5021C42.926 68.4877 42.926 68.4733 42.926 68.459C42.926 68.4446 42.926 68.4303 42.926 68.416C42.926 68.4016 42.926 68.3873 42.926 68.373C42.926 68.3587 42.926 68.3444 42.926 68.3301C42.926 68.3158 42.926 68.3015 42.926 68.2872C42.926 68.2729 42.926 68.2586 42.926 68.2444C42.926 68.2301 42.926 68.2159 42.926 68.2016C42.926 68.1874 42.926 68.1731 42.926 68.1589C42.926 68.1446 42.926 68.1304 42.926 68.1162C42.926 68.102 42.926 68.0878 42.926 68.0736C42.926 68.0594 42.926 68.0452 42.926 68.031C42.926 68.0168 42.926 68.0026 42.926 67.9885C42.926 67.9743 42.926 67.9602 42.926 67.946C42.926 67.9319 42.926 67.9177 42.926 67.9036C42.926 67.8894 42.926 67.8753 42.926 67.8612C42.926 67.8471 42.926 67.833 42.926 67.8189C42.926 67.8048 42.926 67.7907 42.926 67.7766C42.926 67.7625 42.926 67.7485 42.926 67.7344C42.926 67.7203 42.926 67.7063 42.926 67.6922C42.926 67.6782 42.926 67.6641 42.926 67.6501C42.926 67.6361 42.926 67.622 42.926 67.608C42.926 67.594 42.926 67.58 42.926 67.566C42.926 67.552 42.926 67.538 42.926 67.524C42.926 67.5101 42.926 67.4961 42.926 67.4821C42.926 67.4682 42.926 67.4542 42.926 67.4403C42.926 67.4263 42.926 67.4124 42.926 67.3985C42.926 67.3845 42.926 67.3706 42.926 67.3567C42.926 67.3428 42.926 67.3289 42.926 67.315C42.926 67.3011 42.926 67.2872 42.926 67.2733C42.926 67.2595 42.926 67.2456 42.926 67.2317C42.926 67.2179 42.926 67.204 42.926 67.1902C42.926 67.1763 42.926 67.1625 42.926 67.1487C42.926 67.1348 42.926 67.121 42.926 67.1072C42.926 67.0934 42.926 67.0796 42.926 67.0658C42.926 67.052 42.926 67.0383 42.926 67.0245C42.926 67.0107 42.926 66.9969 42.926 66.9832C42.926 66.9694 42.926 66.9557 42.926 66.9419C42.926 66.9282 42.926 66.9145 42.926 66.9008C42.926 66.887 42.926 66.8733 42.926 66.8596C42.926 66.8459 42.926 66.8322 42.926 66.8185C42.926 66.8049 42.926 66.7912 42.926 66.7775C42.926 66.7638 42.926 66.7502 42.926 66.7365C42.926 66.7229 42.926 66.7092 42.926 66.6956C42.926 66.682 42.926 66.6683 42.926 66.6547C42.926 66.6411 42.926 66.6275 42.926 66.6139C42.926 66.6003 42.926 66.5867 42.926 66.5731C42.926 66.5596 42.926 66.546 42.926 66.5324C42.926 66.5189 42.926 66.5053 42.926 66.4918C42.926 66.4782 42.926 66.4647 42.926 66.4512C42.926 66.4376 42.926 66.4241 42.926 66.4106C42.926 66.3971 42.926 66.3836 42.926 66.3701C42.926 66.3566 42.926 66.3431 42.926 66.3297C42.926 66.3162 42.926 66.3027 42.926 66.2893C42.926 66.2758 42.926 66.2624 42.926 66.2489C42.926 66.2355 42.926 66.2221 42.926 66.2087C42.926 66.1952 42.926 66.1818 42.926 66.1684C42.926 66.155 42.926 66.1416 42.926 66.1282C42.926 66.1149 42.926 66.1015 42.926 66.0881C42.926 66.0748 42.926 66.0614 42.926 66.0481C42.926 66.0347 42.926 66.0214 42.926 66.008C42.926 65.9947 42.926 65.9814 42.926 65.9681C42.926 65.9548 42.926 65.9415 42.926 65.9282C42.926 65.9149 42.926 65.9016 42.926 65.8883C42.926 65.8751 42.926 65.8618 42.926 65.8485C42.926 65.8353 42.926 65.822 42.926 65.8088C42.926 65.7956 42.926 65.7823 42.926 65.7691C42.926 65.7559 42.926 65.7427 42.926 65.7295C42.926 65.7163 42.926 65.7031 42.926 65.6899C42.926 65.6767 42.926 65.6635 42.926 65.6504C42.926 65.6372 42.926 65.624 42.926 65.6109C42.926 65.5978 42.926 65.5846 42.926 65.5715C42.926 65.5584 42.926 65.5452 42.926 65.5321C42.926 65.519 42.926 65.5059 42.926 65.4928C42.926 65.4797 42.926 65.4667 42.926 65.4536C42.926 65.4405 42.926 65.4274 42.926 65.4144C42.926 65.4013 42.926 65.3883 42.926 65.3753C42.926 65.3622 42.926 65.3492 42.926 65.3362C42.926 65.3232 42.926 65.3102 42.926 65.2972C42.926 65.2842 42.926 65.2712 42.926 65.2582C42.926 65.2452 42.926 65.2322 42.926 65.2193C42.926 65.2063 42.926 65.1934 42.926 65.1804C42.926 65.1675 42.926 65.1545 42.926 65.1416C42.926 65.1287 42.926 65.1158 42.926 65.1029C42.926 65.09 42.926 65.0771 42.926 65.0642C42.926 65.0513 42.926 65.0384 42.926 65.0256C42.926 65.0127 42.926 64.9998 42.926 64.987C42.926 64.9741 42.926 64.9613 42.926 64.9485C42.926 64.9356 42.926 64.9228 42.926 64.91C42.926 64.8972 42.926 64.8844 42.926 64.8716C42.926 64.8588 42.926 64.846 42.926 64.8332C42.926 64.8205 42.926 64.8077 42.926 64.7949C42.926 64.7822 42.926 64.7694 42.926 64.7567C42.926 64.744 42.926 64.7312 42.926 64.7185C42.926 64.7058 42.926 64.6931 42.926 64.6804C42.926 64.6677 42.926 64.655 42.926 64.6423C42.926 64.6297 42.926 64.617 42.926 64.6043C42.926 64.5917 42.926 64.579 42.926 64.5664C42.926 64.5537 42.926 64.5411 42.926 64.5285C42.926 64.5159 42.926 64.5033 42.926 64.4907C42.926 64.4781 42.926 64.4655 42.926 64.4529C42.926 64.4403 42.926 64.4277 42.926 64.4152C42.926 64.4026 42.926 64.39 42.926 64.3775C42.926 64.365 42.926 64.3524 42.926 64.3399C42.926 64.3274 42.926 64.3149 42.926 64.3023C42.926 64.2898 42.926 64.2773 42.926 64.2649C42.926 64.2524 42.926 64.2399 42.926 64.2274C42.926 64.215 42.926 64.2025 42.926 64.1901C42.926 64.1776 42.926 64.1652 42.926 64.1527C42.926 64.1403 42.926 64.1279 42.926 64.1155C42.926 64.1031 42.926 64.0907 42.926 64.0783C42.926 64.0659 42.926 64.0535 42.926 64.0411C42.926 64.0288 42.926 64.0164 42.926 64.0041C42.926 63.9917 42.926 63.9794 42.926 63.967C42.926 63.9547 42.926 63.9424 42.926 63.9301C42.926 63.9178 42.926 63.9055 42.926 63.8932C42.926 63.8809 42.926 63.8686 42.926 63.8563C42.926 63.844 42.926 63.8318 42.926 63.8195C42.926 63.8073 42.926 63.795 42.926 63.7828C42.926 63.7706 42.926 63.7583 42.926 63.7461C42.926 63.7339 42.926 63.7217 42.926 63.7095C42.926 63.6973 42.926 63.6851 42.926 63.673C42.926 63.6608 42.926 63.6486 42.926 63.6365C42.926 63.6243 42.926 63.6122 42.926 63.6C42.926 63.5879 42.926 63.5758 42.926 63.5637C42.926 63.5516 42.926 63.5395 42.926 63.5274C42.926 63.5153 42.926 63.5032 42.926 63.4911C42.926 63.479 42.926 63.467 42.926 63.4549C42.926 63.4429 42.926 63.4308 42.926 63.4188C42.926 63.4067 42.926 63.3947 42.926 63.3827C42.926 63.3707 42.926 63.3587 42.926 63.3467C42.926 63.3347 42.926 63.3227 42.926 63.3107C42.926 63.2988 42.926 63.2868 42.926 63.2748C42.926 63.2629 42.926 63.2509 42.926 63.239C42.926 63.2271 42.926 63.2151 42.926 63.2032C42.926 63.1913 42.926 63.1794 42.926 63.1675C42.926 63.1556 42.926 63.1437 42.926 63.1319C42.926 63.12 42.926 63.1081 42.926 63.0963C42.926 63.0844 42.926 63.0726 42.926 63.0607C42.926 63.0489 42.926 63.0371 42.926 63.0253C42.926 63.0135 42.926 63.0017 42.926 62.9899C42.926 62.9781 42.926 62.9663 42.926 62.9545C42.926 62.9427 42.926 62.931 42.926 62.9192C42.926 62.9075 42.926 62.8957 42.926 62.884C42.926 62.8723 42.926 62.8605 42.926 62.8488C42.926 62.8371 42.926 62.8254 42.926 62.8137C42.926 62.802 42.926 62.7904 42.926 62.7787C42.926 62.767 42.926 62.7553 42.926 62.7437C42.926 62.732 42.926 62.7204 42.926 62.7088C42.926 62.6971 42.926 62.6855 42.926 62.6739C42.926 62.6623 42.926 62.6507 42.926 62.6391C42.926 62.6275 42.926 62.616 42.926 62.6044C42.926 62.5928 42.926 62.5813 42.926 62.5697C42.926 62.5582 42.926 62.5466 42.926 62.5351C42.926 62.5236 42.926 62.5121 42.926 62.5005C42.926 62.489 42.926 62.4775 42.926 62.4661C42.926 62.4546 42.926 62.4431 42.926 62.4316C42.926 62.4202 42.926 62.4087 42.926 62.3973C42.926 62.3858 42.926 62.3744 42.926 62.363C42.926 62.3515 42.926 62.3401 42.926 62.3287C42.926 62.3173 42.926 62.3059 42.926 62.2945C42.926 62.2832 42.926 62.2718 42.926 62.2604C42.926 62.2491 42.926 62.2377 42.926 62.2264C42.926 62.215 42.926 62.2037 42.926 62.1924C42.926 62.1811 42.926 62.1698 42.926 62.1585C42.926 62.1472 42.926 62.1359 42.926 62.1246C42.926 62.1133 42.926 62.1021 42.926 62.0908C42.926 62.0795 42.926 62.0683 42.926 62.0571C42.926 62.0458 42.926 62.0346 42.926 62.0234C42.926 62.0122 42.926 62.001 42.926 61.9898C42.926 61.9786 42.926 61.9674 42.926 61.9562C42.926 61.9451 42.926 61.9339 42.926 61.9227C42.926 61.9116 42.926 61.9005 42.926 61.8893C42.926 61.8782 42.926 61.8671 42.926 61.856C42.926 61.8449 42.926 61.8338 42.926 61.8227C42.926 61.8116 42.926 61.8005 42.926 61.7894C42.926 61.7784 42.926 61.7673 42.926 61.7563C42.926 61.7452 42.926 61.7342 42.926 61.7232C42.926 61.7121 42.926 61.7011 42.926 61.6901C42.926 61.6791 42.926 61.6681 42.926 61.6572C42.926 61.6462 42.926 61.6352 42.926 61.6242C42.926 61.6133 42.926 61.6023 42.926 61.5914C42.926 61.5805 42.926 61.5695 42.926 61.5586C42.926 61.5477 42.926 61.5368 42.926 61.5259C42.926 61.515 42.926 61.5041 42.926 61.4932C42.926 61.4824 42.926 61.4715 42.926 61.4607C42.926 61.4498 42.926 61.439 42.926 61.4281C42.926 61.4173 42.926 61.4065 42.926 61.3957C42.926 61.3849 42.926 61.3741 42.926 61.3633C42.926 61.3525 42.926 61.3417 42.926 61.3309C42.926 61.3202 42.926 61.3094 42.926 61.2987C42.926 61.2879 42.926 61.2772 42.926 61.2665C42.926 61.2557 42.926 61.245 42.926 61.2343C42.926 61.2236 42.926 61.2129 42.926 61.2023C42.926 61.1916 42.926 61.1809 42.926 61.1703C42.926 61.1596 42.926 61.149 42.926 61.1383C42.926 61.1277 42.926 61.1171 42.926 61.1064C42.926 61.0958 42.926 61.0852 42.926 61.0746C42.926 61.064 42.926 61.0535 42.926 61.0429C42.926 61.0323 42.926 61.0218 42.926 61.0112C42.926 61.0007 42.926 60.9901 42.926 60.9796C42.926 60.9691 42.926 60.9586 42.926 60.9481C42.926 60.9375 42.926 60.9271 42.926 60.9166C42.926 60.9061 42.926 60.8956 42.926 60.8852C42.926 60.8747 42.926 60.8642 42.926 60.8538C42.926 60.8434 42.926 60.8329 42.926 60.8225C42.926 60.8121 42.926 60.8017 42.926 60.7913C42.926 60.7809 42.926 60.7705 42.926 60.7602C42.926 60.7498 42.926 60.7394 42.926 60.7291C42.926 60.7187 42.926 60.7084 42.926 60.6981C42.926 60.6877 42.926 60.6774 42.926 60.6671C42.926 60.6568 42.926 60.6465 42.926 60.6362C42.926 60.6259 42.926 60.6157 42.926 60.6054C42.926 60.5951 42.926 60.5849 42.926 60.5747C42.926 60.5644 42.926 60.5542 42.926 60.544C42.926 60.5338 42.926 60.5235 42.926 60.5134C42.926 60.5032 42.926 60.493 42.926 60.4828C42.926 60.4726 42.926 60.4625 42.926 60.4523C42.926 60.4422 42.926 60.432 42.926 60.4219C42.926 60.4118 42.926 60.4017 42.926 60.3916C42.926 60.3815 42.926 60.3714 42.926 60.3613C42.926 60.3512 42.926 60.3411 42.926 60.3311C42.926 60.321 42.926 60.311 42.926 60.3009C42.926 60.2909 42.926 60.2809 42.926 60.2708C42.926 60.2608 42.926 60.2508 42.926 60.2408C42.926 60.2308 42.926 60.2209 42.926 60.2109C42.926 60.2009 42.926 60.191 42.926 60.181C42.926 60.1711 42.926 60.1611 42.926 60.1512C42.926 60.1413 42.926 60.1314 42.926 60.1215C42.926 60.1116 42.926 60.1017 42.926 60.0918C42.926 60.0819 42.926 60.072 42.926 60.0622C42.926 60.0523 42.926 60.0425 42.926 60.0327C42.926 60.0228 42.926 60.013 42.926 60.0032C42.926 59.9934 42.926 59.9836 42.926 59.9738C42.926 59.964 42.926 59.9542 42.926 59.9445C42.926 59.9347 42.926 59.9249 42.926 59.9152C42.926 59.9055 42.926 59.8957 42.926 59.886C42.926 59.8763 42.926 59.8666 42.926 59.8569C42.926 59.8472 42.926 59.8375 42.926 59.8278C42.926 59.8182 42.926 59.8085 42.926 59.7988C42.926 59.7892 42.926 59.7796 42.926 59.7699C42.926 59.7603 42.926 59.7507 42.926 59.7411C42.926 59.7315 42.926 59.7219 42.926 59.7123C42.926 59.7027 42.926 59.6932 42.926 59.6836C42.926 59.674 42.926 59.6645 42.926 59.655C42.926 59.6454 42.926 59.6359 42.926 59.6264C42.926 59.6169 42.926 59.6074 42.926 59.5979C42.926 59.5884 42.926 59.5789 42.926 59.5695C42.926 59.56 42.926 59.5505 42.926 59.5411C42.926 59.5316 42.926 59.5222 42.926 59.5128C42.926 59.5034 42.926 59.494 42.926 59.4846C42.926 59.4752 42.926 59.4658 42.926 59.4564C42.926 59.4471 42.926 59.4377 42.926 59.4283C42.926 59.419 42.926 59.4097 42.926 59.4003C42.926 59.391 42.926 59.3817 42.926 59.3724C42.926 59.3631 42.926 59.3538 42.926 59.3445C42.926 59.3352 42.926 59.326 42.926 59.3167C42.926 59.3075 42.926 59.2982 42.926 59.289C42.926 59.2798 42.926 59.2705 42.926 59.2613C42.926 59.2521 42.926 59.2429 42.926 59.2337C42.926 59.2246 42.926 59.2154 42.926 59.2062C42.926 59.1971 42.926 59.1879 42.926 59.1788C42.926 59.1696 42.926 59.1605 42.926 59.1514C42.926 59.1423 42.926 59.1332 42.926 59.1241C42.926 59.115 42.926 59.1059 42.926 59.0968C42.926 59.0878 42.926 59.0787 42.926 59.0697C42.926 59.0606 42.926 59.0516 42.926 59.0426C42.926 59.0336 42.926 59.0246 42.926 59.0156C42.926 59.0066 42.926 58.9976 42.926 58.9886C42.926 58.9796 42.926 58.9707 42.926 58.9617C42.926 58.9528 42.926 58.9439 42.926 58.9349C42.926 58.926 42.926 58.9171 42.926 58.9082C42.926 58.8993 42.926 58.8904 42.926 58.8815C42.926 58.8726 42.926 58.8638 42.926 58.8549C42.926 58.8461 42.926 58.8372 42.926 58.8284C42.926 58.8196 42.926 58.8108 42.926 58.802C42.926 58.7932 42.926 58.7844 42.926 58.7756C42.926 58.7668 42.926 58.758 42.926 58.7493C42.926 58.7405 42.926 58.7318 42.926 58.723C42.926 58.7143 42.926 58.7056 42.926 58.6969C42.926 58.6882 42.926 58.6795 42.926 58.6708C42.926 58.6621 42.926 58.6534 42.926 58.6448C42.926 58.6361 42.926 58.6275 42.926 58.6188C42.926 58.6102 42.926 58.6016 42.926 58.593C42.926 58.5843 42.926 58.5757 42.926 58.5672C42.926 58.5586 42.926 58.55 42.926 58.5414C42.926 58.5329 42.926 58.5243 42.926 58.5158C42.926 58.5072 42.926 58.4987 42.926 58.4902C42.926 58.4817 42.926 58.4732 42.926 58.4647C42.926 58.4562 42.926 58.4477 42.926 58.4393C42.926 58.4308 42.926 58.4223 42.926 58.4139C42.926 58.4055 42.926 58.397 42.926 58.3886C42.926 58.3802 42.926 58.3718 42.926 58.3634C42.926 58.355 42.926 58.3466 42.926 58.3382C42.926 58.3299 42.926 58.3215 42.926 58.3132C42.926 58.3048 42.926 58.2965 42.926 58.2882C42.926 58.2799 42.926 58.2716 42.926 58.2633C42.926 58.255 42.926 58.2467 42.926 58.2384C42.926 58.2301 42.926 58.2219 42.926 58.2136C42.926 58.2054 42.926 58.1972 42.926 58.1889C42.926 58.1807 42.926 58.1725 42.926 58.1643C42.926 58.1561 42.926 58.1479 42.926 58.1398C42.926 58.1316 42.926 58.1234 42.926 58.1153C42.926 58.1071 42.926 58.099 42.926 58.0909C42.926 58.0828 42.926 58.0746 42.926 58.0665C42.926 58.0585 42.926 58.0504 42.926 58.0423C42.926 58.0342 42.926 58.0262 42.926 58.0181C42.926 58.0101 42.926 58.002 42.926 57.994C42.926 57.986 42.926 57.978 42.926 57.97C42.926 57.962 42.926 57.954 42.926 57.946C42.926 57.938 42.926 57.9301 42.926 57.9221C42.926 57.9142 42.926 57.9062 42.926 57.8983C42.926 57.8904 42.926 57.8825 42.926 57.8746C42.926 57.8667 42.926 57.8588 42.926 57.8509C42.926 57.8431 42.926 57.8352 42.926 57.8274C42.926 57.8195 42.926 57.8117 42.926 57.8038C42.926 57.796 42.926 57.7882 42.926 57.7804C42.926 57.7726 42.926 57.7648 42.926 57.7571C42.926 57.7493 42.926 57.7415 42.926 57.7338C42.926 57.726 42.926 57.7183 42.926 57.7106C42.926 57.7028 42.926 57.6951 42.926 57.6874C42.926 57.6797 42.926 57.6721 42.926 57.6644C42.926 57.6567 42.926 57.6491 42.926 57.6414C42.926 57.6338 42.926 57.6261 42.926 57.6185C42.926 57.6109 42.926 57.6033 42.926 57.5957C42.926 57.5881 42.926 57.5805 42.926 57.5729C42.926 57.5654 42.926 57.5578 42.926 57.5502C42.926 57.5427 42.926 57.5352 42.926 57.5276C42.926 57.5201 42.926 57.5126 42.926 57.5051C42.926 57.4976 42.926 57.4901 42.926 57.4827C42.926 57.4752 42.926 57.4678 42.926 57.4603C42.926 57.4529 42.926 57.4454 42.926 57.438C42.926 57.4306 42.926 57.4232 42.926 57.4158C42.926 57.4084 42.926 57.401 42.926 57.3937C42.926 57.3863 42.926 57.3789 42.926 57.3716C42.926 57.3642 42.926 57.3569 42.926 57.3496C42.926 57.3423 42.926 57.335 42.926 57.3277C42.926 57.3204 42.926 57.3131 42.926 57.3059C42.926 57.2986 42.926 57.2913 42.926 57.2841C42.926 57.2769 42.926 57.2696 42.926 57.2624C42.926 57.2552 42.926 57.248 42.926 57.2408C42.926 57.2336 42.926 57.2265 42.926 57.2193C42.926 57.2121 42.926 57.205 42.926 57.1979C42.926 57.1907 42.926 57.1836 42.926 57.1765C42.926 57.1694 42.926 57.1623 42.926 57.1552C42.926 57.1481 42.926 57.141 42.926 57.134C42.926 57.1269 42.926 57.1199 42.926 57.1128C42.926 57.1058 42.926 57.0988 42.926 57.0918C42.926 57.0848 42.926 57.0778 42.926 57.0708C42.926 57.0638 42.926 57.0568 42.926 57.0499C42.926 57.0429 42.926 57.036 42.926 57.0291C42.926 57.0221 42.926 57.0152 42.926 57.0083C42.926 57.0014 42.926 56.9945 42.926 56.9877C42.926 56.9808 42.926 56.9739 42.926 56.9671C42.926 56.9602 42.926 56.9534 42.926 56.9465C42.926 56.9397 42.926 56.9329 42.926 56.9261C42.926 56.9193 42.926 56.9125 42.926 56.9058C42.926 56.899 42.926 56.8922 42.926 56.8855C42.926 56.8787 42.926 56.872 42.926 56.8653C42.926 56.8586 42.926 56.8519 42.926 56.8452C42.926 56.8385 42.926 56.8318 42.926 56.8251C42.926 56.8185 42.926 56.8118 42.926 56.8052C42.926 56.7985 42.926 56.7919 42.926 56.7853C42.926 56.7787 42.926 56.7721 42.926 56.7655C42.926 56.7589 42.926 56.7523 42.926 56.7458C42.926 56.7392 42.926 56.7326 42.926 56.7261C42.926 56.7196 42.926 56.713 42.926 56.7065C42.926 56.7 42.926 56.6935 42.926 56.6871C42.926 56.6806 42.926 56.6741 42.926 56.6676C42.926 56.6612 42.926 56.6547 42.926 56.6483C42.926 56.6419 42.926 56.6355 42.926 56.6291C42.926 56.6227 42.926 56.6163 42.926 56.6099C42.926 56.6035 42.926 56.5972 42.926 56.5908C42.926 56.5845 42.926 56.5781 42.926 56.5718C42.926 56.5655 42.926 56.5592 42.926 56.5529C42.926 56.5466 42.926 56.5403 42.926 56.534C42.926 56.5278 42.926 56.5215 42.926 56.5153C42.926 56.509 42.926 56.5028 42.926 56.4966C42.926 56.4904 42.926 56.4842 42.926 56.478C42.926 56.4718 42.926 56.4656 42.926 56.4594C42.926 56.4533 42.926 56.4471 42.926 56.441C42.926 56.4349 42.926 56.4287 42.926 56.4226C42.926 56.4165 42.926 56.4104 42.926 56.4043C42.926 56.3983 42.926 56.3922 42.926 56.3861C42.926 56.3801 42.926 56.374 42.926 56.368C42.926 56.362 42.926 56.356 42.926 56.35C42.926 56.344 42.926 56.338 42.926 56.332C42.926 56.326 42.926 56.3201 42.926 56.3141C42.926 56.3082 42.926 56.3023 42.926 56.2963C42.926 56.2904 42.926 56.2845 42.926 56.2786C42.926 56.2727 42.926 56.2668 42.926 56.261C42.926 56.2551 42.926 56.2493 42.926 56.2434C42.926 56.2376 42.926 56.2318 42.926 56.2259C42.926 56.2201 42.926 56.2143 42.926 56.2086C42.926 56.2028 42.926 56.197 42.926 56.1912C42.926 56.1855 42.926 56.1797 42.926 56.174C42.926 56.1683 42.926 56.1626 42.926 56.1569C42.926 56.1512 42.926 56.1455 42.926 56.1398C42.926 56.1341 42.926 56.1285 42.926 56.1228C42.926 56.1172 42.926 56.1115 42.926 56.1059C42.926 56.1003 42.926 56.0947 42.926 56.0891C42.926 56.0835 42.926 56.0779 42.926 56.0724C42.926 56.0668 42.926 56.0612 42.926 56.0557C42.926 56.0502 42.926 56.0446 42.926 56.0391C42.926 56.0336 42.926 56.0281 42.926 56.0226H39.926C39.926 56.0281 39.926 56.0336 39.926 56.0391C39.926 56.0446 39.926 56.0502 39.926 56.0557C39.926 56.0612 39.926 56.0668 39.926 56.0724C39.926 56.0779 39.926 56.0835 39.926 56.0891C39.926 56.0947 39.926 56.1003 39.926 56.1059C39.926 56.1115 39.926 56.1172 39.926 56.1228C39.926 56.1285 39.926 56.1341 39.926 56.1398C39.926 56.1455 39.926 56.1512 39.926 56.1569C39.926 56.1626 39.926 56.1683 39.926 56.174C39.926 56.1797 39.926 56.1855 39.926 56.1912C39.926 56.197 39.926 56.2028 39.926 56.2086C39.926 56.2143 39.926 56.2201 39.926 56.2259C39.926 56.2318 39.926 56.2376 39.926 56.2434C39.926 56.2493 39.926 56.2551 39.926 56.261C39.926 56.2668 39.926 56.2727 39.926 56.2786C39.926 56.2845 39.926 56.2904 39.926 56.2963C39.926 56.3023 39.926 56.3082 39.926 56.3141C39.926 56.3201 39.926 56.326 39.926 56.332C39.926 56.338 39.926 56.344 39.926 56.35C39.926 56.356 39.926 56.362 39.926 56.368C39.926 56.374 39.926 56.3801 39.926 56.3861C39.926 56.3922 39.926 56.3983 39.926 56.4043C39.926 56.4104 39.926 56.4165 39.926 56.4226C39.926 56.4287 39.926 56.4349 39.926 56.441C39.926 56.4471 39.926 56.4533 39.926 56.4594C39.926 56.4656 39.926 56.4718 39.926 56.478C39.926 56.4842 39.926 56.4904 39.926 56.4966C39.926 56.5028 39.926 56.509 39.926 56.5153C39.926 56.5215 39.926 56.5278 39.926 56.534C39.926 56.5403 39.926 56.5466 39.926 56.5529C39.926 56.5592 39.926 56.5655 39.926 56.5718C39.926 56.5781 39.926 56.5845 39.926 56.5908C39.926 56.5972 39.926 56.6035 39.926 56.6099C39.926 56.6163 39.926 56.6227 39.926 56.6291C39.926 56.6355 39.926 56.6419 39.926 56.6483C39.926 56.6547 39.926 56.6612 39.926 56.6676C39.926 56.6741 39.926 56.6806 39.926 56.6871C39.926 56.6935 39.926 56.7 39.926 56.7065C39.926 56.713 39.926 56.7196 39.926 56.7261C39.926 56.7326 39.926 56.7392 39.926 56.7458C39.926 56.7523 39.926 56.7589 39.926 56.7655C39.926 56.7721 39.926 56.7787 39.926 56.7853C39.926 56.7919 39.926 56.7985 39.926 56.8052C39.926 56.8118 39.926 56.8185 39.926 56.8251C39.926 56.8318 39.926 56.8385 39.926 56.8452C39.926 56.8519 39.926 56.8586 39.926 56.8653C39.926 56.872 39.926 56.8787 39.926 56.8855C39.926 56.8922 39.926 56.899 39.926 56.9058C39.926 56.9125 39.926 56.9193 39.926 56.9261C39.926 56.9329 39.926 56.9397 39.926 56.9465C39.926 56.9534 39.926 56.9602 39.926 56.9671C39.926 56.9739 39.926 56.9808 39.926 56.9877C39.926 56.9945 39.926 57.0014 39.926 57.0083C39.926 57.0152 39.926 57.0221 39.926 57.0291C39.926 57.036 39.926 57.0429 39.926 57.0499C39.926 57.0568 39.926 57.0638 39.926 57.0708C39.926 57.0778 39.926 57.0848 39.926 57.0918C39.926 57.0988 39.926 57.1058 39.926 57.1128C39.926 57.1199 39.926 57.1269 39.926 57.134C39.926 57.141 39.926 57.1481 39.926 57.1552C39.926 57.1623 39.926 57.1694 39.926 57.1765C39.926 57.1836 39.926 57.1907 39.926 57.1979C39.926 57.205 39.926 57.2121 39.926 57.2193C39.926 57.2265 39.926 57.2336 39.926 57.2408C39.926 57.248 39.926 57.2552 39.926 57.2624C39.926 57.2696 39.926 57.2769 39.926 57.2841C39.926 57.2913 39.926 57.2986 39.926 57.3059C39.926 57.3131 39.926 57.3204 39.926 57.3277C39.926 57.335 39.926 57.3423 39.926 57.3496C39.926 57.3569 39.926 57.3642 39.926 57.3716C39.926 57.3789 39.926 57.3863 39.926 57.3937C39.926 57.401 39.926 57.4084 39.926 57.4158C39.926 57.4232 39.926 57.4306 39.926 57.438C39.926 57.4454 39.926 57.4529 39.926 57.4603C39.926 57.4678 39.926 57.4752 39.926 57.4827C39.926 57.4901 39.926 57.4976 39.926 57.5051C39.926 57.5126 39.926 57.5201 39.926 57.5276C39.926 57.5352 39.926 57.5427 39.926 57.5502C39.926 57.5578 39.926 57.5654 39.926 57.5729C39.926 57.5805 39.926 57.5881 39.926 57.5957C39.926 57.6033 39.926 57.6109 39.926 57.6185C39.926 57.6261 39.926 57.6338 39.926 57.6414C39.926 57.6491 39.926 57.6567 39.926 57.6644C39.926 57.6721 39.926 57.6797 39.926 57.6874C39.926 57.6951 39.926 57.7028 39.926 57.7106C39.926 57.7183 39.926 57.726 39.926 57.7338C39.926 57.7415 39.926 57.7493 39.926 57.7571C39.926 57.7648 39.926 57.7726 39.926 57.7804C39.926 57.7882 39.926 57.796 39.926 57.8038C39.926 57.8117 39.926 57.8195 39.926 57.8274C39.926 57.8352 39.926 57.8431 39.926 57.8509C39.926 57.8588 39.926 57.8667 39.926 57.8746C39.926 57.8825 39.926 57.8904 39.926 57.8983C39.926 57.9062 39.926 57.9142 39.926 57.9221C39.926 57.9301 39.926 57.938 39.926 57.946C39.926 57.954 39.926 57.962 39.926 57.97C39.926 57.978 39.926 57.986 39.926 57.994C39.926 58.002 39.926 58.0101 39.926 58.0181C39.926 58.0262 39.926 58.0342 39.926 58.0423C39.926 58.0504 39.926 58.0585 39.926 58.0665C39.926 58.0746 39.926 58.0828 39.926 58.0909C39.926 58.099 39.926 58.1071 39.926 58.1153C39.926 58.1234 39.926 58.1316 39.926 58.1398C39.926 58.1479 39.926 58.1561 39.926 58.1643C39.926 58.1725 39.926 58.1807 39.926 58.1889C39.926 58.1972 39.926 58.2054 39.926 58.2136C39.926 58.2219 39.926 58.2301 39.926 58.2384C39.926 58.2467 39.926 58.255 39.926 58.2633C39.926 58.2716 39.926 58.2799 39.926 58.2882C39.926 58.2965 39.926 58.3048 39.926 58.3132C39.926 58.3215 39.926 58.3299 39.926 58.3382C39.926 58.3466 39.926 58.355 39.926 58.3634C39.926 58.3718 39.926 58.3802 39.926 58.3886C39.926 58.397 39.926 58.4055 39.926 58.4139C39.926 58.4223 39.926 58.4308 39.926 58.4393C39.926 58.4477 39.926 58.4562 39.926 58.4647C39.926 58.4732 39.926 58.4817 39.926 58.4902C39.926 58.4987 39.926 58.5072 39.926 58.5158C39.926 58.5243 39.926 58.5329 39.926 58.5414C39.926 58.55 39.926 58.5586 39.926 58.5672C39.926 58.5757 39.926 58.5843 39.926 58.593C39.926 58.6016 39.926 58.6102 39.926 58.6188C39.926 58.6275 39.926 58.6361 39.926 58.6448C39.926 58.6534 39.926 58.6621 39.926 58.6708C39.926 58.6795 39.926 58.6882 39.926 58.6969C39.926 58.7056 39.926 58.7143 39.926 58.723C39.926 58.7318 39.926 58.7405 39.926 58.7493C39.926 58.758 39.926 58.7668 39.926 58.7756C39.926 58.7844 39.926 58.7932 39.926 58.802C39.926 58.8108 39.926 58.8196 39.926 58.8284C39.926 58.8372 39.926 58.8461 39.926 58.8549C39.926 58.8638 39.926 58.8726 39.926 58.8815C39.926 58.8904 39.926 58.8993 39.926 58.9082C39.926 58.9171 39.926 58.926 39.926 58.9349C39.926 58.9439 39.926 58.9528 39.926 58.9617C39.926 58.9707 39.926 58.9796 39.926 58.9886C39.926 58.9976 39.926 59.0066 39.926 59.0156C39.926 59.0246 39.926 59.0336 39.926 59.0426C39.926 59.0516 39.926 59.0606 39.926 59.0697C39.926 59.0787 39.926 59.0878 39.926 59.0968C39.926 59.1059 39.926 59.115 39.926 59.1241C39.926 59.1332 39.926 59.1423 39.926 59.1514C39.926 59.1605 39.926 59.1696 39.926 59.1788C39.926 59.1879 39.926 59.1971 39.926 59.2062C39.926 59.2154 39.926 59.2246 39.926 59.2337C39.926 59.2429 39.926 59.2521 39.926 59.2613C39.926 59.2705 39.926 59.2798 39.926 59.289C39.926 59.2982 39.926 59.3075 39.926 59.3167C39.926 59.326 39.926 59.3352 39.926 59.3445C39.926 59.3538 39.926 59.3631 39.926 59.3724C39.926 59.3817 39.926 59.391 39.926 59.4003C39.926 59.4097 39.926 59.419 39.926 59.4283C39.926 59.4377 39.926 59.4471 39.926 59.4564C39.926 59.4658 39.926 59.4752 39.926 59.4846C39.926 59.494 39.926 59.5034 39.926 59.5128C39.926 59.5222 39.926 59.5316 39.926 59.5411C39.926 59.5505 39.926 59.56 39.926 59.5695C39.926 59.5789 39.926 59.5884 39.926 59.5979C39.926 59.6074 39.926 59.6169 39.926 59.6264C39.926 59.6359 39.926 59.6454 39.926 59.655C39.926 59.6645 39.926 59.674 39.926 59.6836C39.926 59.6932 39.926 59.7027 39.926 59.7123C39.926 59.7219 39.926 59.7315 39.926 59.7411C39.926 59.7507 39.926 59.7603 39.926 59.7699C39.926 59.7796 39.926 59.7892 39.926 59.7988C39.926 59.8085 39.926 59.8182 39.926 59.8278C39.926 59.8375 39.926 59.8472 39.926 59.8569C39.926 59.8666 39.926 59.8763 39.926 59.886C39.926 59.8957 39.926 59.9055 39.926 59.9152C39.926 59.9249 39.926 59.9347 39.926 59.9445C39.926 59.9542 39.926 59.964 39.926 59.9738C39.926 59.9836 39.926 59.9934 39.926 60.0032C39.926 60.013 39.926 60.0228 39.926 60.0327C39.926 60.0425 39.926 60.0523 39.926 60.0622C39.926 60.072 39.926 60.0819 39.926 60.0918C39.926 60.1017 39.926 60.1116 39.926 60.1215C39.926 60.1314 39.926 60.1413 39.926 60.1512C39.926 60.1611 39.926 60.1711 39.926 60.181C39.926 60.191 39.926 60.2009 39.926 60.2109C39.926 60.2209 39.926 60.2308 39.926 60.2408C39.926 60.2508 39.926 60.2608 39.926 60.2708C39.926 60.2809 39.926 60.2909 39.926 60.3009C39.926 60.311 39.926 60.321 39.926 60.3311C39.926 60.3411 39.926 60.3512 39.926 60.3613C39.926 60.3714 39.926 60.3815 39.926 60.3916C39.926 60.4017 39.926 60.4118 39.926 60.4219C39.926 60.432 39.926 60.4422 39.926 60.4523C39.926 60.4625 39.926 60.4726 39.926 60.4828C39.926 60.493 39.926 60.5032 39.926 60.5134C39.926 60.5235 39.926 60.5338 39.926 60.544C39.926 60.5542 39.926 60.5644 39.926 60.5747C39.926 60.5849 39.926 60.5951 39.926 60.6054C39.926 60.6157 39.926 60.6259 39.926 60.6362C39.926 60.6465 39.926 60.6568 39.926 60.6671C39.926 60.6774 39.926 60.6877 39.926 60.6981C39.926 60.7084 39.926 60.7187 39.926 60.7291C39.926 60.7394 39.926 60.7498 39.926 60.7602C39.926 60.7705 39.926 60.7809 39.926 60.7913C39.926 60.8017 39.926 60.8121 39.926 60.8225C39.926 60.8329 39.926 60.8434 39.926 60.8538C39.926 60.8642 39.926 60.8747 39.926 60.8852C39.926 60.8956 39.926 60.9061 39.926 60.9166C39.926 60.9271 39.926 60.9375 39.926 60.9481C39.926 60.9586 39.926 60.9691 39.926 60.9796C39.926 60.9901 39.926 61.0007 39.926 61.0112C39.926 61.0218 39.926 61.0323 39.926 61.0429C39.926 61.0535 39.926 61.064 39.926 61.0746C39.926 61.0852 39.926 61.0958 39.926 61.1064C39.926 61.1171 39.926 61.1277 39.926 61.1383C39.926 61.149 39.926 61.1596 39.926 61.1703C39.926 61.1809 39.926 61.1916 39.926 61.2023C39.926 61.2129 39.926 61.2236 39.926 61.2343C39.926 61.245 39.926 61.2557 39.926 61.2665C39.926 61.2772 39.926 61.2879 39.926 61.2987C39.926 61.3094 39.926 61.3202 39.926 61.3309C39.926 61.3417 39.926 61.3525 39.926 61.3633C39.926 61.3741 39.926 61.3849 39.926 61.3957C39.926 61.4065 39.926 61.4173 39.926 61.4281C39.926 61.439 39.926 61.4498 39.926 61.4607C39.926 61.4715 39.926 61.4824 39.926 61.4932C39.926 61.5041 39.926 61.515 39.926 61.5259C39.926 61.5368 39.926 61.5477 39.926 61.5586C39.926 61.5695 39.926 61.5805 39.926 61.5914C39.926 61.6023 39.926 61.6133 39.926 61.6242C39.926 61.6352 39.926 61.6462 39.926 61.6572C39.926 61.6681 39.926 61.6791 39.926 61.6901C39.926 61.7011 39.926 61.7121 39.926 61.7232C39.926 61.7342 39.926 61.7452 39.926 61.7563C39.926 61.7673 39.926 61.7784 39.926 61.7894C39.926 61.8005 39.926 61.8116 39.926 61.8227C39.926 61.8338 39.926 61.8449 39.926 61.856C39.926 61.8671 39.926 61.8782 39.926 61.8893C39.926 61.9005 39.926 61.9116 39.926 61.9227C39.926 61.9339 39.926 61.9451 39.926 61.9562C39.926 61.9674 39.926 61.9786 39.926 61.9898C39.926 62.001 39.926 62.0122 39.926 62.0234C39.926 62.0346 39.926 62.0458 39.926 62.0571C39.926 62.0683 39.926 62.0795 39.926 62.0908C39.926 62.1021 39.926 62.1133 39.926 62.1246C39.926 62.1359 39.926 62.1472 39.926 62.1585C39.926 62.1698 39.926 62.1811 39.926 62.1924C39.926 62.2037 39.926 62.215 39.926 62.2264C39.926 62.2377 39.926 62.2491 39.926 62.2604C39.926 62.2718 39.926 62.2832 39.926 62.2945C39.926 62.3059 39.926 62.3173 39.926 62.3287C39.926 62.3401 39.926 62.3515 39.926 62.363C39.926 62.3744 39.926 62.3858 39.926 62.3973C39.926 62.4087 39.926 62.4202 39.926 62.4316C39.926 62.4431 39.926 62.4546 39.926 62.4661C39.926 62.4775 39.926 62.489 39.926 62.5005C39.926 62.5121 39.926 62.5236 39.926 62.5351C39.926 62.5466 39.926 62.5582 39.926 62.5697C39.926 62.5813 39.926 62.5928 39.926 62.6044C39.926 62.616 39.926 62.6275 39.926 62.6391C39.926 62.6507 39.926 62.6623 39.926 62.6739C39.926 62.6855 39.926 62.6971 39.926 62.7088C39.926 62.7204 39.926 62.732 39.926 62.7437C39.926 62.7553 39.926 62.767 39.926 62.7787C39.926 62.7904 39.926 62.802 39.926 62.8137C39.926 62.8254 39.926 62.8371 39.926 62.8488C39.926 62.8605 39.926 62.8723 39.926 62.884C39.926 62.8957 39.926 62.9075 39.926 62.9192C39.926 62.931 39.926 62.9427 39.926 62.9545C39.926 62.9663 39.926 62.9781 39.926 62.9899C39.926 63.0017 39.926 63.0135 39.926 63.0253C39.926 63.0371 39.926 63.0489 39.926 63.0607C39.926 63.0726 39.926 63.0844 39.926 63.0963C39.926 63.1081 39.926 63.12 39.926 63.1319C39.926 63.1437 39.926 63.1556 39.926 63.1675C39.926 63.1794 39.926 63.1913 39.926 63.2032C39.926 63.2151 39.926 63.2271 39.926 63.239C39.926 63.2509 39.926 63.2629 39.926 63.2748C39.926 63.2868 39.926 63.2988 39.926 63.3107C39.926 63.3227 39.926 63.3347 39.926 63.3467C39.926 63.3587 39.926 63.3707 39.926 63.3827C39.926 63.3947 39.926 63.4067 39.926 63.4188C39.926 63.4308 39.926 63.4429 39.926 63.4549C39.926 63.467 39.926 63.479 39.926 63.4911C39.926 63.5032 39.926 63.5153 39.926 63.5274C39.926 63.5395 39.926 63.5516 39.926 63.5637C39.926 63.5758 39.926 63.5879 39.926 63.6C39.926 63.6122 39.926 63.6243 39.926 63.6365C39.926 63.6486 39.926 63.6608 39.926 63.673C39.926 63.6851 39.926 63.6973 39.926 63.7095C39.926 63.7217 39.926 63.7339 39.926 63.7461C39.926 63.7583 39.926 63.7706 39.926 63.7828C39.926 63.795 39.926 63.8073 39.926 63.8195C39.926 63.8318 39.926 63.844 39.926 63.8563C39.926 63.8686 39.926 63.8809 39.926 63.8932C39.926 63.9055 39.926 63.9178 39.926 63.9301C39.926 63.9424 39.926 63.9547 39.926 63.967C39.926 63.9794 39.926 63.9917 39.926 64.0041C39.926 64.0164 39.926 64.0288 39.926 64.0411C39.926 64.0535 39.926 64.0659 39.926 64.0783C39.926 64.0907 39.926 64.1031 39.926 64.1155C39.926 64.1279 39.926 64.1403 39.926 64.1527C39.926 64.1652 39.926 64.1776 39.926 64.1901C39.926 64.2025 39.926 64.215 39.926 64.2274C39.926 64.2399 39.926 64.2524 39.926 64.2649C39.926 64.2773 39.926 64.2898 39.926 64.3023C39.926 64.3149 39.926 64.3274 39.926 64.3399C39.926 64.3524 39.926 64.365 39.926 64.3775C39.926 64.39 39.926 64.4026 39.926 64.4152C39.926 64.4277 39.926 64.4403 39.926 64.4529C39.926 64.4655 39.926 64.4781 39.926 64.4907C39.926 64.5033 39.926 64.5159 39.926 64.5285C39.926 64.5411 39.926 64.5537 39.926 64.5664C39.926 64.579 39.926 64.5917 39.926 64.6043C39.926 64.617 39.926 64.6297 39.926 64.6423C39.926 64.655 39.926 64.6677 39.926 64.6804C39.926 64.6931 39.926 64.7058 39.926 64.7185C39.926 64.7312 39.926 64.744 39.926 64.7567C39.926 64.7694 39.926 64.7822 39.926 64.7949C39.926 64.8077 39.926 64.8205 39.926 64.8332C39.926 64.846 39.926 64.8588 39.926 64.8716C39.926 64.8844 39.926 64.8972 39.926 64.91C39.926 64.9228 39.926 64.9356 39.926 64.9485C39.926 64.9613 39.926 64.9741 39.926 64.987C39.926 64.9998 39.926 65.0127 39.926 65.0256C39.926 65.0384 39.926 65.0513 39.926 65.0642C39.926 65.0771 39.926 65.09 39.926 65.1029C39.926 65.1158 39.926 65.1287 39.926 65.1416C39.926 65.1545 39.926 65.1675 39.926 65.1804C39.926 65.1934 39.926 65.2063 39.926 65.2193C39.926 65.2322 39.926 65.2452 39.926 65.2582C39.926 65.2712 39.926 65.2842 39.926 65.2972C39.926 65.3102 39.926 65.3232 39.926 65.3362C39.926 65.3492 39.926 65.3622 39.926 65.3753C39.926 65.3883 39.926 65.4013 39.926 65.4144C39.926 65.4274 39.926 65.4405 39.926 65.4536C39.926 65.4667 39.926 65.4797 39.926 65.4928C39.926 65.5059 39.926 65.519 39.926 65.5321C39.926 65.5452 39.926 65.5584 39.926 65.5715C39.926 65.5846 39.926 65.5978 39.926 65.6109C39.926 65.624 39.926 65.6372 39.926 65.6504C39.926 65.6635 39.926 65.6767 39.926 65.6899C39.926 65.7031 39.926 65.7163 39.926 65.7295C39.926 65.7427 39.926 65.7559 39.926 65.7691C39.926 65.7823 39.926 65.7956 39.926 65.8088C39.926 65.822 39.926 65.8353 39.926 65.8485C39.926 65.8618 39.926 65.8751 39.926 65.8883C39.926 65.9016 39.926 65.9149 39.926 65.9282C39.926 65.9415 39.926 65.9548 39.926 65.9681C39.926 65.9814 39.926 65.9947 39.926 66.008C39.926 66.0214 39.926 66.0347 39.926 66.0481C39.926 66.0614 39.926 66.0748 39.926 66.0881C39.926 66.1015 39.926 66.1149 39.926 66.1282C39.926 66.1416 39.926 66.155 39.926 66.1684C39.926 66.1818 39.926 66.1952 39.926 66.2087C39.926 66.2221 39.926 66.2355 39.926 66.2489C39.926 66.2624 39.926 66.2758 39.926 66.2893C39.926 66.3027 39.926 66.3162 39.926 66.3297C39.926 66.3431 39.926 66.3566 39.926 66.3701C39.926 66.3836 39.926 66.3971 39.926 66.4106C39.926 66.4241 39.926 66.4376 39.926 66.4512C39.926 66.4647 39.926 66.4782 39.926 66.4918C39.926 66.5053 39.926 66.5189 39.926 66.5324C39.926 66.546 39.926 66.5596 39.926 66.5731C39.926 66.5867 39.926 66.6003 39.926 66.6139C39.926 66.6275 39.926 66.6411 39.926 66.6547C39.926 66.6683 39.926 66.682 39.926 66.6956C39.926 66.7092 39.926 66.7229 39.926 66.7365C39.926 66.7502 39.926 66.7638 39.926 66.7775C39.926 66.7912 39.926 66.8049 39.926 66.8185C39.926 66.8322 39.926 66.8459 39.926 66.8596C39.926 66.8733 39.926 66.887 39.926 66.9008C39.926 66.9145 39.926 66.9282 39.926 66.9419C39.926 66.9557 39.926 66.9694 39.926 66.9832C39.926 66.9969 39.926 67.0107 39.926 67.0245C39.926 67.0383 39.926 67.052 39.926 67.0658C39.926 67.0796 39.926 67.0934 39.926 67.1072C39.926 67.121 39.926 67.1348 39.926 67.1487C39.926 67.1625 39.926 67.1763 39.926 67.1902C39.926 67.204 39.926 67.2179 39.926 67.2317C39.926 67.2456 39.926 67.2595 39.926 67.2733C39.926 67.2872 39.926 67.3011 39.926 67.315C39.926 67.3289 39.926 67.3428 39.926 67.3567C39.926 67.3706 39.926 67.3845 39.926 67.3985C39.926 67.4124 39.926 67.4263 39.926 67.4403C39.926 67.4542 39.926 67.4682 39.926 67.4821C39.926 67.4961 39.926 67.5101 39.926 67.524C39.926 67.538 39.926 67.552 39.926 67.566C39.926 67.58 39.926 67.594 39.926 67.608C39.926 67.622 39.926 67.6361 39.926 67.6501C39.926 67.6641 39.926 67.6782 39.926 67.6922C39.926 67.7063 39.926 67.7203 39.926 67.7344C39.926 67.7485 39.926 67.7625 39.926 67.7766C39.926 67.7907 39.926 67.8048 39.926 67.8189C39.926 67.833 39.926 67.8471 39.926 67.8612C39.926 67.8753 39.926 67.8894 39.926 67.9036C39.926 67.9177 39.926 67.9319 39.926 67.946C39.926 67.9602 39.926 67.9743 39.926 67.9885C39.926 68.0026 39.926 68.0168 39.926 68.031C39.926 68.0452 39.926 68.0594 39.926 68.0736C39.926 68.0878 39.926 68.102 39.926 68.1162C39.926 68.1304 39.926 68.1446 39.926 68.1589C39.926 68.1731 39.926 68.1874 39.926 68.2016C39.926 68.2159 39.926 68.2301 39.926 68.2444C39.926 68.2586 39.926 68.2729 39.926 68.2872C39.926 68.3015 39.926 68.3158 39.926 68.3301C39.926 68.3444 39.926 68.3587 39.926 68.373C39.926 68.3873 39.926 68.4016 39.926 68.416C39.926 68.4303 39.926 68.4446 39.926 68.459C39.926 68.4733 39.926 68.4877 39.926 68.5021C39.926 68.5164 39.926 68.5308 39.926 68.5452C39.926 68.5596 39.926 68.574 39.926 68.5884C39.926 68.6028 39.926 68.6172 39.926 68.6316C39.926 68.646 39.926 68.6604 39.926 68.6749C39.926 68.6893 39.926 68.7037 39.926 68.7182C39.926 68.7326 39.926 68.7471 39.926 68.7615C39.926 68.776 39.926 68.7905 39.926 68.805C39.926 68.8194 39.926 68.8339 39.926 68.8484C39.926 68.8629 39.926 68.8774 39.926 68.8919C39.926 68.9065 39.926 68.921 39.926 68.9355C39.926 68.95 39.926 68.9646 39.926 68.9791C39.926 68.9937 39.926 69.0082 39.926 69.0228C39.926 69.0373 39.926 69.0519 39.926 69.0665C39.926 69.0811 39.926 69.0956 39.926 69.1102C39.926 69.1248 39.926 69.1394 39.926 69.154C39.926 69.1687 39.926 69.1833 39.926 69.1979C39.926 69.2125 39.926 69.2272 39.926 69.2418C39.926 69.2564 39.926 69.2711 39.926 69.2858C39.926 69.3004 39.926 69.3151 39.926 69.3298C39.926 69.3444 39.926 69.3591 39.926 69.3738C39.926 69.3885 39.926 69.4032 39.926 69.4179C39.926 69.4326 39.926 69.4473 39.926 69.462C39.926 69.4768 39.926 69.4915 39.926 69.5062C39.926 69.521 39.926 69.5357 39.926 69.5505C39.926 69.5652 39.926 69.58 39.926 69.5947C39.926 69.6095 39.926 69.6243 39.926 69.6391C39.926 69.6539 39.926 69.6686 39.926 69.6834C39.926 69.6982 39.926 69.7131 39.926 69.7279C39.926 69.7427 39.926 69.7575 39.926 69.7723C39.926 69.7872 39.926 69.802 39.926 69.8169C39.926 69.8317 39.926 69.8466 39.926 69.8614C39.926 69.8763 39.926 69.8912 39.926 69.906C39.926 69.9209 39.926 69.9358 39.926 69.9507C39.926 69.9656 39.926 69.9805 39.926 69.9954C39.926 70.0103 39.926 70.0252 39.926 70.0402C39.926 70.0551 39.926 70.07 39.926 70.085C39.926 70.0999 39.926 70.1148 39.926 70.1298C39.926 70.1448 39.926 70.1597 39.926 70.1747C39.926 70.1897 39.926 70.2046 39.926 70.2196C39.926 70.2346 39.926 70.2496 39.926 70.2646C39.926 70.2796 39.926 70.2946 39.926 70.3096C39.926 70.3247 39.926 70.3397 39.926 70.3547C39.926 70.3698 39.926 70.3848 39.926 70.3998C39.926 70.4149 39.926 70.43 39.926 70.445C39.926 70.4601 39.926 70.4751 39.926 70.4902C39.926 70.5053 39.926 70.5204 39.926 70.5355C39.926 70.5506 39.926 70.5657 39.926 70.5808C39.926 70.5959 39.926 70.611 39.926 70.6261C39.926 70.6413 39.926 70.6564 39.926 70.6715C39.926 70.6867 39.926 70.7018 39.926 70.717C39.926 70.7321 39.926 70.7473 39.926 70.7625C39.926 70.7776 39.926 70.7928 39.926 70.808C39.926 70.8232 39.926 70.8384 39.926 70.8536C39.926 70.8688 39.926 70.884 39.926 70.8992C39.926 70.9144 39.926 70.9296 39.926 70.9449C39.926 70.9601 39.926 70.9753 39.926 70.9906C39.926 71.0058 39.926 71.0211 39.926 71.0363C39.926 71.0516 39.926 71.0669 39.926 71.0821C39.926 71.0974 39.926 71.1127 39.926 71.128C39.926 71.1433 39.926 71.1586 39.926 71.1739C39.926 71.1892 39.926 71.2045 39.926 71.2198C39.926 71.2351 39.926 71.2505 39.926 71.2658C39.926 71.2811 39.926 71.2965 39.926 71.3118C39.926 71.3272 39.926 71.3425 39.926 71.3579C39.926 71.3732 39.926 71.3886 39.926 71.404C39.926 71.4194 39.926 71.4348 39.926 71.4502C39.926 71.4655 39.926 71.4809 39.926 71.4964C39.926 71.5118 39.926 71.5272 39.926 71.5426C39.926 71.558 39.926 71.5734 39.926 71.5889C39.926 71.6043 39.926 71.6198 39.926 71.6352C39.926 71.6507 39.926 71.6661 39.926 71.6816C39.926 71.6971 39.926 71.7125 39.926 71.728C39.926 71.7435 39.926 71.759 39.926 71.7745C39.926 71.79 39.926 71.8055 39.926 71.821C39.926 71.8365 39.926 71.852 39.926 71.8675C39.926 71.8831 39.926 71.8986 39.926 71.9141C39.926 71.9297 39.926 71.9452 39.926 71.9608C39.926 71.9763 39.926 71.9919 39.926 72.0074C39.926 72.023 39.926 72.0386 39.926 72.0542C39.926 72.0697 39.926 72.0853 39.926 72.1009C39.926 72.1165 39.926 72.1321 39.926 72.1477C39.926 72.1633 39.926 72.179 39.926 72.1946C39.926 72.2102 39.926 72.2258 39.926 72.2415C39.926 72.2571 39.926 72.2728 39.926 72.2884C39.926 72.3041 39.926 72.3197 39.926 72.3354C39.926 72.3511 39.926 72.3667 39.926 72.3824C39.926 72.3981 39.926 72.4138 39.926 72.4295C39.926 72.4452 39.926 72.4609 39.926 72.4766C39.926 72.4923 39.926 72.508 39.926 72.5237C39.926 72.5394 39.926 72.5552 39.926 72.5709C39.926 72.5866 39.926 72.6024 39.926 72.6181C39.926 72.6339 39.926 72.6496 39.926 72.6654C39.926 72.6812 39.926 72.6969 39.926 72.7127C39.926 72.7285 39.926 72.7443 39.926 72.7601C39.926 72.7759 39.926 72.7917 39.926 72.8075C39.926 72.8233 39.926 72.8391 39.926 72.8549C39.926 72.8707 39.926 72.8866 39.926 72.9024C39.926 72.9182 39.926 72.9341 39.926 72.9499C39.926 72.9658 39.926 72.9816 39.926 72.9975C39.926 73.0133 39.926 73.0292 39.926 73.0451C39.926 73.061 39.926 73.0769 39.926 73.0927C39.926 73.1086 39.926 73.1245 39.926 73.1404C39.926 73.1563 39.926 73.1722 39.926 73.1882C39.926 73.2041 39.926 73.22 39.926 73.2359C39.926 73.2519 39.926 73.2678 39.926 73.2837C39.926 73.2997 39.926 73.3156 39.926 73.3316C39.926 73.3475 39.926 73.3635 39.926 73.3795C39.926 73.3954 39.926 73.4114 39.926 73.4274H42.926ZM42.926 56.0226C42.926 52.9069 42.3247 50.5011 41.118 48.5252C39.9199 46.5632 38.2099 45.1673 36.258 43.9303C34.3581 42.7263 31.995 41.5393 29.5865 40.1804C27.1193 38.7883 24.4112 37.1167 21.5336 34.8002L19.6524 37.137C22.7021 39.5922 25.5619 41.3542 28.1123 42.7932C30.7213 44.2653 32.8256 45.3068 34.6521 46.4643C36.4265 47.5889 37.702 48.6876 38.5577 50.0888C39.405 51.4762 39.926 53.3023 39.926 56.0226H42.926ZM42.926 56.0226C42.926 50.1957 42.6712 45.4343 41.3668 41.1951C40.0442 36.8969 37.6745 33.228 33.6172 29.4933L31.5854 31.7005C35.3135 35.1323 37.3561 38.3617 38.4995 42.0774C39.661 45.8521 39.926 50.2204 39.926 56.0226H42.926ZM33.6172 29.4933C31.3239 27.3823 29.3507 25.5583 27.9376 23.8226C26.5185 22.0795 25.8512 20.6444 25.8512 19.3338H22.8512C22.8512 21.6789 24.0398 23.7866 25.6111 25.7167C27.1886 27.6543 29.3403 29.6339 31.5854 31.7005L33.6172 29.4933ZM18.6428 85.059C16.635 78.5517 16.7392 78.6295 14.8651 74.4931L12.1325 75.7312C13.9209 79.6784 13.7694 79.4394 15.7761 85.9435L18.6428 85.059ZM14.8651 74.4931C13.557 71.6059 10.5588 70.2225 7.94851 71.3068C5.25145 72.4271 3.9948 75.6824 4.93303 80.0352L7.86568 79.4031C7.07375 75.7291 8.33169 74.3962 9.09932 74.0773C9.95371 73.7224 11.3703 74.0489 12.1325 75.7312L14.8651 74.4931ZM5.61149 78.4427C2.24916 80.5181 1.03684 83.7737 1.58081 86.4428C1.84875 87.7575 2.56499 88.9784 3.7259 89.7082C4.92555 90.4623 6.40945 90.5708 7.91026 89.979L6.80989 87.1881C6.08879 87.4724 5.62075 87.3558 5.32254 87.1683C4.98559 86.9565 4.65804 86.5192 4.52038 85.8437C4.25316 84.5326 4.78239 82.4799 7.18722 80.9956L5.61149 78.4427ZM7.91026 89.979C11.8653 88.4197 12.8071 88.0851 13.4664 87.9234C14.0097 87.7901 14.8501 87.7064 17.6075 86.9474L16.8114 84.055C13.9492 84.8428 13.7739 84.7591 12.7518 85.0097C11.8457 85.232 10.6726 85.6652 6.80989 87.1881L7.91026 89.979ZM22.6832 63.4482C21.2202 62.3703 18.8314 61.2216 16.6531 60.2101C14.3675 59.1487 12.3022 58.2322 11.1786 57.5485L9.61915 60.1113C10.9317 60.91 13.2459 61.9355 15.3896 62.931C17.6406 63.9763 19.731 64.9994 20.9036 65.8634L22.6832 63.4482ZM11.1787 57.5485C10.0402 56.8557 9.70289 56.2053 9.6243 55.8035C9.54691 55.4077 9.65941 54.9476 10.064 54.4806C10.9179 53.495 12.7627 52.8872 14.5163 53.7113L15.7922 50.9961C12.7908 49.5857 9.50705 50.542 7.79662 52.5162C6.91897 53.5291 6.39033 54.8977 6.68007 56.3792C6.9686 57.8546 8.00672 59.1301 9.61914 60.1113L11.1787 57.5485ZM16.5759 52.8322C16.9363 51.7615 17.8131 50.279 18.7868 49.4536C19.2682 49.0456 19.6242 48.9238 19.8349 48.9157C19.9641 48.9107 20.2368 48.9332 20.6543 49.4206L22.9324 47.4685C22.0477 46.4361 20.9459 45.8707 19.7194 45.9179C18.5742 45.9621 17.5932 46.5326 16.8469 47.1652C15.3654 48.421 14.2249 50.4129 13.7327 51.8752L16.5759 52.8322ZM20.6543 49.4206C21.0399 49.8705 21.3729 50.6808 21.5624 51.9071C21.7471 53.1027 21.7711 54.5305 21.6797 56.0485C21.4971 59.0829 20.8668 62.2763 20.3425 64.2752L23.2443 65.0364C23.8052 62.8981 24.4771 59.5056 24.6743 56.2287C24.7729 54.5909 24.7562 52.9316 24.5272 51.4491C24.3029 49.9972 23.8491 48.5384 22.9324 47.4685L20.6543 49.4206ZM21.8784 35.1954C21.1844 34.0418 19.7927 32.2253 18.4567 30.4114C17.0693 28.5277 15.6874 26.5783 14.8416 24.9864L12.1923 26.394C13.1558 28.2075 14.6659 30.3233 16.0412 32.1905C17.4678 34.1274 18.7095 35.7474 19.3076 36.7418L21.8784 35.1954ZM14.8416 24.9864C13.864 23.1464 12.5325 21.9219 11.0033 21.3944C9.46643 20.8642 7.89576 21.0991 6.61604 21.8729C4.04513 23.4274 2.81502 26.9642 4.31778 30.7168L7.10276 29.6015C6.05955 26.9965 7.04387 25.12 8.16832 24.4401C8.73628 24.0967 9.38353 24.0091 10.0249 24.2303C10.6739 24.4542 11.481 25.0552 12.1923 26.394L14.8416 24.9864ZM5.14794 28.7685C1.73909 30.147 -0.0720757 33.0359 0.0021587 35.6747C0.0394414 37 0.571223 38.317 1.71162 39.1768C2.85927 40.042 4.38106 40.2637 6.04004 39.8898L5.3805 36.9632C4.34194 37.1972 3.78644 36.984 3.51766 36.7813C3.24162 36.5732 3.01782 36.1893 3.00097 35.5903C2.96694 34.3807 3.85332 32.528 6.2726 31.5497L5.14794 28.7685ZM6.04004 39.8898C11.4149 38.6785 15.8505 37.8176 20.7018 37.4646L20.4842 34.4726C15.4056 34.842 10.7957 35.7428 5.3805 36.9632L6.04004 39.8898ZM25.5942 18.4941C23.9092 15.9999 22.2923 14.9184 20.6051 13.9888C18.9886 13.0981 17.4743 12.4165 15.5322 10.6536L13.5159 12.875C15.7796 14.9298 17.6674 15.7954 19.1573 16.6163C20.5764 17.3983 21.7702 18.1927 23.1082 20.1735L25.5942 18.4941ZM15.5322 10.6536C15.219 10.3693 14.8781 9.77779 14.7063 8.97235C14.5378 8.18244 14.5754 7.38169 14.801 6.77456C15.0114 6.20826 15.3618 5.84328 15.9039 5.67835C16.5075 5.49474 17.5899 5.4874 19.3565 6.22248L20.509 3.45269C18.3951 2.5731 16.5536 2.34496 15.0308 2.80823C13.4465 3.29018 12.4682 4.43976 11.9889 5.72951C11.5248 6.97843 11.5115 8.37521 11.7723 9.59812C12.0298 10.8055 12.5983 12.0421 13.5159 12.875L15.5322 10.6536ZM21.2363 5.57983C22.4797 3.39615 24.1936 3.07594 25.2997 3.38692C25.8923 3.55352 26.3267 3.89529 26.5574 4.2745C26.7701 4.62399 26.8614 5.08225 26.6502 5.6741L29.4757 6.68248C29.9859 5.25283 29.8107 3.84978 29.1203 2.71514C28.448 1.61022 27.343 0.845049 26.1116 0.498875C23.5698 -0.215696 20.4971 0.815244 18.6293 4.09533L21.2363 5.57983ZM26.6502 5.6741C24.8076 10.837 23.9491 13.2285 23.5147 14.8002C23.0559 16.4602 23.0451 17.3164 22.8586 19.1848L25.8438 19.4828C26.0449 17.4673 26.0341 16.9461 26.4063 15.5994C26.8028 14.1646 27.6063 11.9203 29.4757 6.68249L26.6502 5.6741Z" fill="white"/>
</svg>
