<svg width="119" height="127" viewBox="0 0 119 127" fill="none" xmlns="http://www.w3.org/2000/svg">
<path d="M56.492 81.531C56.4898 81.5335 56.4875 81.5359 56.4852 81.5383M56.492 81.531C56.9741 81.6286 57.461 81.7048 57.9512 81.7589M56.492 81.531L56.4852 81.5383M63.1897 45.6685C64.2667 45.9032 65.3071 46.2436 66.3008 46.6791C66.938 46.9583 67.5559 47.2765 68.152 47.631M69.1765 48.2908C68.8429 48.0588 68.5012 47.8387 68.152 47.631M74.121 53.5269C74.7256 54.4974 75.2335 55.5154 75.6449 56.5656C76.0631 57.6336 76.3814 58.7349 76.5999 59.8536M63.1929 81.4464C64.2698 81.2118 65.3101 80.8715 66.3038 80.4362C67.3142 79.9936 68.2763 79.4527 69.1793 78.8249M45.1887 73.596C44.5841 72.6254 44.0762 71.6074 43.6649 70.5572C43.2466 69.4892 42.9283 68.3879 42.7098 67.2692M76.6017 67.3085C76.4581 68.0446 76.2726 68.7645 76.048 69.4653M74.1205 73.6336C74.7148 72.6794 75.2267 71.6629 75.6456 70.5954C75.7911 70.2247 75.9254 69.8479 76.048 69.4653M45.2241 53.5191C44.6196 54.4896 44.1118 55.5075 43.7006 56.5577C43.2825 57.6256 42.9643 58.7268 42.7459 59.8456M50.1793 78.8579C50.5169 79.0926 50.8605 79.3136 51.2095 79.5208M56.1673 81.477C55.1085 81.2462 54.0661 80.9098 53.0553 80.4679C52.4266 80.193 51.8102 79.8773 51.2095 79.5208M67.737 21.0287C72.4009 15.7855 78.6767 9.50905 81.4059 8.14447C82.4439 11.2012 82.7226 20.307 82.5098 27.4461M67.737 21.0287C65.3477 14.3341 61.7736 5.98132 59.6999 3.56799C57.6668 5.93932 54.1273 14.3185 51.7171 21.059M67.737 21.0287C68.894 24.2704 69.7732 27.1234 70.0697 28.7248C71.3258 34.7924 65.8418 42.5064 62.9428 45.605C61.881 45.39 60.7962 45.2791 59.7023 45.2786C58.8992 45.2782 58.0912 45.3373 57.2839 45.4582M51.7171 21.059C47.0819 15.8318 40.7291 9.53057 37.9321 8.13568C36.9158 11.1396 36.6792 20.2664 36.8906 27.4586M51.7171 21.059C50.5753 24.2524 49.6869 27.078 49.3322 28.7226C48.0761 34.7878 53.5585 42.4992 56.4594 45.5999M36.8906 27.4586C30.7211 24.5095 22.6049 21.2731 19.5239 21.1156C19.6738 24.3192 22.7935 32.9224 25.6057 39.4959M36.8906 27.4586C39.8787 28.887 42.4101 30.2479 43.6915 31.159C48.6404 34.5115 49.9257 44.064 49.9497 48.4212C49.0551 49.0624 48.2139 49.7945 47.4402 50.6113C46.6793 51.4146 45.9836 52.2999 45.3664 53.2613C41.2421 53.2367 32.2004 51.88 29.0283 46.6506C28.1827 45.2298 26.9282 42.5873 25.6057 39.4959M25.6057 39.4959C18.7849 39.2674 10.0831 39.5148 7.22744 40.5934C8.54217 43.5364 14.462 50.2052 19.3971 55.0972M19.3971 55.0972C13.0217 57.6435 5.10815 61.3765 2.86659 63.522C5.14813 65.7105 13.0385 69.4808 19.3709 72.0052M19.3971 55.0972C22.4294 53.8861 25.1137 52.9435 26.6743 52.5678C32.4166 51.2402 39.7179 57.0368 42.6507 60.1011C42.4438 61.2421 42.3433 62.3879 42.3438 63.5245C42.3443 64.6802 42.4492 65.8264 42.6527 66.9483C39.7201 70.0113 32.4191 75.8056 26.6764 74.4783C25.1572 74.1644 22.448 73.2319 19.3709 72.0052M19.3709 72.0052C14.4345 76.8974 8.50878 83.5721 7.19355 86.5168C9.07631 87.2281 13.5001 87.5785 18.2507 87.6694C20.6918 87.7162 23.2191 87.6944 25.5322 87.6179M25.5322 87.6179C22.7253 94.1859 19.6188 102.76 19.4696 105.957C22.5629 105.8 30.7314 102.539 36.9094 99.5814M25.5322 87.6179C26.8607 84.5095 28.122 81.8505 28.9711 80.4237C32.1426 75.1947 41.1841 73.8392 45.3084 73.8151C45.9257 74.7766 46.6215 75.6619 47.3825 76.4653C48.1564 77.2823 48.9976 78.0145 49.8923 78.6558C49.8687 83.013 48.5846 92.5653 43.6361 95.9172C42.3653 96.8206 39.8652 98.1663 36.9094 99.5814M36.9094 99.5814C36.6938 106.788 36.929 115.985 37.9503 119.003C40.7407 117.611 47.0697 111.337 51.7014 106.118M51.7014 106.118C54.0907 112.81 57.6623 121.156 59.7349 123.568C61.7694 121.195 65.3122 112.806 67.7224 106.064M51.7014 106.118C50.5426 102.872 49.6619 100.014 49.3651 98.4112C48.11 92.3484 53.5844 84.6417 56.4852 81.5383M67.7224 106.064C72.3891 111.312 78.68 117.606 81.4134 118.973C82.4495 115.921 82.7278 106.836 82.5159 99.7016M67.7224 106.064C68.862 102.876 69.7484 100.056 70.1026 98.4134C71.3591 92.3462 65.8729 84.6319 62.9727 81.5331C61.8928 81.7518 60.8083 81.8579 59.7326 81.8574C59.1353 81.8571 58.5408 81.8239 57.9512 81.7589M82.5159 99.7016C88.6782 102.643 96.7534 105.86 99.8249 106.017C99.6756 102.827 96.5819 94.2838 93.7792 87.7213M82.5159 99.7016C79.5027 98.2632 76.9469 96.8906 75.6572 95.9736C70.7083 92.6211 69.4231 83.0687 69.399 78.7115C70.2937 78.0702 71.1348 77.3382 71.9085 76.5213C72.6694 75.718 73.3651 74.8327 73.9823 73.8713C78.1067 73.896 87.1483 75.2527 90.3204 80.4821C91.1737 81.9158 92.4434 84.5936 93.7792 87.7213M93.7792 87.7213C100.547 87.9515 109.216 87.66 112.119 86.5597C110.819 83.6587 104.814 76.9649 99.8338 72.0277M99.8338 72.0277C106.227 69.4806 114.213 65.719 116.467 63.562C114.186 61.3748 106.304 57.6077 99.9734 55.0833M99.8338 72.0277C96.8435 73.2191 94.202 74.1448 92.6589 74.5162C86.9166 75.8438 79.6153 70.0472 76.6825 66.9829C76.8894 65.8419 76.9899 64.6961 76.9894 63.5595C76.9889 62.4038 76.884 61.2576 76.6805 60.1358C79.6131 57.0727 86.9141 51.2785 92.6569 52.6057C94.1778 52.92 96.8918 53.8544 99.9734 55.0833M99.9734 55.0833C104.903 50.1942 110.804 43.5439 112.116 40.606C109.26 39.5271 100.558 39.2786 93.7367 39.5063M93.7367 39.5063C96.5472 32.9343 99.6632 24.3376 99.8127 21.1355C96.7422 21.292 88.671 24.5059 82.5098 27.4461M93.7367 39.5063C92.4132 42.6012 91.1574 45.2471 90.3112 46.6692C87.1397 51.8982 78.0982 53.2537 73.9738 53.2778C73.3565 52.3163 72.6607 51.431 71.8997 50.6276C71.1259 49.8106 70.2847 49.0784 69.39 48.4371C69.4135 44.0799 70.6977 34.5276 75.6462 31.1758C76.9366 30.2584 79.4944 28.885 82.5098 27.4461M56.4594 45.5999C56.3573 45.6202 56.2553 45.6414 56.1535 45.6636C55.0946 45.8942 54.0523 46.2305 53.0416 46.6722C52.0476 47.1067 51.0842 47.6433 50.1657 48.2819C49.1985 48.9545 48.281 49.7402 47.4302 50.6392C44.0518 54.2087 42.3628 58.8873 42.3631 63.5659C42.3634 68.2445 44.0529 72.9233 47.4317 76.4932C48.583 77.7096 49.8561 78.7188 51.2095 79.5208M56.4594 45.5999L56.4621 45.6029C56.7358 45.5475 57.0099 45.4993 57.2839 45.4582M56.4594 45.5999C56.7333 45.5457 57.0083 45.4984 57.2839 45.4582M51.2095 79.5208C52.8725 80.5061 54.6567 81.1787 56.4852 81.5383M56.4852 81.5383C56.9712 81.6339 57.4604 81.7075 57.9512 81.7589M57.9512 81.7589C58.5216 81.8186 59.0942 81.8485 59.6669 81.8485C64.095 81.8488 68.5231 80.0643 71.9014 76.4948C73.8397 74.4469 75.2218 72.0339 76.048 69.4653M76.048 69.4653C76.6618 67.5569 76.9686 65.5625 76.9685 63.5681C76.9682 58.8895 75.2787 54.2107 71.8999 50.6408C70.7571 49.4334 69.4943 48.4301 68.152 47.631M68.152 47.631C65.5257 46.0675 62.5952 45.2857 59.6648 45.2855C58.8691 45.2854 58.0735 45.343 57.2839 45.4582" stroke="white" stroke-width="3"/>
</svg>
